<?xml version="1.0" standalone="no"?>
<!DOCTYPE svg PUBLIC "-//W3C//DTD SVG 1.1//EN" 
  "http://www.w3.org/Graphics/SVG/1.1/DTD/svg11.dtd">
<svg width="30.000mm" height="128.500mm" version="1.1"
     viewBox="0 0 30.000 128.500"
     xmlns="http://www.w3.org/2000/svg"  xmlns:xlink="http://www.w3.org/1999/xlink" 
     xmlns:fpd="http://www.schaeffer-ag.de">
  <desc>Created with the Front Panel Designer by the export of the file 'Twists work.fpd'.</desc>
  <defs>
    <pattern id="revside-fill" x="1" y="1" width="1.5" height="1.5" patternUnits="userSpaceOnUse">
      <line x1="0" y1="0" x2="1" y2="1" style="stroke-width:0.2; stroke:black; stroke-dasharray:none;" />
      <line x1="0" y1="1" x2="1" y2="0" style="stroke-width:0.2; stroke:black; stroke-dasharray:none;" />
    </pattern>
    <pattern id="revside-fill-e0e0e0" x="1" y="1" width="1.5" height="1.5" patternUnits="userSpaceOnUse">
      <line x1="0" y1="0" x2="1.5" y2="1.5" style="stroke-width:0.2; stroke:#e0e0e0; stroke-dasharray:none;" />
      <line x1="0" y1="1.5" x2="1.5" y2="0" style="stroke-width:0.2; stroke:#e0e0e0; stroke-dasharray:none;" />
    </pattern>
  </defs>
<g transform="scale(1,-1) translate(0, -128.500)" 
   fill-rule="evenodd"
   style="stroke-linecap:round; stroke-linejoin:round; stroke-opacity:1.0; stroke-opacity:1.0;">
<path d="M30.000 128.500 
L0.000 128.500
L0.000 128.500
L0.000 0.000
L0.000 0.000
L30.000 0.000
L30.000 0.000
L30.000 128.500
L30.000 128.500z"
fill="#cccccc" vector-effect="non-scaling-stroke" stroke="#000000" stroke-width="0.100mm" />
<path d="M16.591 127.431 
L18.891 127.431
L17.741 127.431
L17.741 123.981
M19.811 126.281 
L20.578 123.981
L21.344 126.281
L22.111 123.981
L22.878 126.281
M23.798 127.431 L23.798 127.239
M23.798 126.281 L23.798 123.981
M24.718 124.288 
A1.302,1.302 0 0,1 26.098,124.058
A0.492,0.492 0 0,1 26.059,124.978
L25.024 125.323
A0.441,0.441 0 0,0 24.948,126.128
A1.358,1.358 0 0,0 26.404,126.051
M27.669 127.431 
L27.669 126.281
L28.244 126.281
L27.286 126.281
L27.669 126.281
L27.669 124.441
A0.468,0.468 0 0,1 28.053,123.981"
fill="none" vector-effect="non-scaling-stroke" stroke="#000000" stroke-width="0.400mm" fpd:engraving_ral_9005="1" />
<path d="M8.598 121.085 
L8.598 122.985
L9.337 121.613
L10.076 122.985
L10.076 121.085
M10.583 121.718 
L11.638 121.718
L11.638 121.824
A0.528,0.528 0 0,1 10.583,121.824
L10.583 121.613
A0.553,0.553 0 0,1 11.575,121.275
M12.335 122.985 
L12.335 122.352
L12.652 122.352
L12.124 122.352
L12.335 122.352
L12.335 121.338
A0.257,0.257 0 0,1 12.546,121.085
M14.256 122.352 
L14.256 121.613
A0.549,0.549 0 0,0 13.158,121.613
L13.158 121.824
A0.549,0.549 0 0,0 14.256,121.824
L14.256 121.317
A0.307,0.307 0 0,1 14.509,121.043
M15.016 122.035 L16.114 122.035
M16.621 121.085 
L16.621 122.352
L16.621 121.929
A0.422,0.422 0 0,0 17.465,121.929
L17.465 121.085
L17.465 121.929
A0.422,0.422 0 0,0 18.309,121.929
L18.309 121.085
M18.816 121.613 
L18.816 121.824
A0.528,0.528 0 0,0 19.872,121.824
L19.872 121.613
A0.528,0.528 0 0,0 18.816,121.613
M21.434 122.985 
L21.434 121.613
A0.528,0.528 0 0,0 20.378,121.571
L20.378 121.824
A0.528,0.528 0 0,0 21.434,121.824
L21.434 121.085
M21.941 122.352 
L21.941 121.613
A0.529,0.529 0 0,1 22.996,121.613
L22.996 121.085
L22.996 122.352
M23.503 122.985 L23.503 121.338A0.257,0.257 0 0,1 23.714,121.085
M25.318 122.352 
L25.318 121.613
A0.548,0.548 0 0,0 24.221,121.613
L24.221 121.824
A0.549,0.549 0 0,0 25.318,121.824
L25.318 121.317
A0.307,0.307 0 0,1 25.572,121.043
M26.268 122.985 
L26.268 122.352
L26.585 122.352
L26.057 122.352
L26.268 122.352
L26.268 121.338
A0.257,0.257 0 0,1 26.479,121.085
M27.092 121.613 
L27.092 121.824
A0.529,0.529 0 0,0 28.147,121.824
L28.147 121.613
A0.528,0.528 0 0,0 27.092,121.613
M28.654 121.085 
L28.654 122.352
L28.654 121.929
A0.467,0.467 0 0,0 28.759,122.225
A0.301,0.301 0 0,0 29.224,122.225"
fill="none" vector-effect="non-scaling-stroke" stroke="#000000" stroke-width="0.200mm" fpd:engraving_ral_9005="1" />
<path d="M1.992 66.207 
A0.586,0.586 0 0,1 3.164,66.207
L3.164 66.757
A0.586,0.586 0 0,1 1.992,66.757
L1.992 66.207
M4.665 67.141 
A0.434,0.434 0 0,1 4.409,67.306
A1.034,1.034 0 0,1 3.896,67.288
A0.489,0.489 0 0,1 3.640,67.105
A0.335,0.335 0 0,1 3.805,66.592
L4.445 66.372
A0.335,0.335 0 0,0 4.610,65.859
A0.489,0.489 0 0,0 4.354,65.676
A1.034,1.034 0 0,0 3.841,65.658
A0.434,0.434 0 0,0 3.585,65.823
M6.112 67.068 
A0.537,0.537 0 0,1 5.105,66.793
L5.105 66.171
A0.550,0.550 0 0,1 6.167,65.969"
fill="none" vector-effect="non-scaling-stroke" stroke="#000000" stroke-width="0.200mm" fpd:engraving_ral_9005="1" />
<path d="M-2.776 -0.283 
A0.604,0.604 0 0,1 -1.567,-0.283
L-1.567 0.283
A0.604,0.604 0 0,1 -2.776,0.283
L-2.776 -0.283
M-1.114 0.283 
L-1.114 -0.378
A0.472,0.472 0 0,1 -0.170,-0.378
L-0.170 -0.850
L-0.170 0.283
M0.454 0.850 
L0.454 0.283
L0.737 0.283
L0.265 0.283
L0.454 0.283
L0.454 -0.623
A0.230,0.230 0 0,1 0.643,-0.850
M2.399 0.472 L2.777 0.850L2.777 -0.850"
fill="none" vector-effect="non-scaling-stroke" stroke="#000000" stroke-width="0.400mm" fpd:engraving_ral_9005="1" transform="translate(4.949,12.548) scale(1.069,1.000) "/>
<path d="M-3.059 -0.283 
A0.604,0.604 0 0,1 -1.850,-0.283
L-1.850 0.283
A0.604,0.604 0 0,1 -3.059,0.283
L-3.059 -0.283
M-1.397 0.283 
L-1.397 -0.378
A0.472,0.472 0 0,1 -0.453,-0.378
L-0.453 -0.850
L-0.453 0.283
M0.171 0.850 
L0.171 0.283
L0.454 0.283
L-0.018 0.283
L0.171 0.283
L0.171 -0.623
A0.230,0.230 0 0,1 0.360,-0.850
M2.135 0.680 
L2.248 0.774
A0.469,0.469 0 0,0 2.910,0.113
L2.116 -0.850
L3.061 -0.850"
fill="none" vector-effect="non-scaling-stroke" stroke="#000000" stroke-width="0.400mm" fpd:engraving_ral_9005="1" transform="translate(15.109,12.548) scale(1.069,1.000) "/>
<path d="M-1.869 -0.378 L-0.925 -0.378
M-2.058 -0.850 L-1.397 0.850L-0.736 -0.850
M-0.283 0.283 
L-0.283 -0.378
A0.472,0.472 0 0,1 0.662,-0.378
L0.662 -0.850
L0.662 0.283
M1.115 0.283 L2.059 -0.850
M1.115 -0.850 L2.059 0.283"
fill="none" vector-effect="non-scaling-stroke" stroke="#000000" stroke-width="0.400mm" fpd:engraving_ral_9005="1" transform="translate(25.271,12.548) scale(1.069,1.000) "/>
<path d="M-1.718 0.850 L-1.718 -0.850
M-1.265 -0.850 
L-1.265 0.283
L-1.265 -0.189
A0.472,0.472 0 0,0 -0.321,-0.189
L-0.321 -0.850
M1.342 0.472 L1.719 0.850L1.719 -0.850"
fill="none" vector-effect="non-scaling-stroke" stroke="#000000" stroke-width="0.400mm" fpd:engraving_ral_9005="1" transform="translate(4.949,24.617) scale(1.069,1.000) "/>
<path d="M-2.002 0.850 L-2.002 -0.850
M-1.549 -0.850 
L-1.549 0.283
L-1.549 -0.189
A0.472,0.472 0 0,0 -0.605,-0.189
L-0.605 -0.850
M1.077 0.680 
L1.190 0.774
A0.469,0.469 0 0,0 1.851,0.113
L1.058 -0.850
L2.002 -0.850"
fill="none" vector-effect="non-scaling-stroke" stroke="#000000" stroke-width="0.400mm" fpd:engraving_ral_9005="1" transform="translate(15.109,24.617) scale(1.069,1.000) "/>
<path d="M-2.191 -0.378 L-1.247 -0.378
M-2.380 -0.850 L-1.719 0.850L-1.058 -0.850
M-0.605 0.850 L-0.605 -0.623A0.230,0.230 0 0,1 -0.416,-0.850
M0.982 0.283 
L0.982 -0.378
A0.473,0.473 0 0,0 0.037,-0.416
L0.037 -0.189
A0.472,0.472 0 0,0 0.982,-0.189
L0.982 -0.944
A0.476,0.476 0 0,0 0.170,-1.284
M1.435 -0.378 
L1.435 -0.189
A0.472,0.472 0 0,0 2.380,-0.189
L2.380 -0.378
A0.472,0.472 0 0,0 1.435,-0.378"
fill="none" vector-effect="non-scaling-stroke" stroke="#000000" stroke-width="0.400mm" fpd:engraving_ral_9005="1" transform="translate(25.271,24.617) scale(1.069,1.000) "/>
<path d="M-2.682 -0.850 
L-2.682 0.850
L-2.059 0.850
A0.425,0.425 0 0,0 -2.059,0.000
L-2.682 0.000
M1.039 0.604 
A0.554,0.554 0 0,1 0.000,0.321
L0.000 -0.321
A0.568,0.568 0 0,1 1.095,-0.529
M1.549 0.850 L2.115 -0.850L2.682 0.850"
fill="none" vector-effect="non-scaling-stroke" stroke="#000000" stroke-width="0.400mm" fpd:engraving_ral_9005="1" transform="translate(4.949,36.837) scale(1.069,1.000) "/>
<path d="M-2.890 0.850 L-2.890 -0.850L-1.946 -0.850
M-1.493 -0.283 
L-0.548 -0.283
L-0.548 -0.189
A0.472,0.472 0 0,1 -1.493,-0.189
L-1.493 -0.378
A0.495,0.495 0 0,1 -0.605,-0.680
M-0.095 0.283 L0.377 -0.850L0.850 0.283
M2.512 0.472 L2.890 0.850L2.890 -0.850"
fill="none" vector-effect="non-scaling-stroke" stroke="#000000" stroke-width="0.400mm" fpd:engraving_ral_9005="1" transform="translate(15.109,36.837) scale(1.069,1.000) "/>
<path d="M-3.173 0.850 L-3.173 -0.850L-2.229 -0.850
M-1.776 -0.283 
L-0.831 -0.283
L-0.831 -0.189
A0.472,0.472 0 0,1 -1.776,-0.189
L-1.776 -0.378
A0.495,0.495 0 0,1 -0.888,-0.680
M-0.378 0.283 L0.094 -0.850L0.567 0.283
M2.248 0.680 
L2.361 0.774
A0.469,0.469 0 0,0 3.022,0.113
L2.229 -0.850
L3.173 -0.850"
fill="none" vector-effect="non-scaling-stroke" stroke="#000000" stroke-width="0.400mm" fpd:engraving_ral_9005="1" transform="translate(25.271,36.837) scale(1.069,1.000) "/>
<path d="M-4.456 1.039 
L-3.071 1.039
L-3.763 1.039
L-3.763 -1.039
M-2.516 1.039 L-2.516 0.924
M-2.516 0.346 L-2.516 -1.039
M-1.962 -1.039 
L-1.962 0.346
L-1.962 -0.115
A0.462,0.462 0 0,0 -1.039,-0.115
L-1.039 -1.039
L-1.039 -0.115
A0.462,0.462 0 0,0 -0.115,-0.115
L-0.115 -1.039
M0.439 1.039 
L0.439 -0.462
A0.577,0.577 0 0,1 1.593,-0.462
L1.593 -0.231
A0.577,0.577 0 0,1 0.439,-0.231
L0.439 -1.039
M2.147 -1.039 
L2.147 0.346
L2.147 -0.115
A0.510,0.510 0 0,0 2.263,0.208
A0.329,0.329 0 0,0 2.771,0.208
M3.302 -0.346 
L4.456 -0.346
L4.456 -0.231
A0.577,0.577 0 0,1 3.302,-0.231
L3.302 -0.462
A0.605,0.605 0 0,1 4.387,-0.831"
fill="none" vector-effect="non-scaling-stroke" stroke="#000000" stroke-width="0.400mm" fpd:engraving_ral_9005="1" transform="translate(7.059,77.550) scale(1.069,1.000) "/>
<circle cx="7.500" cy="3.000" r="1.600"
fill="#ffffff" vector-effect="non-scaling-stroke" stroke="#000000" stroke-width="0.100mm" 
/>
<circle cx="7.500" cy="125.500" r="1.600"
fill="#ffffff" vector-effect="non-scaling-stroke" stroke="#000000" stroke-width="0.100mm" 
/>
<circle cx="8.825" cy="70.430" r="1.550"
fill="#ffffff" vector-effect="non-scaling-stroke" stroke="#000000" stroke-width="0.100mm" 
/>
<circle cx="23.836" cy="57.832" r="3.750"
fill="#ffffff" vector-effect="non-scaling-stroke" stroke="#000000" stroke-width="0.100mm" 
/>
<circle cx="12.379" cy="57.832" r="3.750"
fill="#ffffff" vector-effect="non-scaling-stroke" stroke="#000000" stroke-width="0.100mm" 
/>
<circle cx="4.079" cy="70.470" r="2.600"
fill="#ffffff" vector-effect="non-scaling-stroke" stroke="#000000" stroke-width="0.100mm" 
/>
<circle cx="15.209" cy="109.800" r="4.500"
fill="#ffffff" vector-effect="non-scaling-stroke" stroke="#000000" stroke-width="0.100mm" 
/>
<circle cx="4.949" cy="18.201" r="3.250"
fill="#ffffff" vector-effect="non-scaling-stroke" stroke="#000000" stroke-width="0.100mm" 
/>
<circle cx="15.109" cy="18.201" r="3.250"
fill="#ffffff" vector-effect="non-scaling-stroke" stroke="#000000" stroke-width="0.100mm" 
/>
<circle cx="25.271" cy="18.201" r="3.250"
fill="#ffffff" vector-effect="non-scaling-stroke" stroke="#000000" stroke-width="0.100mm" 
/>
<circle cx="4.949" cy="30.270" r="3.250"
fill="#ffffff" vector-effect="non-scaling-stroke" stroke="#000000" stroke-width="0.100mm" 
/>
<circle cx="15.109" cy="30.270" r="3.250"
fill="#ffffff" vector-effect="non-scaling-stroke" stroke="#000000" stroke-width="0.100mm" 
/>
<circle cx="25.271" cy="30.270" r="3.250"
fill="#ffffff" vector-effect="non-scaling-stroke" stroke="#000000" stroke-width="0.100mm" 
/>
<circle cx="4.949" cy="42.490" r="3.250"
fill="#ffffff" vector-effect="non-scaling-stroke" stroke="#000000" stroke-width="0.100mm" 
/>
<circle cx="15.109" cy="42.490" r="3.250"
fill="#ffffff" vector-effect="non-scaling-stroke" stroke="#000000" stroke-width="0.100mm" 
/>
<circle cx="25.271" cy="42.490" r="3.250"
fill="#ffffff" vector-effect="non-scaling-stroke" stroke="#000000" stroke-width="0.100mm" 
/>
<circle cx="7.059" cy="83.140" r="3.750"
fill="#ffffff" vector-effect="non-scaling-stroke" stroke="#000000" stroke-width="0.100mm" 
/>
<path d="M30.000 128.500 
L0.000 128.500
L0.000 128.500
L0.000 0.000
L0.000 0.000
L30.000 0.000
L30.000 0.000
L30.000 128.500
L30.000 128.500"
fill="none" vector-effect="non-scaling-stroke" stroke="#000000" stroke-width="0.100mm" />
</g>
</svg>
