G04 DipTrace 3.2.0.1*
G04 Mwarp.GBS*
%MOIN*%
G04 #@! TF.FileFunction,Soldermask,Bot*
G04 #@! TF.Part,Single*
%AMOUTLINE1*
4,1,4,
0.035496,-0.062071,
-0.035496,-0.062071,
-0.035496,0.062071,
0.035496,0.062071,
0.035496,-0.062071,
0*%
%AMOUTLINE4*
4,1,4,
0.031559,0.063055,
0.031559,-0.063055,
-0.031559,-0.063055,
-0.031559,0.063055,
0.031559,0.063055,
0*%
%AMOUTLINE7*
4,1,4,
-0.031559,-0.063055,
-0.031559,0.063055,
0.031559,0.063055,
0.031559,-0.063055,
-0.031559,-0.063055,
0*%
%AMOUTLINE10*
4,1,4,
-0.023685,0.025654,
0.023685,0.025654,
0.023685,-0.025654,
-0.023685,-0.025654,
-0.023685,0.025654,
0*%
%AMOUTLINE13*
4,1,4,
-0.025654,-0.023685,
-0.025654,0.023685,
0.025654,0.023685,
0.025654,-0.023685,
-0.025654,-0.023685,
0*%
%AMOUTLINE16*
4,1,4,
0.025654,0.023685,
0.025654,-0.023685,
-0.025654,-0.023685,
-0.025654,0.023685,
0.025654,0.023685,
0*%
%AMOUTLINE19*
4,1,4,
0.023685,-0.025654,
-0.023685,-0.025654,
-0.023685,0.025654,
0.023685,0.025654,
0.023685,-0.025654,
0*%
%AMOUTLINE22*
4,1,4,
0.033528,-0.029591,
-0.033528,-0.029591,
-0.033528,0.029591,
0.033528,0.029591,
0.033528,-0.029591,
0*%
%AMOUTLINE25*
4,1,4,
0.033528,0.04337,
0.033528,-0.04337,
-0.033528,-0.04337,
-0.033528,0.04337,
0.033528,0.04337,
0*%
%AMOUTLINE61*
4,1,8,
-0.024325,0.010075,
-0.010075,0.024325,
0.010075,0.024325,
0.024325,0.010075,
0.024325,-0.010075,
0.010075,-0.024325,
-0.010075,-0.024325,
-0.024325,-0.010075,
-0.024325,0.010075,
0*%
%AMOUTLINE64*
4,1,8,
-0.015816,-0.038184,
-0.038184,-0.015816,
-0.038184,0.015816,
-0.015816,0.038184,
0.015816,0.038184,
0.038184,0.015816,
0.038184,-0.015816,
0.015816,-0.038184,
-0.015816,-0.038184,
0*%
%AMOUTLINE73*
4,1,4,
-0.051244,-0.04337,
-0.051244,0.04337,
0.051244,0.04337,
0.051244,-0.04337,
-0.051244,-0.04337,
0*%
%ADD52R,0.065087X0.031622*%
%ADD54R,0.065087X0.039496*%
%ADD58C,0.082*%
%ADD60O,0.078X0.108*%
%ADD62C,0.055559*%
%ADD64R,0.067055X0.059181*%
%ADD66R,0.04737X0.051307*%
%ADD72O,0.093X0.083*%
%ADD74O,0.143X0.108*%
%ADD76C,0.073*%
%ADD82OUTLINE1*%
%ADD85OUTLINE4*%
%ADD88OUTLINE7*%
%ADD91OUTLINE10*%
%ADD94OUTLINE13*%
%ADD97OUTLINE16*%
%ADD100OUTLINE19*%
%ADD103OUTLINE22*%
%ADD106OUTLINE25*%
%ADD142OUTLINE61*%
%ADD145OUTLINE64*%
%ADD154OUTLINE73*%
%FSLAX26Y26*%
G04*
G70*
G90*
G75*
G01*
G04 BotMask*
%LPD*%
D76*
X550930Y4096502D3*
Y4244140D3*
Y4391778D3*
D74*
X984001Y4514612D3*
Y3973667D3*
D72*
X587889Y975889D3*
Y1300889D3*
D76*
Y875889D3*
D72*
Y774889D3*
Y449889D3*
D76*
Y874889D3*
D82*
X1437889Y2452554D3*
Y2275389D3*
D85*
X1387152Y4588628D3*
Y4399652D3*
D82*
X1437889Y2102554D3*
Y1925389D3*
D88*
X1387889Y4023913D3*
Y4212889D3*
D91*
X569889Y3602140D3*
Y3669069D3*
D66*
X506640Y3512889D3*
Y3445960D3*
X822425Y3746675D3*
Y3813604D3*
D100*
X1097889Y3440140D3*
Y3507069D3*
D103*
X669140Y3150194D3*
Y3075390D3*
D100*
X605354Y3424675D3*
Y3491604D3*
D66*
X791889Y3282140D3*
Y3349069D3*
D64*
X1055889Y3346140D3*
Y3271337D3*
D106*
X895889Y2782140D3*
Y2679778D3*
D66*
X885889Y2930140D3*
Y2997069D3*
D94*
X1073569Y3012889D3*
X1006640D3*
D100*
X599889Y2974140D3*
Y2907211D3*
X673889Y2888140D3*
Y2821211D3*
D106*
X575389Y2594140D3*
Y2491778D3*
D100*
Y2750389D3*
Y2817318D3*
D106*
X806640Y2587890D3*
Y2485528D3*
D97*
X1081640Y2662889D3*
X1014711D3*
D100*
X1003889Y2582140D3*
Y2515211D3*
D72*
X1387889Y975640D3*
Y1300640D3*
D76*
Y875640D3*
D72*
X987889Y975889D3*
Y1300889D3*
D76*
Y875889D3*
D142*
X662889Y4625389D3*
Y4575390D3*
X612889Y4625389D3*
Y4575390D3*
X562889Y4625389D3*
Y4575390D3*
X512889Y4625389D3*
Y4575390D3*
X462889Y4625389D3*
Y4575390D3*
D145*
X1369140Y3882140D3*
X1469140D3*
X1369140Y3782140D3*
X1469140D3*
X1369140Y3682140D3*
X1469140D3*
X1369140Y3582140D3*
X1469140D3*
X1369140Y3482140D3*
X1469140D3*
D62*
X1235380Y2772880D3*
Y2694140D3*
Y2615400D3*
D76*
X1193389Y1903140D3*
X1095389Y1902864D3*
X997389Y1903140D3*
D60*
X908389Y2198140D3*
X1282389D3*
D76*
X742389Y1903140D3*
X644389Y1902864D3*
X546389Y1903140D3*
D60*
X457389Y2198140D3*
X831389D3*
D72*
X987889Y1731140D3*
Y1406140D3*
D76*
Y1831140D3*
D72*
X587889Y1731140D3*
Y1406140D3*
D76*
Y1831140D3*
D72*
X1387889Y774889D3*
Y449889D3*
D76*
Y874889D3*
D72*
X987889Y774889D3*
Y449889D3*
D76*
Y874889D3*
X1403043Y2899461D3*
X1305043Y2899186D3*
X1207043Y2899461D3*
D60*
X1118043Y3194461D3*
X1492043D3*
D72*
X1387889Y1731140D3*
Y1406140D3*
D76*
Y1831140D3*
D154*
X1044140Y2925390D3*
Y2765115D3*
D58*
X1511140Y2567640D3*
Y2823640D3*
X1333140Y2567640D3*
Y2823640D3*
D54*
X1047928Y4285478D3*
D52*
Y4244140D3*
D54*
Y4202801D3*
X927850D3*
D52*
Y4244140D3*
D54*
Y4285478D3*
M02*
