G04 DipTrace 3.2.0.1*
G04 Mwarp.GTO*
%MOIN*%
G04 #@! TF.FileFunction,Legend,Top*
G04 #@! TF.Part,Single*
%ADD10C,0.009843*%
%ADD12C,0.001*%
%ADD16C,0.008*%
%ADD20C,0.006*%
%ADD21O,0.03X0.028*%
%ADD29C,0.000013*%
%ADD30C,0.004*%
%ADD34C,0.005*%
%ADD35C,0.002756*%
%ADD78C,0.006176*%
%ADD79C,0.00772*%
%ADD80C,0.009264*%
%FSLAX26Y26*%
G04*
G70*
G90*
G75*
G01*
G04 TopSilk*
%LPD*%
X1209365Y3149420D2*
D10*
X1394413D1*
Y3257700D1*
Y3259662D2*
X1209365D1*
Y3220299D1*
Y3149420D2*
Y3188784D1*
G03X1209365Y3220299I1844J15758D01*
G01*
X631987Y2331640D2*
D29*
G02X631987Y2331640I57083J0D01*
G01*
X732372Y2294235D2*
D30*
G02X645769Y2294235I-43302J37399D01*
G01*
X732372Y2369044D2*
G03X643795Y2367066I-43476J-37384D01*
G01*
X752058Y2294235D2*
Y2268648D1*
X657576D1*
X630013Y2296213D1*
Y2367066D2*
X657576Y2394632D1*
X752058D1*
Y2369044D1*
X1055806Y2032821D2*
D29*
G02X1055806Y2032821I57083J0D01*
G01*
X1156191Y1995416D2*
D30*
G02X1069587Y1995416I-43302J37399D01*
G01*
X1156191Y2070226D2*
G03X1067613Y2068248I-43476J-37384D01*
G01*
X1175876Y1995416D2*
Y1969829D1*
X1081395D1*
X1053832Y1997394D1*
Y2068248D2*
X1081395Y2095813D1*
X1175876D1*
Y2070226D1*
X631987Y2031640D2*
D29*
G02X631987Y2031640I57083J0D01*
G01*
X732372Y1994235D2*
D30*
G02X645769Y1994235I-43302J37399D01*
G01*
X732372Y2069044D2*
G03X643795Y2067066I-43476J-37384D01*
G01*
X752058Y1994235D2*
Y1968648D1*
X657576D1*
X630013Y1996213D1*
Y2067066D2*
X657576Y2094632D1*
X752058D1*
Y2069044D1*
X1055806Y2332821D2*
D29*
G02X1055806Y2332821I57083J0D01*
G01*
X1156191Y2295416D2*
D30*
G02X1069587Y2295416I-43302J37399D01*
G01*
X1156191Y2370226D2*
G03X1067613Y2368248I-43476J-37384D01*
G01*
X1175876Y2295416D2*
Y2269829D1*
X1081395D1*
X1053832Y2297394D1*
Y2368248D2*
X1081395Y2395813D1*
X1175876D1*
Y2370226D1*
X1090489Y3064828D2*
D20*
Y3032839D1*
X1068488D1*
X978486D2*
Y3064828D1*
X1000487Y3032839D2*
X978486D1*
G36*
X768638Y4362895D2*
X802597D1*
Y4392924D1*
X768638D1*
Y4362895D1*
G37*
X656620Y4122933D2*
D16*
Y4358927D1*
X914641D1*
X914615Y4122933D1*
X753386Y3656993D2*
D29*
G02X753386Y3656993I14120J0D01*
G01*
X1045899Y3430736D2*
D34*
X767506Y3709139D1*
X489113Y3430736D1*
X767506Y3152334D1*
X1045899Y3430736D1*
X687845Y2881462D2*
D29*
G02X687845Y2881462I21004J0D01*
G01*
X670619Y2918470D2*
D20*
Y2536148D1*
X871106D1*
Y2918470D1*
X670619D1*
X687889Y4637892D2*
X675389Y4650391D1*
X650389D2*
X637889Y4637892D1*
X625389Y4650391D1*
X600389D2*
X587889Y4637892D1*
X575389Y4650391D1*
X550389D2*
X537889Y4637892D1*
X525389Y4650391D1*
X500389D2*
X487889Y4637892D1*
X687889D2*
Y4562888D1*
X675389Y4550390D1*
X650389D1*
X637889Y4562888D1*
X625389Y4550390D1*
X600389D1*
X587889Y4562888D1*
X575389Y4550390D1*
X550389D1*
X537889Y4562888D1*
X525389Y4550390D1*
X500389D1*
X487889Y4562888D1*
X637889D2*
Y4637892D1*
X587889Y4562888D2*
Y4637892D1*
X537889Y4562888D2*
Y4637892D1*
X487889Y4562888D2*
Y4637892D1*
X525389Y4650391D2*
X500389D1*
X575389D2*
X550389D1*
X625389D2*
X600389D1*
X675389D2*
X650389D1*
X487889Y4637892D2*
X475389Y4650391D1*
X450389D2*
X437889Y4637892D1*
X487889Y4562888D2*
X475389Y4550390D1*
X450389D1*
X437889Y4562888D1*
Y4637892D1*
X475389Y4650391D2*
X450389D1*
X675389Y4662890D2*
D16*
X650389D1*
G36*
X1379145Y3692140D2*
X1359165D1*
Y3672140D1*
X1379145D1*
Y3692140D1*
G37*
X1344135Y3932140D2*
D20*
X1319137Y3907140D1*
Y3857140D2*
X1344135Y3832140D1*
X1319137Y3807140D1*
Y3757140D2*
X1344135Y3732140D1*
X1319137Y3707140D1*
Y3657140D2*
X1344135Y3632140D1*
X1319137Y3607140D1*
Y3557140D2*
X1344135Y3532140D1*
Y3932140D2*
X1494142D1*
X1519140Y3907140D1*
Y3857140D1*
X1494142Y3832140D1*
X1519140Y3807140D1*
Y3757140D1*
X1494142Y3732140D1*
X1519140Y3707140D1*
Y3657140D1*
X1494142Y3632140D1*
X1519140Y3607140D1*
Y3557140D1*
X1494142Y3532140D1*
Y3832140D2*
X1344135D1*
X1494142Y3732140D2*
X1344135D1*
X1494142Y3632140D2*
X1344135D1*
X1494142Y3532140D2*
X1344135D1*
X1319137Y3607140D2*
Y3557140D1*
Y3707140D2*
Y3657140D1*
Y3807140D2*
Y3757140D1*
Y3907140D2*
Y3857140D1*
X1344135Y3532140D2*
X1319137Y3507140D1*
Y3457140D2*
X1344135Y3432140D1*
X1494142Y3532140D2*
X1519140Y3507140D1*
Y3457140D1*
X1494142Y3432140D1*
X1344135D1*
X1319137Y3507140D2*
Y3457140D1*
X1294140Y3907140D2*
D16*
Y3857140D1*
G36*
X1468522Y3346203D2*
X1484264D1*
Y3354089D1*
X1468522D1*
Y3346203D1*
G37*
X1503951Y3334392D2*
D35*
X1440964D1*
Y3365888D2*
X1503951D1*
G36*
X460522Y3040203D2*
X476264D1*
Y3048089D1*
X460522D1*
Y3040203D1*
G37*
X495951Y3028392D2*
D35*
X432964D1*
Y3059888D2*
X495951D1*
G36*
X1531952Y2089507D2*
X1539839D1*
Y2073765D1*
X1531952D1*
Y2089507D1*
G37*
X1520141Y2054078D2*
D35*
Y2117064D1*
X1551637D2*
Y2054078D1*
X936751Y1667567D2*
D10*
Y1470713D1*
X1039127Y1667567D2*
Y1470713D1*
X936751D2*
X1039127D1*
X968244Y1667567D2*
X936751D1*
X1007633D2*
X1039127D1*
X968244D2*
G03X1007633Y1667567I19694J9D01*
G01*
X930500Y1230067D2*
Y1033213D1*
X1032876Y1230067D2*
Y1033213D1*
X930500D2*
X1032876D1*
X961994Y1230067D2*
X930500D1*
X1001383D2*
X1032876D1*
X961994D2*
G03X1001383Y1230067I19694J9D01*
G01*
X939889Y692140D2*
D20*
X1041889D1*
Y506140D1*
X939889D1*
Y692140D1*
D21*
X1022889Y522140D3*
X1258663Y2373316D2*
D12*
X1316663D1*
X1258663Y2372316D2*
X1316663D1*
X1258663Y2371316D2*
X1316663D1*
X1258663Y2370316D2*
X1316663D1*
X1258663Y2369316D2*
X1316663D1*
X1258663Y2368316D2*
X1316663D1*
X1421663D2*
X1430663D1*
X1258663Y2367316D2*
X1316663D1*
X1421202D2*
X1431125D1*
X1512663D2*
X1518663D1*
X1258663Y2366316D2*
X1316663D1*
X1420915D2*
X1431412D1*
X1512663D2*
X1518663D1*
X1258663Y2365316D2*
X1316663D1*
X1420769D2*
X1431557D1*
X1512663D2*
X1518663D1*
X1283663Y2364316D2*
X1290663D1*
X1420705D2*
X1431622D1*
X1512659D2*
X1518663D1*
X1283663Y2363316D2*
X1290663D1*
X1420679D2*
X1431648D1*
X1512624D2*
X1518663D1*
X1283663Y2362316D2*
X1290663D1*
X1420673D2*
X1431654D1*
X1512497D2*
X1518663D1*
X1283663Y2361316D2*
X1290663D1*
X1420712D2*
X1431615D1*
X1512257D2*
X1518663D1*
X1283663Y2360316D2*
X1290663D1*
X1420816D2*
X1431511D1*
X1512001D2*
X1518663D1*
X1283663Y2359316D2*
X1290663D1*
X1421317D2*
X1431010D1*
X1511827D2*
X1518663D1*
X1283663Y2358316D2*
X1290663D1*
X1422414D2*
X1429912D1*
X1511734D2*
X1518663D1*
X1283663Y2357316D2*
X1290663D1*
X1423663D2*
X1428663D1*
X1511691D2*
X1518663D1*
X1283663Y2356316D2*
X1290663D1*
X1511670D2*
X1518663D1*
X1283663Y2355316D2*
X1290663D1*
X1511628D2*
X1518663D1*
X1283663Y2354316D2*
X1290663D1*
X1511498D2*
X1518663D1*
X1283663Y2353316D2*
X1290663D1*
X1511242D2*
X1518663D1*
X1283663Y2352316D2*
X1290663D1*
X1510821D2*
X1518663D1*
X1283663Y2351316D2*
X1290663D1*
X1510218D2*
X1518663D1*
X1283663Y2350316D2*
X1290663D1*
X1454663D2*
X1466663D1*
X1508146D2*
X1518663D1*
X1283663Y2349316D2*
X1290663D1*
X1323663D2*
X1331663D1*
X1366663D2*
X1375663D1*
X1402663D2*
X1411663D1*
X1421663D2*
X1429663D1*
X1451786D2*
X1481663D1*
X1505458D2*
X1536663D1*
X1283663Y2348316D2*
X1290663D1*
X1324009D2*
X1332279D1*
X1366509D2*
X1375318D1*
X1402283D2*
X1411047D1*
X1421663D2*
X1429663D1*
X1449414D2*
X1488663D1*
X1502951D2*
X1536663D1*
X1283663Y2347316D2*
X1290663D1*
X1324342D2*
X1332819D1*
X1366257D2*
X1374985D1*
X1401858D2*
X1410508D1*
X1421663D2*
X1429663D1*
X1447657D2*
X1488663D1*
X1500973D2*
X1536663D1*
X1283663Y2346316D2*
X1290663D1*
X1324659D2*
X1333258D1*
X1365963D2*
X1374668D1*
X1401424D2*
X1410069D1*
X1421663D2*
X1429663D1*
X1446434D2*
X1488663D1*
X1500170D2*
X1536663D1*
X1283663Y2345316D2*
X1290663D1*
X1325000D2*
X1333625D1*
X1365660D2*
X1374326D1*
X1401035D2*
X1409698D1*
X1421663D2*
X1429663D1*
X1445514D2*
X1488663D1*
X1499896D2*
X1536663D1*
X1283663Y2344316D2*
X1290663D1*
X1325336D2*
X1333987D1*
X1365324D2*
X1373991D1*
X1400685D2*
X1409304D1*
X1421663D2*
X1429663D1*
X1444761D2*
X1488663D1*
X1499758D2*
X1536663D1*
X1283663Y2343316D2*
X1290663D1*
X1325660D2*
X1334331D1*
X1364990D2*
X1373671D1*
X1400299D2*
X1408868D1*
X1421663D2*
X1429663D1*
X1444189D2*
X1488663D1*
X1499699D2*
X1536663D1*
X1283663Y2342316D2*
X1290663D1*
X1326034D2*
X1334658D1*
X1364671D2*
X1373328D1*
X1399866D2*
X1408429D1*
X1421663D2*
X1429663D1*
X1443754D2*
X1488663D1*
X1499675D2*
X1536663D1*
X1283663Y2341316D2*
X1290663D1*
X1326463D2*
X1335034D1*
X1364328D2*
X1372991D1*
X1399428D2*
X1408037D1*
X1421663D2*
X1429663D1*
X1443364D2*
X1452705D1*
X1510663D2*
X1518663D1*
X1283663Y2340316D2*
X1290663D1*
X1326899D2*
X1335463D1*
X1363991D2*
X1372671D1*
X1399037D2*
X1407690D1*
X1421663D2*
X1429663D1*
X1443042D2*
X1451873D1*
X1510663D2*
X1518663D1*
X1283663Y2339316D2*
X1290663D1*
X1327290D2*
X1335899D1*
X1363671D2*
X1372328D1*
X1398690D2*
X1407335D1*
X1421663D2*
X1429663D1*
X1442842D2*
X1451279D1*
X1510663D2*
X1518663D1*
X1283663Y2338316D2*
X1290663D1*
X1327637D2*
X1336290D1*
X1363328D2*
X1371991D1*
X1398335D2*
X1406994D1*
X1421663D2*
X1429663D1*
X1442739D2*
X1450941D1*
X1510663D2*
X1518663D1*
X1283663Y2337316D2*
X1290663D1*
X1327992D2*
X1336637D1*
X1362991D2*
X1371671D1*
X1397994D2*
X1406668D1*
X1421663D2*
X1429663D1*
X1442693D2*
X1450778D1*
X1510663D2*
X1518663D1*
X1283663Y2336316D2*
X1290663D1*
X1328333D2*
X1336992D1*
X1362671D2*
X1371332D1*
X1397668D2*
X1406293D1*
X1421663D2*
X1429663D1*
X1442674D2*
X1450708D1*
X1510663D2*
X1518663D1*
X1283663Y2335316D2*
X1290663D1*
X1328659D2*
X1337333D1*
X1362328D2*
X1371026D1*
X1397293D2*
X1405864D1*
X1421663D2*
X1429663D1*
X1442667D2*
X1450680D1*
X1510663D2*
X1518663D1*
X1283663Y2334316D2*
X1290663D1*
X1329034D2*
X1337659D1*
X1361991D2*
X1370798D1*
X1396864D2*
X1405428D1*
X1421663D2*
X1429663D1*
X1442665D2*
X1450669D1*
X1510663D2*
X1518663D1*
X1283663Y2333316D2*
X1290663D1*
X1329463D2*
X1338034D1*
X1361671D2*
X1370571D1*
X1396428D2*
X1405036D1*
X1421663D2*
X1429663D1*
X1442664D2*
X1450665D1*
X1510663D2*
X1518663D1*
X1283663Y2332316D2*
X1290663D1*
X1329899D2*
X1338463D1*
X1361332D2*
X1370291D1*
X1396036D2*
X1404689D1*
X1421663D2*
X1429663D1*
X1442663D2*
X1450664D1*
X1510663D2*
X1518663D1*
X1283663Y2331316D2*
X1290663D1*
X1330290D2*
X1338899D1*
X1361026D2*
X1370051D1*
X1395686D2*
X1404335D1*
X1421663D2*
X1429663D1*
X1442663D2*
X1450664D1*
X1510663D2*
X1518663D1*
X1283663Y2330316D2*
X1290663D1*
X1330637D2*
X1339290D1*
X1360798D2*
X1369919D1*
X1395300D2*
X1403994D1*
X1421663D2*
X1429663D1*
X1442663D2*
X1450663D1*
X1510663D2*
X1518663D1*
X1283663Y2329316D2*
X1290663D1*
X1330992D2*
X1339637D1*
X1360571D2*
X1370160D1*
X1394866D2*
X1403668D1*
X1421663D2*
X1429663D1*
X1442663D2*
X1450667D1*
X1510663D2*
X1518663D1*
X1283663Y2328316D2*
X1290663D1*
X1331333D2*
X1339992D1*
X1360283D2*
X1370516D1*
X1394428D2*
X1403293D1*
X1421663D2*
X1429663D1*
X1442663D2*
X1450702D1*
X1510663D2*
X1518663D1*
X1283663Y2327316D2*
X1290663D1*
X1331659D2*
X1340333D1*
X1359973D2*
X1370919D1*
X1394037D2*
X1402864D1*
X1421663D2*
X1429663D1*
X1442667D2*
X1450842D1*
X1510663D2*
X1518663D1*
X1283663Y2326316D2*
X1290663D1*
X1332034D2*
X1340659D1*
X1359664D2*
X1371298D1*
X1393690D2*
X1402428D1*
X1421663D2*
X1429663D1*
X1442702D2*
X1451095D1*
X1510663D2*
X1518663D1*
X1283663Y2325316D2*
X1290663D1*
X1332463D2*
X1341034D1*
X1359325D2*
X1371644D1*
X1393335D2*
X1402036D1*
X1421663D2*
X1429663D1*
X1442830D2*
X1451761D1*
X1510663D2*
X1518663D1*
X1283663Y2324316D2*
X1290663D1*
X1332899D2*
X1341463D1*
X1358990D2*
X1372028D1*
X1392994D2*
X1401686D1*
X1421663D2*
X1429663D1*
X1443073D2*
X1453288D1*
X1510663D2*
X1518663D1*
X1283663Y2323316D2*
X1290663D1*
X1333290D2*
X1341899D1*
X1358671D2*
X1372464D1*
X1392668D2*
X1401300D1*
X1421663D2*
X1429663D1*
X1443365D2*
X1455340D1*
X1510663D2*
X1518663D1*
X1283663Y2322316D2*
X1290663D1*
X1333637D2*
X1342290D1*
X1358328D2*
X1372933D1*
X1392293D2*
X1400866D1*
X1421663D2*
X1429663D1*
X1443671D2*
X1481663D1*
X1510663D2*
X1518663D1*
X1283663Y2321316D2*
X1290663D1*
X1333992D2*
X1342637D1*
X1357991D2*
X1373422D1*
X1391864D2*
X1400428D1*
X1421663D2*
X1429663D1*
X1444042D2*
X1483737D1*
X1510663D2*
X1518663D1*
X1283663Y2320316D2*
X1290663D1*
X1334333D2*
X1342992D1*
X1357671D2*
X1373916D1*
X1391428D2*
X1400037D1*
X1421663D2*
X1429663D1*
X1444511D2*
X1485524D1*
X1510663D2*
X1518663D1*
X1283663Y2319316D2*
X1290663D1*
X1334659D2*
X1343333D1*
X1357328D2*
X1374415D1*
X1391036D2*
X1399690D1*
X1421663D2*
X1429663D1*
X1445148D2*
X1486943D1*
X1510663D2*
X1518663D1*
X1283663Y2318316D2*
X1290663D1*
X1335034D2*
X1343655D1*
X1356991D2*
X1374913D1*
X1390686D2*
X1399335D1*
X1421663D2*
X1429663D1*
X1446076D2*
X1487972D1*
X1510663D2*
X1518663D1*
X1283663Y2317316D2*
X1290663D1*
X1335463D2*
X1343999D1*
X1356671D2*
X1364625D1*
X1366822D2*
X1375410D1*
X1390300D2*
X1398994D1*
X1421663D2*
X1429663D1*
X1447360D2*
X1488729D1*
X1510663D2*
X1518663D1*
X1283663Y2316316D2*
X1290663D1*
X1335899D2*
X1344335D1*
X1356328D2*
X1364497D1*
X1367105D2*
X1375878D1*
X1389866D2*
X1398668D1*
X1421663D2*
X1429663D1*
X1448946D2*
X1489339D1*
X1510663D2*
X1518663D1*
X1283663Y2315316D2*
X1290663D1*
X1336290D2*
X1344660D1*
X1355991D2*
X1364253D1*
X1367495D2*
X1376282D1*
X1389428D2*
X1398293D1*
X1421663D2*
X1429663D1*
X1450663D2*
X1489852D1*
X1510663D2*
X1518663D1*
X1283663Y2314316D2*
X1290663D1*
X1336637D2*
X1345034D1*
X1355671D2*
X1363962D1*
X1367945D2*
X1376638D1*
X1389037D2*
X1397864D1*
X1421663D2*
X1429663D1*
X1478266D2*
X1490273D1*
X1510663D2*
X1518663D1*
X1283663Y2313316D2*
X1290663D1*
X1336992D2*
X1345463D1*
X1355328D2*
X1363660D1*
X1368422D2*
X1377026D1*
X1388690D2*
X1397428D1*
X1421663D2*
X1429663D1*
X1480397D2*
X1490631D1*
X1510663D2*
X1518663D1*
X1283663Y2312316D2*
X1290663D1*
X1337333D2*
X1345899D1*
X1354991D2*
X1363324D1*
X1368882D2*
X1377464D1*
X1388335D2*
X1397036D1*
X1421663D2*
X1429663D1*
X1482108D2*
X1490986D1*
X1510663D2*
X1518663D1*
X1283663Y2311316D2*
X1290663D1*
X1337659D2*
X1346290D1*
X1354671D2*
X1362990D1*
X1369284D2*
X1377933D1*
X1387994D2*
X1396686D1*
X1421663D2*
X1429663D1*
X1482988D2*
X1491293D1*
X1510663D2*
X1518663D1*
X1283663Y2310316D2*
X1290663D1*
X1338034D2*
X1346637D1*
X1354328D2*
X1362671D1*
X1369639D2*
X1378421D1*
X1387668D2*
X1396300D1*
X1421663D2*
X1429663D1*
X1483339D2*
X1491488D1*
X1510663D2*
X1518663D1*
X1283663Y2309316D2*
X1290663D1*
X1338463D2*
X1346992D1*
X1353991D2*
X1362328D1*
X1370026D2*
X1378916D1*
X1387293D2*
X1395866D1*
X1421663D2*
X1429663D1*
X1483527D2*
X1491589D1*
X1510663D2*
X1518663D1*
X1283663Y2308316D2*
X1290663D1*
X1338899D2*
X1347333D1*
X1353671D2*
X1361991D1*
X1370464D2*
X1379415D1*
X1386864D2*
X1395428D1*
X1421663D2*
X1429663D1*
X1483610D2*
X1491634D1*
X1510663D2*
X1518663D1*
X1283663Y2307316D2*
X1290663D1*
X1339290D2*
X1347659D1*
X1353328D2*
X1361671D1*
X1370933D2*
X1379913D1*
X1386428D2*
X1395037D1*
X1421663D2*
X1429663D1*
X1483644D2*
X1491652D1*
X1510667D2*
X1518667D1*
X1283663Y2306316D2*
X1290663D1*
X1339637D2*
X1348034D1*
X1352991D2*
X1361328D1*
X1371421D2*
X1380414D1*
X1386036D2*
X1394690D1*
X1421663D2*
X1429663D1*
X1483657D2*
X1491659D1*
X1510702D2*
X1518702D1*
X1283663Y2305316D2*
X1290663D1*
X1339992D2*
X1348467D1*
X1352667D2*
X1360991D1*
X1371916D2*
X1380921D1*
X1385686D2*
X1394335D1*
X1421663D2*
X1429663D1*
X1483661D2*
X1491662D1*
X1510830D2*
X1518830D1*
X1283663Y2304316D2*
X1290663D1*
X1340333D2*
X1348937D1*
X1352290D2*
X1360671D1*
X1372415D2*
X1381495D1*
X1385297D2*
X1393994D1*
X1421663D2*
X1429663D1*
X1483663D2*
X1491663D1*
X1511069D2*
X1519073D1*
X1283663Y2303316D2*
X1290663D1*
X1340659D2*
X1349451D1*
X1351831D2*
X1360328D1*
X1372913D2*
X1382277D1*
X1384834D2*
X1393668D1*
X1421663D2*
X1429663D1*
X1483663D2*
X1491663D1*
X1511326D2*
X1519365D1*
X1283663Y2302316D2*
X1290663D1*
X1341034D2*
X1350029D1*
X1351281D2*
X1359991D1*
X1373410D2*
X1383377D1*
X1384281D2*
X1393293D1*
X1421663D2*
X1429663D1*
X1483659D2*
X1491663D1*
X1511504D2*
X1519671D1*
X1283663Y2301316D2*
X1290663D1*
X1341463D2*
X1359671D1*
X1373878D2*
X1392864D1*
X1421663D2*
X1429663D1*
X1483620D2*
X1491663D1*
X1511632D2*
X1520046D1*
X1283663Y2300316D2*
X1290663D1*
X1341899D2*
X1359328D1*
X1374282D2*
X1392428D1*
X1421663D2*
X1429663D1*
X1483450D2*
X1491659D1*
X1511802D2*
X1520554D1*
X1283663Y2299316D2*
X1290663D1*
X1342290D2*
X1358991D1*
X1374638D2*
X1392036D1*
X1421663D2*
X1429663D1*
X1483126D2*
X1491624D1*
X1512063D2*
X1521199D1*
X1283663Y2298316D2*
X1290663D1*
X1342637D2*
X1358671D1*
X1375026D2*
X1391689D1*
X1421663D2*
X1429663D1*
X1482207D2*
X1491497D1*
X1512361D2*
X1522694D1*
X1283663Y2297316D2*
X1290663D1*
X1342992D2*
X1358328D1*
X1375464D2*
X1391335D1*
X1421663D2*
X1429663D1*
X1480945D2*
X1491253D1*
X1512669D2*
X1524830D1*
X1283663Y2296316D2*
X1290663D1*
X1343333D2*
X1357991D1*
X1375933D2*
X1390994D1*
X1421663D2*
X1429663D1*
X1479373D2*
X1490962D1*
X1513041D2*
X1527569D1*
X1283663Y2295316D2*
X1290663D1*
X1343659D2*
X1357671D1*
X1376421D2*
X1390668D1*
X1421663D2*
X1429663D1*
X1444663D2*
X1490656D1*
X1513507D2*
X1530440D1*
X1283663Y2294316D2*
X1290663D1*
X1344034D2*
X1357328D1*
X1376916D2*
X1390293D1*
X1421663D2*
X1429663D1*
X1444663D2*
X1490285D1*
X1514105D2*
X1532787D1*
X1283663Y2293316D2*
X1290663D1*
X1344463D2*
X1356991D1*
X1377415D2*
X1389864D1*
X1421663D2*
X1429663D1*
X1444671D2*
X1489816D1*
X1514871D2*
X1534552D1*
X1283663Y2292316D2*
X1290663D1*
X1344899D2*
X1356671D1*
X1377913D2*
X1389428D1*
X1421663D2*
X1429663D1*
X1444695D2*
X1489179D1*
X1515796D2*
X1535235D1*
X1283663Y2291316D2*
X1290663D1*
X1345293D2*
X1356332D1*
X1378411D2*
X1389033D1*
X1421663D2*
X1429663D1*
X1445062D2*
X1488238D1*
X1516948D2*
X1535467D1*
X1283663Y2290316D2*
X1290663D1*
X1345668D2*
X1356028D1*
X1378884D2*
X1388659D1*
X1421663D2*
X1429663D1*
X1447370D2*
X1486837D1*
X1518484D2*
X1535584D1*
X1283663Y2289316D2*
X1290663D1*
X1346127D2*
X1355819D1*
X1379300D2*
X1388200D1*
X1421663D2*
X1429663D1*
X1451451D2*
X1484764D1*
X1520457D2*
X1535635D1*
X1283663Y2288316D2*
X1290663D1*
X1346663D2*
X1355663D1*
X1379663D2*
X1387663D1*
X1421663D2*
X1429663D1*
X1456663D2*
X1481931D1*
X1522663D2*
X1535663D1*
X1472663Y2287316D2*
X1478663D1*
X1258663Y2373316D2*
Y2372316D1*
Y2371316D1*
Y2370316D1*
Y2369316D1*
Y2368316D1*
Y2367316D1*
Y2366316D1*
Y2365316D1*
X1316663Y2373316D2*
Y2372316D1*
Y2371316D1*
Y2370316D1*
Y2369316D1*
Y2368316D1*
Y2367316D1*
Y2366316D1*
Y2365316D1*
X1421663Y2368316D2*
X1421202Y2367316D1*
X1420915Y2366316D1*
X1420769Y2365316D1*
X1420705Y2364316D1*
X1420679Y2363316D1*
X1420673Y2362316D1*
X1420712Y2361316D1*
X1420816Y2360316D1*
X1421317Y2359316D1*
X1422414Y2358316D1*
X1423663Y2357316D1*
X1430663Y2368316D2*
X1431125Y2367316D1*
X1431412Y2366316D1*
X1431557Y2365316D1*
X1431622Y2364316D1*
X1431648Y2363316D1*
X1431654Y2362316D1*
X1431615Y2361316D1*
X1431511Y2360316D1*
X1431010Y2359316D1*
X1429912Y2358316D1*
X1428663Y2357316D1*
X1512663Y2367316D2*
Y2366316D1*
Y2365316D1*
X1512659Y2364316D1*
X1512624Y2363316D1*
X1512497Y2362316D1*
X1512257Y2361316D1*
X1512001Y2360316D1*
X1511827Y2359316D1*
X1511734Y2358316D1*
X1511691Y2357316D1*
X1511670Y2356316D1*
X1511628Y2355316D1*
X1511498Y2354316D1*
X1511242Y2353316D1*
X1510821Y2352316D1*
X1510218Y2351316D1*
X1508146Y2350316D1*
X1505458Y2349316D1*
X1502951Y2348316D1*
X1500973Y2347316D1*
X1500170Y2346316D1*
X1499896Y2345316D1*
X1499758Y2344316D1*
X1499699Y2343316D1*
X1499675Y2342316D1*
X1499663Y2341316D1*
X1510663D1*
Y2340316D1*
Y2339316D1*
Y2338316D1*
Y2337316D1*
Y2336316D1*
Y2335316D1*
Y2334316D1*
Y2333316D1*
Y2332316D1*
Y2331316D1*
Y2330316D1*
Y2329316D1*
Y2328316D1*
Y2327316D1*
Y2326316D1*
Y2325316D1*
Y2324316D1*
Y2323316D1*
Y2322316D1*
Y2321316D1*
Y2320316D1*
Y2319316D1*
Y2318316D1*
Y2317316D1*
Y2316316D1*
Y2315316D1*
Y2314316D1*
Y2313316D1*
Y2312316D1*
Y2311316D1*
Y2310316D1*
Y2309316D1*
Y2308316D1*
X1510667Y2307316D1*
X1510702Y2306316D1*
X1510830Y2305316D1*
X1511069Y2304316D1*
X1511326Y2303316D1*
X1511504Y2302316D1*
X1511632Y2301316D1*
X1511802Y2300316D1*
X1512063Y2299316D1*
X1512361Y2298316D1*
X1512669Y2297316D1*
X1513041Y2296316D1*
X1513507Y2295316D1*
X1514105Y2294316D1*
X1514871Y2293316D1*
X1515796Y2292316D1*
X1516948Y2291316D1*
X1518484Y2290316D1*
X1520457Y2289316D1*
X1522663Y2288316D1*
X1518663Y2367316D2*
Y2366316D1*
Y2365316D1*
Y2364316D1*
Y2363316D1*
Y2362316D1*
Y2361316D1*
Y2360316D1*
Y2359316D1*
Y2358316D1*
Y2357316D1*
Y2356316D1*
Y2355316D1*
Y2354316D1*
Y2353316D1*
Y2352316D1*
Y2351316D1*
Y2350316D1*
Y2349316D1*
X1283663Y2365316D2*
Y2364316D1*
Y2363316D1*
Y2362316D1*
Y2361316D1*
Y2360316D1*
Y2359316D1*
Y2358316D1*
Y2357316D1*
Y2356316D1*
Y2355316D1*
Y2354316D1*
Y2353316D1*
Y2352316D1*
Y2351316D1*
Y2350316D1*
Y2349316D1*
Y2348316D1*
Y2347316D1*
Y2346316D1*
Y2345316D1*
Y2344316D1*
Y2343316D1*
Y2342316D1*
Y2341316D1*
Y2340316D1*
Y2339316D1*
Y2338316D1*
Y2337316D1*
Y2336316D1*
Y2335316D1*
Y2334316D1*
Y2333316D1*
Y2332316D1*
Y2331316D1*
Y2330316D1*
Y2329316D1*
Y2328316D1*
Y2327316D1*
Y2326316D1*
Y2325316D1*
Y2324316D1*
Y2323316D1*
Y2322316D1*
Y2321316D1*
Y2320316D1*
Y2319316D1*
Y2318316D1*
Y2317316D1*
Y2316316D1*
Y2315316D1*
Y2314316D1*
Y2313316D1*
Y2312316D1*
Y2311316D1*
Y2310316D1*
Y2309316D1*
Y2308316D1*
Y2307316D1*
Y2306316D1*
Y2305316D1*
Y2304316D1*
Y2303316D1*
Y2302316D1*
Y2301316D1*
Y2300316D1*
Y2299316D1*
Y2298316D1*
Y2297316D1*
Y2296316D1*
Y2295316D1*
Y2294316D1*
Y2293316D1*
Y2292316D1*
Y2291316D1*
Y2290316D1*
Y2289316D1*
Y2288316D1*
X1290663Y2365316D2*
Y2364316D1*
Y2363316D1*
Y2362316D1*
Y2361316D1*
Y2360316D1*
Y2359316D1*
Y2358316D1*
Y2357316D1*
Y2356316D1*
Y2355316D1*
Y2354316D1*
Y2353316D1*
Y2352316D1*
Y2351316D1*
Y2350316D1*
Y2349316D1*
Y2348316D1*
Y2347316D1*
Y2346316D1*
Y2345316D1*
Y2344316D1*
Y2343316D1*
Y2342316D1*
Y2341316D1*
Y2340316D1*
Y2339316D1*
Y2338316D1*
Y2337316D1*
Y2336316D1*
Y2335316D1*
Y2334316D1*
Y2333316D1*
Y2332316D1*
Y2331316D1*
Y2330316D1*
Y2329316D1*
Y2328316D1*
Y2327316D1*
Y2326316D1*
Y2325316D1*
Y2324316D1*
Y2323316D1*
Y2322316D1*
Y2321316D1*
Y2320316D1*
Y2319316D1*
Y2318316D1*
Y2317316D1*
Y2316316D1*
Y2315316D1*
Y2314316D1*
Y2313316D1*
Y2312316D1*
Y2311316D1*
Y2310316D1*
Y2309316D1*
Y2308316D1*
Y2307316D1*
Y2306316D1*
Y2305316D1*
Y2304316D1*
Y2303316D1*
Y2302316D1*
Y2301316D1*
Y2300316D1*
Y2299316D1*
Y2298316D1*
Y2297316D1*
Y2296316D1*
Y2295316D1*
Y2294316D1*
Y2293316D1*
Y2292316D1*
Y2291316D1*
Y2290316D1*
Y2289316D1*
Y2288316D1*
X1454663Y2350316D2*
X1451786Y2349316D1*
X1449414Y2348316D1*
X1447657Y2347316D1*
X1446434Y2346316D1*
X1445514Y2345316D1*
X1444761Y2344316D1*
X1444189Y2343316D1*
X1443754Y2342316D1*
X1443364Y2341316D1*
X1443042Y2340316D1*
X1442842Y2339316D1*
X1442739Y2338316D1*
X1442693Y2337316D1*
X1442674Y2336316D1*
X1442667Y2335316D1*
X1442665Y2334316D1*
X1442664Y2333316D1*
X1442663Y2332316D1*
Y2331316D1*
Y2330316D1*
Y2329316D1*
Y2328316D1*
X1442667Y2327316D1*
X1442702Y2326316D1*
X1442830Y2325316D1*
X1443073Y2324316D1*
X1443365Y2323316D1*
X1443671Y2322316D1*
X1444042Y2321316D1*
X1444511Y2320316D1*
X1445148Y2319316D1*
X1446076Y2318316D1*
X1447360Y2317316D1*
X1448946Y2316316D1*
X1450663Y2315316D1*
X1466663Y2350316D2*
Y2349316D1*
X1323663D2*
X1324009Y2348316D1*
X1324342Y2347316D1*
X1324659Y2346316D1*
X1325000Y2345316D1*
X1325336Y2344316D1*
X1325660Y2343316D1*
X1326034Y2342316D1*
X1326463Y2341316D1*
X1326899Y2340316D1*
X1327290Y2339316D1*
X1327637Y2338316D1*
X1327992Y2337316D1*
X1328333Y2336316D1*
X1328659Y2335316D1*
X1329034Y2334316D1*
X1329463Y2333316D1*
X1329899Y2332316D1*
X1330290Y2331316D1*
X1330637Y2330316D1*
X1330992Y2329316D1*
X1331333Y2328316D1*
X1331659Y2327316D1*
X1332034Y2326316D1*
X1332463Y2325316D1*
X1332899Y2324316D1*
X1333290Y2323316D1*
X1333637Y2322316D1*
X1333992Y2321316D1*
X1334333Y2320316D1*
X1334659Y2319316D1*
X1335034Y2318316D1*
X1335463Y2317316D1*
X1335899Y2316316D1*
X1336290Y2315316D1*
X1336637Y2314316D1*
X1336992Y2313316D1*
X1337333Y2312316D1*
X1337659Y2311316D1*
X1338034Y2310316D1*
X1338463Y2309316D1*
X1338899Y2308316D1*
X1339290Y2307316D1*
X1339637Y2306316D1*
X1339992Y2305316D1*
X1340333Y2304316D1*
X1340659Y2303316D1*
X1341034Y2302316D1*
X1341463Y2301316D1*
X1341899Y2300316D1*
X1342290Y2299316D1*
X1342637Y2298316D1*
X1342992Y2297316D1*
X1343333Y2296316D1*
X1343659Y2295316D1*
X1344034Y2294316D1*
X1344463Y2293316D1*
X1344899Y2292316D1*
X1345293Y2291316D1*
X1345668Y2290316D1*
X1346127Y2289316D1*
X1346663Y2288316D1*
X1331663Y2349316D2*
X1332279Y2348316D1*
X1332819Y2347316D1*
X1333258Y2346316D1*
X1333625Y2345316D1*
X1333987Y2344316D1*
X1334331Y2343316D1*
X1334658Y2342316D1*
X1335034Y2341316D1*
X1335463Y2340316D1*
X1335899Y2339316D1*
X1336290Y2338316D1*
X1336637Y2337316D1*
X1336992Y2336316D1*
X1337333Y2335316D1*
X1337659Y2334316D1*
X1338034Y2333316D1*
X1338463Y2332316D1*
X1338899Y2331316D1*
X1339290Y2330316D1*
X1339637Y2329316D1*
X1339992Y2328316D1*
X1340333Y2327316D1*
X1340659Y2326316D1*
X1341034Y2325316D1*
X1341463Y2324316D1*
X1341899Y2323316D1*
X1342290Y2322316D1*
X1342637Y2321316D1*
X1342992Y2320316D1*
X1343333Y2319316D1*
X1343655Y2318316D1*
X1343999Y2317316D1*
X1344335Y2316316D1*
X1344660Y2315316D1*
X1345034Y2314316D1*
X1345463Y2313316D1*
X1345899Y2312316D1*
X1346290Y2311316D1*
X1346637Y2310316D1*
X1346992Y2309316D1*
X1347333Y2308316D1*
X1347659Y2307316D1*
X1348034Y2306316D1*
X1348467Y2305316D1*
X1348937Y2304316D1*
X1349451Y2303316D1*
X1350029Y2302316D1*
X1350663Y2301316D1*
X1366663Y2349316D2*
X1366509Y2348316D1*
X1366257Y2347316D1*
X1365963Y2346316D1*
X1365660Y2345316D1*
X1365324Y2344316D1*
X1364990Y2343316D1*
X1364671Y2342316D1*
X1364328Y2341316D1*
X1363991Y2340316D1*
X1363671Y2339316D1*
X1363328Y2338316D1*
X1362991Y2337316D1*
X1362671Y2336316D1*
X1362328Y2335316D1*
X1361991Y2334316D1*
X1361671Y2333316D1*
X1361332Y2332316D1*
X1361026Y2331316D1*
X1360798Y2330316D1*
X1360571Y2329316D1*
X1360283Y2328316D1*
X1359973Y2327316D1*
X1359664Y2326316D1*
X1359325Y2325316D1*
X1358990Y2324316D1*
X1358671Y2323316D1*
X1358328Y2322316D1*
X1357991Y2321316D1*
X1357671Y2320316D1*
X1357328Y2319316D1*
X1356991Y2318316D1*
X1356671Y2317316D1*
X1356328Y2316316D1*
X1355991Y2315316D1*
X1355671Y2314316D1*
X1355328Y2313316D1*
X1354991Y2312316D1*
X1354671Y2311316D1*
X1354328Y2310316D1*
X1353991Y2309316D1*
X1353671Y2308316D1*
X1353328Y2307316D1*
X1352991Y2306316D1*
X1352667Y2305316D1*
X1352290Y2304316D1*
X1351831Y2303316D1*
X1351281Y2302316D1*
X1350663Y2301316D1*
X1375663Y2349316D2*
X1375318Y2348316D1*
X1374985Y2347316D1*
X1374668Y2346316D1*
X1374326Y2345316D1*
X1373991Y2344316D1*
X1373671Y2343316D1*
X1373328Y2342316D1*
X1372991Y2341316D1*
X1372671Y2340316D1*
X1372328Y2339316D1*
X1371991Y2338316D1*
X1371671Y2337316D1*
X1371332Y2336316D1*
X1371026Y2335316D1*
X1370798Y2334316D1*
X1370571Y2333316D1*
X1370291Y2332316D1*
X1370051Y2331316D1*
X1369919Y2330316D1*
X1370160Y2329316D1*
X1370516Y2328316D1*
X1370919Y2327316D1*
X1371298Y2326316D1*
X1371644Y2325316D1*
X1372028Y2324316D1*
X1372464Y2323316D1*
X1372933Y2322316D1*
X1373422Y2321316D1*
X1373916Y2320316D1*
X1374415Y2319316D1*
X1374913Y2318316D1*
X1375410Y2317316D1*
X1375878Y2316316D1*
X1376282Y2315316D1*
X1376638Y2314316D1*
X1377026Y2313316D1*
X1377464Y2312316D1*
X1377933Y2311316D1*
X1378421Y2310316D1*
X1378916Y2309316D1*
X1379415Y2308316D1*
X1379913Y2307316D1*
X1380414Y2306316D1*
X1380921Y2305316D1*
X1381495Y2304316D1*
X1382277Y2303316D1*
X1383377Y2302316D1*
X1384663Y2301316D1*
X1402663Y2349316D2*
X1402283Y2348316D1*
X1401858Y2347316D1*
X1401424Y2346316D1*
X1401035Y2345316D1*
X1400685Y2344316D1*
X1400299Y2343316D1*
X1399866Y2342316D1*
X1399428Y2341316D1*
X1399037Y2340316D1*
X1398690Y2339316D1*
X1398335Y2338316D1*
X1397994Y2337316D1*
X1397668Y2336316D1*
X1397293Y2335316D1*
X1396864Y2334316D1*
X1396428Y2333316D1*
X1396036Y2332316D1*
X1395686Y2331316D1*
X1395300Y2330316D1*
X1394866Y2329316D1*
X1394428Y2328316D1*
X1394037Y2327316D1*
X1393690Y2326316D1*
X1393335Y2325316D1*
X1392994Y2324316D1*
X1392668Y2323316D1*
X1392293Y2322316D1*
X1391864Y2321316D1*
X1391428Y2320316D1*
X1391036Y2319316D1*
X1390686Y2318316D1*
X1390300Y2317316D1*
X1389866Y2316316D1*
X1389428Y2315316D1*
X1389037Y2314316D1*
X1388690Y2313316D1*
X1388335Y2312316D1*
X1387994Y2311316D1*
X1387668Y2310316D1*
X1387293Y2309316D1*
X1386864Y2308316D1*
X1386428Y2307316D1*
X1386036Y2306316D1*
X1385686Y2305316D1*
X1385297Y2304316D1*
X1384834Y2303316D1*
X1384281Y2302316D1*
X1383663Y2301316D1*
X1411663Y2349316D2*
X1411047Y2348316D1*
X1410508Y2347316D1*
X1410069Y2346316D1*
X1409698Y2345316D1*
X1409304Y2344316D1*
X1408868Y2343316D1*
X1408429Y2342316D1*
X1408037Y2341316D1*
X1407690Y2340316D1*
X1407335Y2339316D1*
X1406994Y2338316D1*
X1406668Y2337316D1*
X1406293Y2336316D1*
X1405864Y2335316D1*
X1405428Y2334316D1*
X1405036Y2333316D1*
X1404689Y2332316D1*
X1404335Y2331316D1*
X1403994Y2330316D1*
X1403668Y2329316D1*
X1403293Y2328316D1*
X1402864Y2327316D1*
X1402428Y2326316D1*
X1402036Y2325316D1*
X1401686Y2324316D1*
X1401300Y2323316D1*
X1400866Y2322316D1*
X1400428Y2321316D1*
X1400037Y2320316D1*
X1399690Y2319316D1*
X1399335Y2318316D1*
X1398994Y2317316D1*
X1398668Y2316316D1*
X1398293Y2315316D1*
X1397864Y2314316D1*
X1397428Y2313316D1*
X1397036Y2312316D1*
X1396686Y2311316D1*
X1396300Y2310316D1*
X1395866Y2309316D1*
X1395428Y2308316D1*
X1395037Y2307316D1*
X1394690Y2306316D1*
X1394335Y2305316D1*
X1393994Y2304316D1*
X1393668Y2303316D1*
X1393293Y2302316D1*
X1392864Y2301316D1*
X1392428Y2300316D1*
X1392036Y2299316D1*
X1391689Y2298316D1*
X1391335Y2297316D1*
X1390994Y2296316D1*
X1390668Y2295316D1*
X1390293Y2294316D1*
X1389864Y2293316D1*
X1389428Y2292316D1*
X1389033Y2291316D1*
X1388659Y2290316D1*
X1388200Y2289316D1*
X1387663Y2288316D1*
X1421663Y2349316D2*
Y2348316D1*
Y2347316D1*
Y2346316D1*
Y2345316D1*
Y2344316D1*
Y2343316D1*
Y2342316D1*
Y2341316D1*
Y2340316D1*
Y2339316D1*
Y2338316D1*
Y2337316D1*
Y2336316D1*
Y2335316D1*
Y2334316D1*
Y2333316D1*
Y2332316D1*
Y2331316D1*
Y2330316D1*
Y2329316D1*
Y2328316D1*
Y2327316D1*
Y2326316D1*
Y2325316D1*
Y2324316D1*
Y2323316D1*
Y2322316D1*
Y2321316D1*
Y2320316D1*
Y2319316D1*
Y2318316D1*
Y2317316D1*
Y2316316D1*
Y2315316D1*
Y2314316D1*
Y2313316D1*
Y2312316D1*
Y2311316D1*
Y2310316D1*
Y2309316D1*
Y2308316D1*
Y2307316D1*
Y2306316D1*
Y2305316D1*
Y2304316D1*
Y2303316D1*
Y2302316D1*
Y2301316D1*
Y2300316D1*
Y2299316D1*
Y2298316D1*
Y2297316D1*
Y2296316D1*
Y2295316D1*
Y2294316D1*
Y2293316D1*
Y2292316D1*
Y2291316D1*
Y2290316D1*
Y2289316D1*
Y2288316D1*
X1429663Y2349316D2*
Y2348316D1*
Y2347316D1*
Y2346316D1*
Y2345316D1*
Y2344316D1*
Y2343316D1*
Y2342316D1*
Y2341316D1*
Y2340316D1*
Y2339316D1*
Y2338316D1*
Y2337316D1*
Y2336316D1*
Y2335316D1*
Y2334316D1*
Y2333316D1*
Y2332316D1*
Y2331316D1*
Y2330316D1*
Y2329316D1*
Y2328316D1*
Y2327316D1*
Y2326316D1*
Y2325316D1*
Y2324316D1*
Y2323316D1*
Y2322316D1*
Y2321316D1*
Y2320316D1*
Y2319316D1*
Y2318316D1*
Y2317316D1*
Y2316316D1*
Y2315316D1*
Y2314316D1*
Y2313316D1*
Y2312316D1*
Y2311316D1*
Y2310316D1*
Y2309316D1*
Y2308316D1*
Y2307316D1*
Y2306316D1*
Y2305316D1*
Y2304316D1*
Y2303316D1*
Y2302316D1*
Y2301316D1*
Y2300316D1*
Y2299316D1*
Y2298316D1*
Y2297316D1*
Y2296316D1*
Y2295316D1*
Y2294316D1*
Y2293316D1*
Y2292316D1*
Y2291316D1*
Y2290316D1*
Y2289316D1*
Y2288316D1*
X1481663Y2349316D2*
X1488663Y2348316D1*
Y2347316D1*
Y2346316D1*
Y2345316D1*
Y2344316D1*
Y2343316D1*
Y2342316D1*
X1536663Y2349316D2*
Y2348316D1*
Y2347316D1*
Y2346316D1*
Y2345316D1*
Y2344316D1*
Y2343316D1*
Y2342316D1*
X1453663D2*
X1452705Y2341316D1*
X1451873Y2340316D1*
X1451279Y2339316D1*
X1450941Y2338316D1*
X1450778Y2337316D1*
X1450708Y2336316D1*
X1450680Y2335316D1*
X1450669Y2334316D1*
X1450665Y2333316D1*
X1450664Y2332316D1*
Y2331316D1*
X1450663Y2330316D1*
X1450667Y2329316D1*
X1450702Y2328316D1*
X1450842Y2327316D1*
X1451095Y2326316D1*
X1451761Y2325316D1*
X1453288Y2324316D1*
X1455340Y2323316D1*
X1457663Y2322316D1*
X1518663Y2342316D2*
Y2341316D1*
Y2340316D1*
Y2339316D1*
Y2338316D1*
Y2337316D1*
Y2336316D1*
Y2335316D1*
Y2334316D1*
Y2333316D1*
Y2332316D1*
Y2331316D1*
Y2330316D1*
Y2329316D1*
Y2328316D1*
Y2327316D1*
Y2326316D1*
Y2325316D1*
Y2324316D1*
Y2323316D1*
Y2322316D1*
Y2321316D1*
Y2320316D1*
Y2319316D1*
Y2318316D1*
Y2317316D1*
Y2316316D1*
Y2315316D1*
Y2314316D1*
Y2313316D1*
Y2312316D1*
Y2311316D1*
Y2310316D1*
Y2309316D1*
Y2308316D1*
X1518667Y2307316D1*
X1518702Y2306316D1*
X1518830Y2305316D1*
X1519073Y2304316D1*
X1519365Y2303316D1*
X1519671Y2302316D1*
X1520046Y2301316D1*
X1520554Y2300316D1*
X1521199Y2299316D1*
X1522694Y2298316D1*
X1524830Y2297316D1*
X1527569Y2296316D1*
X1530440Y2295316D1*
X1532787Y2294316D1*
X1534552Y2293316D1*
X1535235Y2292316D1*
X1535467Y2291316D1*
X1535584Y2290316D1*
X1535635Y2289316D1*
X1535663Y2288316D1*
X1481663Y2322316D2*
X1483737Y2321316D1*
X1485524Y2320316D1*
X1486943Y2319316D1*
X1487972Y2318316D1*
X1488729Y2317316D1*
X1489339Y2316316D1*
X1489852Y2315316D1*
X1490273Y2314316D1*
X1490631Y2313316D1*
X1490986Y2312316D1*
X1491293Y2311316D1*
X1491488Y2310316D1*
X1491589Y2309316D1*
X1491634Y2308316D1*
X1491652Y2307316D1*
X1491659Y2306316D1*
X1491662Y2305316D1*
X1491663Y2304316D1*
Y2303316D1*
Y2302316D1*
Y2301316D1*
X1491659Y2300316D1*
X1491624Y2299316D1*
X1491497Y2298316D1*
X1491253Y2297316D1*
X1490962Y2296316D1*
X1490656Y2295316D1*
X1490285Y2294316D1*
X1489816Y2293316D1*
X1489179Y2292316D1*
X1488238Y2291316D1*
X1486837Y2290316D1*
X1484764Y2289316D1*
X1481931Y2288316D1*
X1478663Y2287316D1*
X1364663Y2318316D2*
X1364625Y2317316D1*
X1364497Y2316316D1*
X1364253Y2315316D1*
X1363962Y2314316D1*
X1363660Y2313316D1*
X1363324Y2312316D1*
X1362990Y2311316D1*
X1362671Y2310316D1*
X1362328Y2309316D1*
X1361991Y2308316D1*
X1361671Y2307316D1*
X1361328Y2306316D1*
X1360991Y2305316D1*
X1360671Y2304316D1*
X1360328Y2303316D1*
X1359991Y2302316D1*
X1359671Y2301316D1*
X1359328Y2300316D1*
X1358991Y2299316D1*
X1358671Y2298316D1*
X1358328Y2297316D1*
X1357991Y2296316D1*
X1357671Y2295316D1*
X1357328Y2294316D1*
X1356991Y2293316D1*
X1356671Y2292316D1*
X1356332Y2291316D1*
X1356028Y2290316D1*
X1355819Y2289316D1*
X1355663Y2288316D1*
X1366663Y2318316D2*
X1366822Y2317316D1*
X1367105Y2316316D1*
X1367495Y2315316D1*
X1367945Y2314316D1*
X1368422Y2313316D1*
X1368882Y2312316D1*
X1369284Y2311316D1*
X1369639Y2310316D1*
X1370026Y2309316D1*
X1370464Y2308316D1*
X1370933Y2307316D1*
X1371421Y2306316D1*
X1371916Y2305316D1*
X1372415Y2304316D1*
X1372913Y2303316D1*
X1373410Y2302316D1*
X1373878Y2301316D1*
X1374282Y2300316D1*
X1374638Y2299316D1*
X1375026Y2298316D1*
X1375464Y2297316D1*
X1375933Y2296316D1*
X1376421Y2295316D1*
X1376916Y2294316D1*
X1377415Y2293316D1*
X1377913Y2292316D1*
X1378411Y2291316D1*
X1378884Y2290316D1*
X1379300Y2289316D1*
X1379663Y2288316D1*
X1475663Y2315316D2*
X1478266Y2314316D1*
X1480397Y2313316D1*
X1482108Y2312316D1*
X1482988Y2311316D1*
X1483339Y2310316D1*
X1483527Y2309316D1*
X1483610Y2308316D1*
X1483644Y2307316D1*
X1483657Y2306316D1*
X1483661Y2305316D1*
X1483663Y2304316D1*
Y2303316D1*
X1483659Y2302316D1*
X1483620Y2301316D1*
X1483450Y2300316D1*
X1483126Y2299316D1*
X1482207Y2298316D1*
X1480945Y2297316D1*
X1479373Y2296316D1*
X1477663Y2295316D1*
X1444663D2*
Y2294316D1*
X1444671Y2293316D1*
X1444695Y2292316D1*
X1445062Y2291316D1*
X1447370Y2290316D1*
X1451451Y2289316D1*
X1456663Y2288316D1*
X1471663D2*
X1472663Y2287316D1*
X1257946Y3418828D2*
D78*
Y3378636D1*
X1275190D1*
X1280938Y3380582D1*
X1282839Y3382483D1*
X1284740Y3386286D1*
Y3392034D1*
X1282839Y3395881D1*
X1280938Y3397782D1*
X1275190Y3399683D1*
X1280938Y3401629D1*
X1282839Y3403530D1*
X1284740Y3407332D1*
Y3411179D1*
X1282839Y3414982D1*
X1280938Y3416927D1*
X1275190Y3418828D1*
X1257946D1*
Y3399683D2*
X1275190D1*
X1297092D2*
X1314292D1*
X1320040Y3401629D1*
X1321985Y3403530D1*
X1323886Y3407332D1*
Y3411179D1*
X1321985Y3414982D1*
X1320040Y3416927D1*
X1314292Y3418828D1*
X1297092D1*
Y3378636D1*
X1310489Y3399683D2*
X1323886Y3378636D1*
X1336238Y3411135D2*
X1340085Y3413080D1*
X1345833Y3418784D1*
Y3378636D1*
X1423176Y4059450D2*
X1419374Y4057549D1*
X1415527Y4053702D1*
X1413626Y4049900D1*
Y4042250D1*
X1415527Y4038404D1*
X1419374Y4034601D1*
X1423176Y4032656D1*
X1428924Y4030754D1*
X1438519D1*
X1444223Y4032656D1*
X1448070Y4034601D1*
X1451872Y4038404D1*
X1453818Y4042250D1*
Y4049900D1*
X1451872Y4053702D1*
X1448070Y4057549D1*
X1444223Y4059450D1*
X1413670Y4094749D2*
Y4075648D1*
X1430870Y4073747D1*
X1428968Y4075648D1*
X1427023Y4081396D1*
Y4087100D1*
X1428968Y4092848D1*
X1432771Y4096695D1*
X1438519Y4098596D1*
X1442322D1*
X1448070Y4096695D1*
X1451916Y4092848D1*
X1453818Y4087100D1*
Y4081396D1*
X1451916Y4075648D1*
X1449971Y4073747D1*
X1446168Y4071802D1*
X846172Y944853D2*
X844271Y948655D1*
X840424Y952502D1*
X836622Y954403D1*
X828972D1*
X825126Y952502D1*
X821323Y948655D1*
X819378Y944853D1*
X817476Y939105D1*
Y929510D1*
X819378Y923806D1*
X821323Y919959D1*
X825126Y916157D1*
X828972Y914211D1*
X836622D1*
X840424Y916157D1*
X844271Y919959D1*
X846172Y923806D1*
X881471Y948655D2*
X879570Y952458D1*
X873822Y954359D1*
X870020D1*
X864272Y952458D1*
X860425Y946710D1*
X858524Y937159D1*
Y927609D1*
X860425Y919959D1*
X864272Y916112D1*
X870020Y914211D1*
X871921D1*
X877625Y916112D1*
X881471Y919959D1*
X883373Y925707D1*
Y927609D1*
X881471Y933357D1*
X877625Y937159D1*
X871921Y939060D1*
X870020D1*
X864272Y937159D1*
X860425Y933357D1*
X858524Y927609D1*
X1289199Y1773602D2*
X1287298Y1777405D1*
X1283451Y1781251D1*
X1279649Y1783153D1*
X1272000D1*
X1268153Y1781251D1*
X1264350Y1777405D1*
X1262405Y1773602D1*
X1260503Y1767854D1*
Y1758259D1*
X1262405Y1752555D1*
X1264350Y1748709D1*
X1268153Y1744906D1*
X1272000Y1742961D1*
X1279649D1*
X1283451Y1744906D1*
X1287298Y1748709D1*
X1289199Y1752555D1*
X1309200Y1742961D2*
X1328346Y1783108D1*
X1301551D1*
X709901Y1675853D2*
X708000Y1679655D1*
X704153Y1683502D1*
X700351Y1685403D1*
X692701D1*
X688855Y1683502D1*
X685052Y1679655D1*
X683107Y1675853D1*
X681205Y1670105D1*
Y1660510D1*
X683107Y1654806D1*
X685052Y1650959D1*
X688855Y1647157D1*
X692701Y1645211D1*
X700351D1*
X704153Y1647157D1*
X708000Y1650959D1*
X709901Y1654806D1*
X731803Y1685359D2*
X726099Y1683458D1*
X724154Y1679655D1*
Y1675808D1*
X726099Y1672006D1*
X729902Y1670060D1*
X737551Y1668159D1*
X743299Y1666258D1*
X747102Y1662411D1*
X749003Y1658609D1*
Y1652861D1*
X747102Y1649058D1*
X745201Y1647112D1*
X739453Y1645211D1*
X731803D1*
X726099Y1647112D1*
X724154Y1649058D1*
X722253Y1652861D1*
Y1658609D1*
X724154Y1662411D1*
X728001Y1666258D1*
X733705Y1668159D1*
X741354Y1670060D1*
X745201Y1672006D1*
X747102Y1675808D1*
Y1679655D1*
X745201Y1683458D1*
X739453Y1685359D1*
X731803D1*
X455927Y4098650D2*
X452124Y4096749D1*
X448278Y4092902D1*
X446376Y4089100D1*
Y4081450D1*
X448278Y4077604D1*
X452124Y4073801D1*
X455927Y4071856D1*
X461675Y4069954D1*
X471270D1*
X476973Y4071856D1*
X480820Y4073801D1*
X484623Y4077604D1*
X486568Y4081450D1*
Y4089100D1*
X484623Y4092902D1*
X480820Y4096749D1*
X476974Y4098650D1*
X459774Y4135895D2*
X465522Y4133949D1*
X469368Y4130147D1*
X471270Y4124399D1*
Y4122498D1*
X469368Y4116750D1*
X465522Y4112947D1*
X459774Y4111002D1*
X457872D1*
X452124Y4112947D1*
X448322Y4116750D1*
X446421Y4122498D1*
Y4124399D1*
X448322Y4130147D1*
X452124Y4133949D1*
X459774Y4135895D1*
X469368D1*
X478919Y4133949D1*
X484667Y4130147D1*
X486568Y4124399D1*
Y4120596D1*
X484667Y4114848D1*
X480820Y4112947D1*
X1080726Y1786102D2*
X1078825Y1789905D1*
X1074978Y1793751D1*
X1071176Y1795653D1*
X1063526D1*
X1059680Y1793751D1*
X1055877Y1789905D1*
X1053932Y1786102D1*
X1052030Y1780354D1*
Y1770759D1*
X1053932Y1765055D1*
X1055877Y1761209D1*
X1059680Y1757406D1*
X1063526Y1755461D1*
X1071176D1*
X1074978Y1757406D1*
X1078825Y1761209D1*
X1080726Y1765055D1*
X1093078Y1787959D2*
X1096925Y1789905D1*
X1102673Y1795608D1*
Y1755461D1*
X1126520Y1795608D2*
X1120772Y1793707D1*
X1116925Y1787959D1*
X1115024Y1778408D1*
Y1772660D1*
X1116925Y1763110D1*
X1120772Y1757362D1*
X1126520Y1755461D1*
X1130323D1*
X1136071Y1757362D1*
X1139873Y1763110D1*
X1141819Y1772660D1*
Y1778408D1*
X1139873Y1787959D1*
X1136071Y1793707D1*
X1130323Y1795608D1*
X1126520D1*
X1139873Y1787959D2*
X1116925Y1763110D1*
X702977Y1258853D2*
X701076Y1262655D1*
X697229Y1266502D1*
X693426Y1268403D1*
X685777D1*
X681930Y1266502D1*
X678128Y1262655D1*
X676182Y1258853D1*
X674281Y1253105D1*
Y1243510D1*
X676182Y1237806D1*
X678128Y1233959D1*
X681930Y1230157D1*
X685777Y1228211D1*
X693426D1*
X697229Y1230157D1*
X701076Y1233959D1*
X702977Y1237806D1*
X715328Y1260710D2*
X719175Y1262655D1*
X724923Y1268359D1*
Y1228211D1*
X739220Y1258808D2*
Y1260710D1*
X741121Y1264556D1*
X743023Y1266458D1*
X746869Y1268359D1*
X754519D1*
X758321Y1266458D1*
X760222Y1264556D1*
X762168Y1260710D1*
Y1256907D1*
X760222Y1253060D1*
X756420Y1247357D1*
X737275Y1228211D1*
X764069D1*
X1111226Y1359102D2*
X1109325Y1362905D1*
X1105478Y1366751D1*
X1101676Y1368653D1*
X1094026D1*
X1090180Y1366751D1*
X1086377Y1362905D1*
X1084432Y1359102D1*
X1082530Y1353354D1*
Y1343759D1*
X1084432Y1338055D1*
X1086377Y1334209D1*
X1090180Y1330406D1*
X1094026Y1328461D1*
X1101676D1*
X1105478Y1330406D1*
X1109325Y1334209D1*
X1111226Y1338055D1*
X1123578Y1360959D2*
X1127425Y1362905D1*
X1133173Y1368608D1*
Y1328461D1*
X1149371Y1368608D2*
X1170373D1*
X1158921Y1353310D1*
X1164669D1*
X1168472Y1351408D1*
X1170373Y1349507D1*
X1172319Y1343759D1*
Y1339957D1*
X1170373Y1334209D1*
X1166571Y1330362D1*
X1160823Y1328461D1*
X1155075D1*
X1149371Y1330362D1*
X1147469Y1332307D1*
X1145524Y1336110D1*
X1335205Y1108853D2*
X1333304Y1112655D1*
X1329457Y1116502D1*
X1325654Y1118403D1*
X1318005D1*
X1314158Y1116502D1*
X1310356Y1112655D1*
X1308410Y1108853D1*
X1306509Y1103105D1*
Y1093510D1*
X1308410Y1087806D1*
X1310356Y1083959D1*
X1314158Y1080157D1*
X1318005Y1078211D1*
X1325654D1*
X1329457Y1080157D1*
X1333304Y1083959D1*
X1335205Y1087806D1*
X1347556Y1110710D2*
X1351403Y1112655D1*
X1357151Y1118359D1*
Y1078211D1*
X1388648D2*
Y1118359D1*
X1369502Y1091609D1*
X1398198D1*
X1325591Y3044102D2*
X1323690Y3047905D1*
X1319843Y3051751D1*
X1316040Y3053653D1*
X1308391D1*
X1304544Y3051751D1*
X1300742Y3047905D1*
X1298796Y3044102D1*
X1296895Y3038354D1*
Y3028759D1*
X1298796Y3023055D1*
X1300742Y3019209D1*
X1304544Y3015406D1*
X1308391Y3013461D1*
X1316040D1*
X1319843Y3015406D1*
X1323690Y3019209D1*
X1325591Y3023055D1*
X1339888Y3044058D2*
Y3045959D1*
X1341789Y3049806D1*
X1343690Y3051707D1*
X1347537Y3053608D1*
X1355186D1*
X1358989Y3051707D1*
X1360890Y3049806D1*
X1362836Y3045959D1*
Y3042157D1*
X1360890Y3038310D1*
X1357088Y3032606D1*
X1337942Y3013461D1*
X1364737D1*
X1400036Y3053608D2*
X1380935D1*
X1379034Y3036408D1*
X1380935Y3038310D1*
X1386683Y3040255D1*
X1392387D1*
X1398135Y3038310D1*
X1401982Y3034507D1*
X1403883Y3028759D1*
Y3024957D1*
X1401982Y3019209D1*
X1398135Y3015362D1*
X1392387Y3013461D1*
X1386683D1*
X1380935Y3015362D1*
X1379034Y3017307D1*
X1377088Y3021110D1*
X808906Y1843853D2*
X807005Y1847655D1*
X803158Y1851502D1*
X799356Y1853403D1*
X791706D1*
X787859Y1851502D1*
X784057Y1847655D1*
X782111Y1843853D1*
X780210Y1838105D1*
Y1828510D1*
X782111Y1822806D1*
X784057Y1818959D1*
X787859Y1815157D1*
X791706Y1813211D1*
X799356D1*
X803158Y1815157D1*
X807005Y1818959D1*
X808906Y1822806D1*
X825104Y1853359D2*
X846107D1*
X834655Y1838060D1*
X840403D1*
X844205Y1836159D1*
X846107Y1834258D1*
X848052Y1828510D1*
Y1824707D1*
X846107Y1818959D1*
X842304Y1815112D1*
X836556Y1813211D1*
X830808D1*
X825104Y1815112D1*
X823203Y1817058D1*
X821258Y1820861D1*
X860404Y1845710D2*
X864250Y1847655D1*
X869998Y1853359D1*
Y1813211D1*
X664272Y2443660D2*
X662371Y2447462D1*
X658524Y2451309D1*
X654722Y2453210D1*
X647072D1*
X643225Y2451309D1*
X639423Y2447462D1*
X637477Y2443660D1*
X635576Y2437912D1*
Y2428317D1*
X637477Y2422613D1*
X639423Y2418766D1*
X643225Y2414964D1*
X647072Y2413018D1*
X654722D1*
X658524Y2414964D1*
X662371Y2418766D1*
X664272Y2422613D1*
X680470Y2453166D2*
X701473D1*
X690021Y2437867D1*
X695769D1*
X699571Y2435966D1*
X701473Y2434065D1*
X703418Y2428317D1*
Y2424514D1*
X701473Y2418766D1*
X697670Y2414920D1*
X691922Y2413018D1*
X686174D1*
X680470Y2414920D1*
X678569Y2416865D1*
X676623Y2420668D1*
X717715Y2443616D2*
Y2445517D1*
X719616Y2449364D1*
X721518Y2451265D1*
X725364Y2453166D1*
X733014D1*
X736816Y2451265D1*
X738717Y2449364D1*
X740663Y2445517D1*
Y2441714D1*
X738717Y2437867D1*
X734915Y2432164D1*
X715770Y2413018D1*
X742564D1*
X1259556Y1871353D2*
X1257654Y1875155D1*
X1253808Y1879002D1*
X1250005Y1880903D1*
X1242356D1*
X1238509Y1879002D1*
X1234706Y1875155D1*
X1232761Y1871353D1*
X1230860Y1865605D1*
Y1856010D1*
X1232761Y1850306D1*
X1234706Y1846459D1*
X1238509Y1842657D1*
X1242356Y1840711D1*
X1250005D1*
X1253808Y1842657D1*
X1257654Y1846459D1*
X1259556Y1850306D1*
X1275754Y1880859D2*
X1296756D1*
X1285304Y1865560D1*
X1291052D1*
X1294855Y1863659D1*
X1296756Y1861758D1*
X1298702Y1856010D1*
Y1852207D1*
X1296756Y1846459D1*
X1292954Y1842612D1*
X1287206Y1840711D1*
X1281458D1*
X1275754Y1842612D1*
X1273852Y1844558D1*
X1271907Y1848361D1*
X1314900Y1880859D2*
X1335902D1*
X1324450Y1865560D1*
X1330198D1*
X1334001Y1863659D1*
X1335902Y1861758D1*
X1337848Y1856010D1*
Y1852207D1*
X1335902Y1846459D1*
X1332100Y1842612D1*
X1326352Y1840711D1*
X1320604D1*
X1314900Y1842612D1*
X1312998Y1844558D1*
X1311053Y1848361D1*
X795605Y513102D2*
X793704Y516905D1*
X789857Y520751D1*
X786054Y522653D1*
X778405D1*
X774558Y520751D1*
X770756Y516905D1*
X768810Y513102D1*
X766909Y507354D1*
Y497759D1*
X768810Y492055D1*
X770756Y488209D1*
X774558Y484406D1*
X778405Y482461D1*
X786054D1*
X789857Y484406D1*
X793704Y488209D1*
X795605Y492055D1*
X811803Y522608D2*
X832805D1*
X821354Y507310D1*
X827102D1*
X830904Y505408D1*
X832805Y503507D1*
X834751Y497759D1*
Y493957D1*
X832805Y488209D1*
X829003Y484362D1*
X823255Y482461D1*
X817507D1*
X811803Y484362D1*
X809902Y486307D1*
X807956Y490110D1*
X866248Y482461D2*
Y522608D1*
X847102Y495858D1*
X875798D1*
X1219342Y621317D2*
X1217440Y625120D1*
X1213594Y628967D1*
X1209791Y630868D1*
X1202142D1*
X1198295Y628967D1*
X1194492Y625120D1*
X1192547Y621317D1*
X1190646Y615569D1*
Y605974D1*
X1192547Y600271D1*
X1194492Y596424D1*
X1198295Y592621D1*
X1202142Y590676D1*
X1209791D1*
X1213594Y592621D1*
X1217440Y596424D1*
X1219342Y600271D1*
X1235540Y630824D2*
X1256542D1*
X1245090Y615525D1*
X1250838D1*
X1254641Y613624D1*
X1256542Y611722D1*
X1258488Y605974D1*
Y602172D1*
X1256542Y596424D1*
X1252740Y592577D1*
X1246992Y590676D1*
X1241244D1*
X1235540Y592577D1*
X1233639Y594523D1*
X1231693Y598325D1*
X1293787Y630824D2*
X1274686D1*
X1272785Y613624D1*
X1274686Y615525D1*
X1280434Y617470D1*
X1286138D1*
X1291886Y615525D1*
X1295732Y611722D1*
X1297634Y605974D1*
Y602172D1*
X1295732Y596424D1*
X1291886Y592577D1*
X1286138Y590676D1*
X1280434D1*
X1274686Y592577D1*
X1272785Y594523D1*
X1270839Y598325D1*
X1088091Y2144841D2*
X1086190Y2148643D1*
X1082343Y2152490D1*
X1078540Y2154391D1*
X1070891D1*
X1067044Y2152490D1*
X1063242Y2148643D1*
X1061296Y2144841D1*
X1059395Y2139093D1*
Y2129498D1*
X1061296Y2123794D1*
X1063242Y2119947D1*
X1067044Y2116145D1*
X1070891Y2114199D1*
X1078540D1*
X1082343Y2116145D1*
X1086190Y2119947D1*
X1088091Y2123794D1*
X1104289Y2154347D2*
X1125292D1*
X1113840Y2139049D1*
X1119588D1*
X1123390Y2137147D1*
X1125292Y2135246D1*
X1127237Y2129498D1*
Y2125695D1*
X1125292Y2119947D1*
X1121489Y2116101D1*
X1115741Y2114199D1*
X1109993D1*
X1104289Y2116101D1*
X1102388Y2118046D1*
X1100442Y2121849D1*
X1147238Y2114199D2*
X1166383Y2154347D1*
X1139588D1*
X688113Y721317D2*
X686212Y725120D1*
X682365Y728967D1*
X678563Y730868D1*
X670913D1*
X667066Y728967D1*
X663264Y725120D1*
X661318Y721317D1*
X659417Y715569D1*
Y705974D1*
X661318Y700271D1*
X663264Y696424D1*
X667066Y692621D1*
X670913Y690676D1*
X678563D1*
X682365Y692621D1*
X686212Y696424D1*
X688113Y700271D1*
X704311Y730824D2*
X725314D1*
X713862Y715525D1*
X719610D1*
X723412Y713624D1*
X725314Y711722D1*
X727259Y705974D1*
Y702172D1*
X725314Y696424D1*
X721511Y692577D1*
X715763Y690676D1*
X710015D1*
X704311Y692577D1*
X702410Y694523D1*
X700464Y698325D1*
X749161Y730824D2*
X743457Y728922D1*
X741512Y725120D1*
Y721273D1*
X743457Y717470D1*
X747260Y715525D1*
X754909Y713624D1*
X760657Y711722D1*
X764460Y707876D1*
X766361Y704073D1*
Y698325D1*
X764460Y694523D1*
X762558Y692577D1*
X756810Y690676D1*
X749161D1*
X743457Y692577D1*
X741512Y694523D1*
X739611Y698325D1*
Y704073D1*
X741512Y707876D1*
X745359Y711722D1*
X751062Y713624D1*
X758712Y715525D1*
X762558Y717470D1*
X764460Y721273D1*
Y725120D1*
X762558Y728922D1*
X756810Y730824D1*
X749161D1*
X665223Y2143660D2*
X663321Y2147462D1*
X659475Y2151309D1*
X655672Y2153210D1*
X648023D1*
X644176Y2151309D1*
X640374Y2147462D1*
X638428Y2143660D1*
X636527Y2137912D1*
Y2128317D1*
X638428Y2122613D1*
X640374Y2118766D1*
X644176Y2114964D1*
X648023Y2113018D1*
X655672D1*
X659475Y2114964D1*
X663321Y2118766D1*
X665223Y2122613D1*
X681421Y2153166D2*
X702423D1*
X690971Y2137867D1*
X696719D1*
X700522Y2135966D1*
X702423Y2134065D1*
X704369Y2128317D1*
Y2124514D1*
X702423Y2118766D1*
X698621Y2114920D1*
X692873Y2113018D1*
X687125D1*
X681421Y2114920D1*
X679520Y2116865D1*
X677574Y2120668D1*
X741614Y2139813D2*
X739668Y2134065D1*
X735866Y2130218D1*
X730118Y2128317D1*
X728216D1*
X722468Y2130218D1*
X718666Y2134065D1*
X716720Y2139813D1*
Y2141714D1*
X718666Y2147462D1*
X722468Y2151265D1*
X728216Y2153166D1*
X730118D1*
X735866Y2151265D1*
X739668Y2147462D1*
X741614Y2139813D1*
Y2130218D1*
X739668Y2120668D1*
X735866Y2114920D1*
X730118Y2113018D1*
X726315D1*
X720567Y2114920D1*
X718666Y2118766D1*
X1114356Y837853D2*
X1112454Y841655D1*
X1108608Y845502D1*
X1104805Y847403D1*
X1097156D1*
X1093309Y845502D1*
X1089506Y841655D1*
X1087561Y837853D1*
X1085660Y832105D1*
Y822510D1*
X1087561Y816806D1*
X1089506Y812959D1*
X1093309Y809157D1*
X1097156Y807211D1*
X1104805D1*
X1108608Y809157D1*
X1112454Y812959D1*
X1114356Y816806D1*
X1145852Y807211D2*
Y847359D1*
X1126707Y820609D1*
X1155403D1*
X1179250Y847359D2*
X1173502Y845458D1*
X1169656Y839710D1*
X1167754Y830159D1*
Y824411D1*
X1169656Y814861D1*
X1173502Y809112D1*
X1179250Y807211D1*
X1183053D1*
X1188801Y809112D1*
X1192603Y814861D1*
X1194549Y824411D1*
Y830159D1*
X1192603Y839710D1*
X1188801Y845458D1*
X1183053Y847359D1*
X1179250D1*
X1192603Y839710D2*
X1169656Y814861D1*
X1087140Y2444841D2*
X1085239Y2448643D1*
X1081392Y2452490D1*
X1077590Y2454391D1*
X1069940D1*
X1066094Y2452490D1*
X1062291Y2448643D1*
X1060346Y2444841D1*
X1058444Y2439093D1*
Y2429498D1*
X1060346Y2423794D1*
X1062291Y2419947D1*
X1066094Y2416145D1*
X1069940Y2414199D1*
X1077590D1*
X1081392Y2416145D1*
X1085239Y2419947D1*
X1087140Y2423794D1*
X1118637Y2414199D2*
Y2454347D1*
X1099492Y2427597D1*
X1128188D1*
X1144386Y2454347D2*
X1165388D1*
X1153936Y2439049D1*
X1159684D1*
X1163487Y2437147D1*
X1165388Y2435246D1*
X1167334Y2429498D1*
Y2425695D1*
X1165388Y2419947D1*
X1161586Y2416101D1*
X1155838Y2414199D1*
X1150090D1*
X1144386Y2416101D1*
X1142485Y2418046D1*
X1140539Y2421849D1*
X1392897Y1547875D2*
X1389094Y1545974D1*
X1385247Y1542127D1*
X1383346Y1538324D1*
Y1530675D1*
X1385247Y1526828D1*
X1389094Y1523026D1*
X1392897Y1521080D1*
X1398645Y1519179D1*
X1408239D1*
X1413943Y1521080D1*
X1417790Y1523026D1*
X1421593Y1526828D1*
X1423538Y1530675D1*
Y1538324D1*
X1421593Y1542127D1*
X1417790Y1545974D1*
X1413943Y1547875D1*
X1423538Y1579372D2*
X1383390D1*
X1410141Y1560226D1*
Y1588922D1*
X1423538Y1620419D2*
X1383390D1*
X1410141Y1601273D1*
Y1629969D1*
X1468391Y1100353D2*
X1466490Y1104155D1*
X1462643Y1108002D1*
X1458840Y1109903D1*
X1451191D1*
X1447344Y1108002D1*
X1443542Y1104155D1*
X1441596Y1100353D1*
X1439695Y1094605D1*
Y1085010D1*
X1441596Y1079306D1*
X1443542Y1075459D1*
X1447344Y1071657D1*
X1451191Y1069711D1*
X1458840D1*
X1462643Y1071657D1*
X1466490Y1075459D1*
X1468391Y1079306D1*
X1499888Y1069711D2*
Y1109859D1*
X1480742Y1083109D1*
X1509438D1*
X1544738Y1109859D2*
X1525636D1*
X1523735Y1092659D1*
X1525636Y1094560D1*
X1531385Y1096506D1*
X1537088D1*
X1542836Y1094560D1*
X1546683Y1090758D1*
X1548584Y1085010D1*
Y1081207D1*
X1546683Y1075459D1*
X1542836Y1071612D1*
X1537088Y1069711D1*
X1531385D1*
X1525636Y1071612D1*
X1523735Y1073558D1*
X1521790Y1077361D1*
X1088431Y3013411D2*
Y2973219D1*
X1101828D1*
X1107576Y2975165D1*
X1111423Y2978967D1*
X1113324Y2982814D1*
X1115225Y2988518D1*
Y2998112D1*
X1113324Y3003861D1*
X1111423Y3007663D1*
X1107576Y3011510D1*
X1101828Y3013411D1*
X1088431D1*
X1131423Y3013367D2*
X1152426D1*
X1140974Y2998068D1*
X1146722D1*
X1150524Y2996167D1*
X1152426Y2994266D1*
X1154371Y2988518D1*
Y2984715D1*
X1152426Y2978967D1*
X1148623Y2975120D1*
X1142875Y2973219D1*
X1137127D1*
X1131423Y2975120D1*
X1129522Y2977066D1*
X1127577Y2980868D1*
X754121Y4552964D2*
Y4512772D1*
X795168Y4543413D2*
X793267Y4547216D1*
X789420Y4551062D1*
X785617Y4552964D1*
X777968D1*
X774121Y4551062D1*
X770319Y4547216D1*
X768373Y4543413D1*
X766472Y4537665D1*
Y4528070D1*
X768373Y4522366D1*
X770319Y4518520D1*
X774121Y4514717D1*
X777968Y4512772D1*
X785617D1*
X789420Y4514717D1*
X793267Y4518520D1*
X795168Y4522366D1*
X807519Y4545270D2*
X811366Y4547216D1*
X817114Y4552919D1*
Y4512772D1*
X1252599Y2127994D2*
Y2087802D1*
X1293647Y2118443D2*
X1291746Y2122246D1*
X1287899Y2126093D1*
X1284096Y2127994D1*
X1276447D1*
X1272600Y2126093D1*
X1268798Y2122246D1*
X1266852Y2118443D1*
X1264951Y2112695D1*
Y2103100D1*
X1266852Y2097397D1*
X1268798Y2093550D1*
X1272600Y2089747D1*
X1276447Y2087802D1*
X1284096D1*
X1287899Y2089747D1*
X1291746Y2093550D1*
X1293647Y2097397D1*
X1307944Y2118399D2*
Y2120300D1*
X1309845Y2124147D1*
X1311746Y2126048D1*
X1315593Y2127950D1*
X1323242D1*
X1327045Y2126048D1*
X1328946Y2124147D1*
X1330892Y2120300D1*
Y2116498D1*
X1328946Y2112651D1*
X1325144Y2106947D1*
X1305998Y2087802D1*
X1332793D1*
X726459Y3779847D2*
Y3739655D1*
X767506Y3770296D2*
X765605Y3774099D1*
X761758Y3777946D1*
X757955Y3779847D1*
X750306D1*
X746459Y3777946D1*
X742657Y3774099D1*
X740711Y3770296D1*
X738810Y3764548D1*
Y3754953D1*
X740711Y3749250D1*
X742657Y3745403D1*
X746459Y3741600D1*
X750306Y3739655D1*
X757955D1*
X761758Y3741600D1*
X765605Y3745403D1*
X767506Y3749250D1*
X799003Y3739655D2*
Y3779803D1*
X779857Y3753052D1*
X808553D1*
X730766Y2977049D2*
Y2936857D1*
X771813Y2967498D2*
X769912Y2971301D1*
X766065Y2975148D1*
X762263Y2977049D1*
X754614D1*
X750767Y2975148D1*
X746964Y2971301D1*
X745019Y2967498D1*
X743118Y2961750D1*
Y2952155D1*
X745019Y2946452D1*
X746964Y2942605D1*
X750767Y2938802D1*
X754614Y2936857D1*
X762263D1*
X766065Y2938802D1*
X769912Y2942605D1*
X771813Y2946452D1*
X807113Y2977005D2*
X788012D1*
X786110Y2959805D1*
X788012Y2961706D1*
X793760Y2963652D1*
X799463D1*
X805211Y2961706D1*
X809058Y2957904D1*
X810960Y2952155D1*
Y2948353D1*
X809058Y2942605D1*
X805211Y2938758D1*
X799463Y2936857D1*
X793760D1*
X788012Y2938758D1*
X786110Y2940704D1*
X784165Y2944506D1*
X952654Y753456D2*
Y713264D1*
X993701Y743905D2*
X991800Y747708D1*
X987953Y751554D1*
X984150Y753456D1*
X976501D1*
X972654Y751554D1*
X968852Y747708D1*
X966906Y743905D1*
X965005Y738157D1*
Y728562D1*
X966906Y722859D1*
X968852Y719012D1*
X972654Y715209D1*
X976501Y713264D1*
X984150D1*
X987953Y715209D1*
X991800Y719012D1*
X993701Y722859D1*
X1029000Y747708D2*
X1027099Y751510D1*
X1021351Y753412D1*
X1017548D1*
X1011800Y751510D1*
X1007954Y745762D1*
X1006052Y736212D1*
Y726661D1*
X1007954Y719012D1*
X1011800Y715165D1*
X1017548Y713264D1*
X1019450D1*
X1025153Y715165D1*
X1029000Y719012D1*
X1030901Y724760D1*
Y726661D1*
X1029000Y732409D1*
X1025153Y736212D1*
X1019450Y738113D1*
X1017548D1*
X1011800Y736212D1*
X1007954Y732409D1*
X1006052Y726661D1*
X535916Y4521468D2*
Y4490871D1*
X534014Y4485123D1*
X532069Y4483222D1*
X528266Y4481276D1*
X524420D1*
X520617Y4483222D1*
X518716Y4485123D1*
X516770Y4490871D1*
Y4494674D1*
X548267Y4500422D2*
X565511D1*
X571215Y4502323D1*
X573160Y4504268D1*
X575062Y4508071D1*
Y4513819D1*
X573160Y4517621D1*
X571215Y4519567D1*
X565511Y4521468D1*
X548267D1*
Y4481276D1*
X587413Y4513775D2*
X591260Y4515720D1*
X597008Y4521424D1*
Y4481276D1*
X1377066Y3990718D2*
Y3960121D1*
X1375165Y3954373D1*
X1373220Y3952472D1*
X1369417Y3950526D1*
X1365570D1*
X1361768Y3952472D1*
X1359866Y3954373D1*
X1357921Y3960121D1*
Y3963924D1*
X1389418Y3969672D2*
X1406662D1*
X1412366Y3971573D1*
X1414311Y3973518D1*
X1416212Y3977321D1*
Y3983069D1*
X1414311Y3986871D1*
X1412366Y3988817D1*
X1406662Y3990718D1*
X1389418D1*
Y3950526D1*
X1432411Y3990674D2*
X1453413D1*
X1441961Y3975375D1*
X1447709D1*
X1451512Y3973474D1*
X1453413Y3971573D1*
X1455358Y3965825D1*
Y3962022D1*
X1453413Y3956274D1*
X1449610Y3952427D1*
X1443862Y3950526D1*
X1438114D1*
X1432411Y3952427D1*
X1430509Y3954373D1*
X1428564Y3958175D1*
X1453946Y3424466D2*
Y3384274D1*
X1476894D1*
X1489245Y3416773D2*
X1493092Y3418718D1*
X1498840Y3424422D1*
Y3384274D1*
X437346Y3118466D2*
Y3078274D1*
X460294D1*
X474591Y3108871D2*
Y3110773D1*
X476492Y3114619D1*
X478393Y3116521D1*
X482240Y3118422D1*
X489889D1*
X493692Y3116521D1*
X495593Y3114619D1*
X497539Y3110773D1*
Y3106970D1*
X495593Y3103123D1*
X491791Y3097420D1*
X472645Y3078274D1*
X499440D1*
X1515563Y1956589D2*
X1555755D1*
Y1979537D1*
X1515607Y1995735D2*
Y2016737D1*
X1530905Y2005285D1*
Y2011034D1*
X1532807Y2014836D1*
X1534708Y2016737D1*
X1540456Y2018683D1*
X1544259D1*
X1550007Y2016737D1*
X1553853Y2012935D1*
X1555755Y2007187D1*
Y2001439D1*
X1553853Y1995735D1*
X1551908Y1993834D1*
X1548105Y1991888D1*
X1428506Y4282535D2*
Y4299734D1*
X1426560Y4305482D1*
X1424659Y4307428D1*
X1420857Y4309329D1*
X1417010D1*
X1413207Y4307428D1*
X1411262Y4305482D1*
X1409361Y4299734D1*
X1409360Y4282535D1*
X1449552D1*
X1428506Y4295932D2*
X1449553Y4309329D1*
X1417054Y4321681D2*
X1415109Y4325527D1*
X1409405Y4331275D1*
X1449553D1*
X1239919Y4228258D2*
X1257119D1*
X1262867Y4230203D1*
X1264812Y4232105D1*
X1266713Y4235907D1*
Y4239754D1*
X1264812Y4243556D1*
X1262867Y4245502D1*
X1257119Y4247403D1*
X1239919D1*
Y4207211D1*
X1253316Y4228258D2*
X1266713Y4207211D1*
X1282912Y4247359D2*
X1303914D1*
X1292462Y4232060D1*
X1298210D1*
X1302013Y4230159D1*
X1303914Y4228258D1*
X1305859Y4222510D1*
Y4218707D1*
X1303914Y4212959D1*
X1300111Y4209112D1*
X1294363Y4207211D1*
X1288615D1*
X1282912Y4209112D1*
X1281010Y4211058D1*
X1279065Y4214861D1*
X1238719Y4320007D2*
X1255919D1*
X1261667Y4321953D1*
X1263612Y4323854D1*
X1265513Y4327657D1*
Y4331503D1*
X1263612Y4335306D1*
X1261667Y4337251D1*
X1255919Y4339153D1*
X1238719D1*
Y4298961D1*
X1252116Y4320007D2*
X1265513Y4298961D1*
X1297010D2*
Y4339108D1*
X1277865Y4312358D1*
X1306561D1*
X1239669Y4149007D2*
X1256869D1*
X1262617Y4150953D1*
X1264563Y4152854D1*
X1266464Y4156657D1*
Y4160503D1*
X1264563Y4164306D1*
X1262617Y4166251D1*
X1256869Y4168153D1*
X1239669D1*
Y4127961D1*
X1253067Y4149007D2*
X1266464Y4127961D1*
X1301763Y4168108D2*
X1282662D1*
X1280761Y4150908D1*
X1282662Y4152810D1*
X1288410Y4154755D1*
X1294114D1*
X1299862Y4152810D1*
X1303709Y4149007D1*
X1305610Y4143259D1*
Y4139457D1*
X1303709Y4133709D1*
X1299862Y4129862D1*
X1294114Y4127961D1*
X1288410D1*
X1282662Y4129862D1*
X1280761Y4131807D1*
X1278815Y4135610D1*
X1314891Y1959293D2*
X1332091D1*
X1337839Y1961239D1*
X1339785Y1963140D1*
X1341686Y1966943D1*
Y1970789D1*
X1339785Y1974592D1*
X1337839Y1976537D1*
X1332091Y1978439D1*
X1314891D1*
Y1938247D1*
X1328289Y1959293D2*
X1341686Y1938247D1*
X1376985Y1972691D2*
X1375084Y1976493D1*
X1369336Y1978394D1*
X1365534D1*
X1359786Y1976493D1*
X1355939Y1970745D1*
X1354038Y1961195D1*
Y1951644D1*
X1355939Y1943995D1*
X1359786Y1940148D1*
X1365534Y1938247D1*
X1367435D1*
X1373139Y1940148D1*
X1376985Y1943995D1*
X1378887Y1949743D1*
Y1951644D1*
X1376985Y1957392D1*
X1373139Y1961195D1*
X1367435Y1963096D1*
X1365534D1*
X1359786Y1961195D1*
X1355939Y1957392D1*
X1354038Y1951644D1*
X1117227Y1415758D2*
X1134427D1*
X1140175Y1417703D1*
X1142120Y1419605D1*
X1144022Y1423407D1*
Y1427254D1*
X1142120Y1431056D1*
X1140175Y1433002D1*
X1134427Y1434903D1*
X1117227D1*
Y1394711D1*
X1130624Y1415758D2*
X1144022Y1394711D1*
X1165924Y1434859D2*
X1160220Y1432958D1*
X1158274Y1429155D1*
Y1425308D1*
X1160220Y1421506D1*
X1164022Y1419560D1*
X1171672Y1417659D1*
X1177420Y1415758D1*
X1181222Y1411911D1*
X1183123Y1408109D1*
Y1402361D1*
X1181222Y1398558D1*
X1179321Y1396612D1*
X1173573Y1394711D1*
X1165924D1*
X1160220Y1396612D1*
X1158274Y1398558D1*
X1156373Y1402361D1*
Y1408109D1*
X1158274Y1411911D1*
X1162121Y1415758D1*
X1167825Y1417659D1*
X1175474Y1419560D1*
X1179321Y1421506D1*
X1181222Y1425308D1*
Y1429155D1*
X1179321Y1432958D1*
X1173573Y1434859D1*
X1165924D1*
X707334Y1764007D2*
X724534D1*
X730282Y1765953D1*
X732227Y1767854D1*
X734129Y1771657D1*
Y1775503D1*
X732227Y1779306D1*
X730282Y1781251D1*
X724534Y1783153D1*
X707334D1*
Y1742961D1*
X720731Y1764007D2*
X734129Y1742961D1*
X771373Y1769755D2*
X769428Y1764007D1*
X765625Y1760160D1*
X759877Y1758259D1*
X757976D1*
X752228Y1760160D1*
X748425Y1764007D1*
X746480Y1769755D1*
Y1771657D1*
X748425Y1777405D1*
X752228Y1781207D1*
X757976Y1783108D1*
X759877D1*
X765625Y1781207D1*
X769428Y1777405D1*
X771373Y1769755D1*
Y1760160D1*
X769428Y1750610D1*
X765625Y1744862D1*
X759877Y1742961D1*
X756075D1*
X750327Y1744862D1*
X748425Y1748709D1*
X1210696Y1551543D2*
X1227896D1*
X1233644Y1553488D1*
X1235590Y1555389D1*
X1237491Y1559192D1*
Y1563039D1*
X1235590Y1566841D1*
X1233644Y1568787D1*
X1227896Y1570688D1*
X1210696D1*
Y1530496D1*
X1224094Y1551543D2*
X1237491Y1530496D1*
X1249842Y1562994D2*
X1253689Y1564940D1*
X1259437Y1570644D1*
Y1530496D1*
X1283285Y1570644D2*
X1277537Y1568743D1*
X1273690Y1562994D1*
X1271789Y1553444D1*
Y1547696D1*
X1273690Y1538145D1*
X1277537Y1532397D1*
X1283285Y1530496D1*
X1287087D1*
X1292835Y1532397D1*
X1296638Y1538145D1*
X1298583Y1547696D1*
Y1553444D1*
X1296638Y1562994D1*
X1292835Y1568743D1*
X1287087Y1570644D1*
X1283285D1*
X1296638Y1562994D2*
X1273690Y1538145D1*
X692296Y1474293D2*
X709496D1*
X715244Y1476239D1*
X717190Y1478140D1*
X719091Y1481943D1*
Y1485789D1*
X717190Y1489592D1*
X715244Y1491537D1*
X709496Y1493439D1*
X692296D1*
Y1453247D1*
X705694Y1474293D2*
X719091Y1453247D1*
X731442Y1485745D2*
X735289Y1487691D1*
X741037Y1493394D1*
Y1453247D1*
X753388Y1485745D2*
X757235Y1487691D1*
X762983Y1493394D1*
Y1453247D1*
X1214661Y1660007D2*
X1231861D1*
X1237609Y1661953D1*
X1239554Y1663854D1*
X1241455Y1667657D1*
Y1671503D1*
X1239554Y1675306D1*
X1237609Y1677251D1*
X1231861Y1679153D1*
X1214661D1*
Y1638961D1*
X1228058Y1660007D2*
X1241455Y1638961D1*
X1253807Y1671459D2*
X1257654Y1673405D1*
X1263402Y1679108D1*
Y1638961D1*
X1277699Y1669558D2*
Y1671459D1*
X1279600Y1675306D1*
X1281501Y1677207D1*
X1285348Y1679108D1*
X1292997D1*
X1296800Y1677207D1*
X1298701Y1675306D1*
X1300646Y1671459D1*
Y1667657D1*
X1298701Y1663810D1*
X1294898Y1658106D1*
X1275753Y1638961D1*
X1302548D1*
X662481Y1574507D2*
X679681D1*
X685429Y1576453D1*
X687374Y1578354D1*
X689276Y1582157D1*
Y1586003D1*
X687374Y1589806D1*
X685429Y1591751D1*
X679681Y1593653D1*
X662481D1*
Y1553461D1*
X675878Y1574507D2*
X689276Y1553461D1*
X701627Y1585959D2*
X705474Y1587905D1*
X711222Y1593608D1*
Y1553461D1*
X727420Y1593608D2*
X748422D1*
X736971Y1578310D1*
X742719D1*
X746521Y1576408D1*
X748422Y1574507D1*
X750368Y1568759D1*
Y1564957D1*
X748422Y1559209D1*
X744620Y1555362D1*
X738872Y1553461D1*
X733124D1*
X727420Y1555362D1*
X725519Y1557307D1*
X723573Y1561110D1*
X681910Y1147507D2*
X699110D1*
X704858Y1149453D1*
X706804Y1151354D1*
X708705Y1155157D1*
Y1159003D1*
X706804Y1162806D1*
X704858Y1164751D1*
X699110Y1166653D1*
X681910D1*
Y1126461D1*
X695308Y1147507D2*
X708705Y1126461D1*
X721056Y1158959D2*
X724903Y1160905D1*
X730651Y1166608D1*
Y1126461D1*
X765950Y1166608D2*
X746849D1*
X744948Y1149408D1*
X746849Y1151310D1*
X752597Y1153255D1*
X758301D1*
X764049Y1151310D1*
X767896Y1147507D1*
X769797Y1141759D1*
Y1137957D1*
X767896Y1132209D1*
X764049Y1128362D1*
X758301Y1126461D1*
X752597D1*
X746849Y1128362D1*
X744948Y1130307D1*
X743002Y1134110D1*
X1201204Y1041258D2*
X1218404D1*
X1224152Y1043203D1*
X1226098Y1045105D1*
X1227999Y1048907D1*
Y1052754D1*
X1226098Y1056556D1*
X1224152Y1058502D1*
X1218404Y1060403D1*
X1201204D1*
Y1020211D1*
X1214602Y1041258D2*
X1227999Y1020211D1*
X1240351Y1052710D2*
X1244197Y1054655D1*
X1249945Y1060359D1*
Y1020211D1*
X1285245Y1054655D2*
X1283343Y1058458D1*
X1277595Y1060359D1*
X1273793D1*
X1268045Y1058458D1*
X1264198Y1052710D1*
X1262297Y1043159D1*
Y1033609D1*
X1264198Y1025959D1*
X1268045Y1022112D1*
X1273793Y1020211D1*
X1275694D1*
X1281398Y1022112D1*
X1285245Y1025959D1*
X1287146Y1031707D1*
Y1033609D1*
X1285245Y1039357D1*
X1281398Y1043159D1*
X1275694Y1045060D1*
X1273793D1*
X1268045Y1043159D1*
X1264198Y1039357D1*
X1262297Y1033609D1*
X685481Y1359507D2*
X702681D1*
X708429Y1361453D1*
X710374Y1363354D1*
X712276Y1367157D1*
Y1371003D1*
X710374Y1374806D1*
X708429Y1376751D1*
X702681Y1378653D1*
X685481D1*
Y1338461D1*
X698878Y1359507D2*
X712276Y1338461D1*
X724627Y1370959D2*
X728474Y1372905D1*
X734222Y1378608D1*
Y1338461D1*
X754223D2*
X773368Y1378608D1*
X746573D1*
X1220254Y1245258D2*
X1237454D1*
X1243202Y1247203D1*
X1245147Y1249105D1*
X1247048Y1252907D1*
Y1256754D1*
X1245147Y1260556D1*
X1243202Y1262502D1*
X1237454Y1264403D1*
X1220254D1*
Y1224211D1*
X1233651Y1245258D2*
X1247048Y1224211D1*
X1259400Y1256710D2*
X1263247Y1258655D1*
X1268995Y1264359D1*
Y1224211D1*
X1290897Y1264359D2*
X1285193Y1262458D1*
X1283247Y1258655D1*
Y1254808D1*
X1285193Y1251006D1*
X1288995Y1249060D1*
X1296645Y1247159D1*
X1302393Y1245258D1*
X1306195Y1241411D1*
X1308097Y1237609D1*
Y1231861D1*
X1306195Y1228058D1*
X1304294Y1226112D1*
X1298546Y1224211D1*
X1290897D1*
X1285193Y1226112D1*
X1283247Y1228058D1*
X1281346Y1231861D1*
Y1237609D1*
X1283247Y1241411D1*
X1287094Y1245258D1*
X1292798Y1247159D1*
X1300447Y1249060D1*
X1304294Y1251006D1*
X1306195Y1254808D1*
Y1258655D1*
X1304294Y1262458D1*
X1298546Y1264359D1*
X1290897D1*
X684611Y1047007D2*
X701811D1*
X707559Y1048953D1*
X709505Y1050854D1*
X711406Y1054657D1*
Y1058503D1*
X709505Y1062306D1*
X707559Y1064251D1*
X701811Y1066153D1*
X684611D1*
Y1025961D1*
X698009Y1047007D2*
X711406Y1025961D1*
X723758Y1058459D2*
X727604Y1060405D1*
X733352Y1066108D1*
Y1025961D1*
X770597Y1052755D2*
X768652Y1047007D1*
X764849Y1043160D1*
X759101Y1041259D1*
X757200D1*
X751452Y1043160D1*
X747649Y1047007D1*
X745704Y1052755D1*
Y1054657D1*
X747649Y1060405D1*
X751452Y1064207D1*
X757200Y1066108D1*
X759101D1*
X764849Y1064207D1*
X768652Y1060405D1*
X770597Y1052755D1*
Y1043160D1*
X768652Y1033610D1*
X764849Y1027862D1*
X759101Y1025961D1*
X755299D1*
X749550Y1027862D1*
X747649Y1031709D1*
X1197846Y926722D2*
X1215046D1*
X1220794Y928668D1*
X1222739Y930569D1*
X1224640Y934372D1*
Y938218D1*
X1222739Y942021D1*
X1220794Y943967D1*
X1215046Y945868D1*
X1197846D1*
Y905676D1*
X1211243Y926722D2*
X1224640Y905676D1*
X1238937Y936273D2*
Y938174D1*
X1240838Y942021D1*
X1242740Y943922D1*
X1246587Y945824D1*
X1254236D1*
X1258038Y943922D1*
X1259940Y942021D1*
X1261885Y938174D1*
Y934372D1*
X1259940Y930525D1*
X1256137Y924821D1*
X1236992Y905676D1*
X1263786D1*
X1287634Y945824D2*
X1281886Y943922D1*
X1278039Y938174D1*
X1276138Y928624D1*
Y922876D1*
X1278039Y913325D1*
X1281886Y907577D1*
X1287634Y905676D1*
X1291436D1*
X1297184Y907577D1*
X1300987Y913325D1*
X1302932Y922876D1*
Y928624D1*
X1300987Y938174D1*
X1297184Y943922D1*
X1291436Y945824D1*
X1287634D1*
X1300987Y938174D2*
X1278039Y913325D1*
X1081410Y2711258D2*
X1098610D1*
X1104358Y2713203D1*
X1106304Y2715105D1*
X1108205Y2718907D1*
Y2722754D1*
X1106304Y2726556D1*
X1104358Y2728502D1*
X1098610Y2730403D1*
X1081410D1*
Y2690211D1*
X1094808Y2711258D2*
X1108205Y2690211D1*
X1122502Y2720808D2*
Y2722710D1*
X1124403Y2726556D1*
X1126304Y2728458D1*
X1130151Y2730359D1*
X1137800D1*
X1141603Y2728458D1*
X1143504Y2726556D1*
X1145450Y2722710D1*
Y2718907D1*
X1143504Y2715060D1*
X1139702Y2709357D1*
X1120556Y2690211D1*
X1147351D1*
X1159702Y2722710D2*
X1163549Y2724655D1*
X1169297Y2730359D1*
Y2690211D1*
X1068810Y2834507D2*
X1086010D1*
X1091758Y2836453D1*
X1093704Y2838354D1*
X1095605Y2842157D1*
Y2846003D1*
X1093704Y2849806D1*
X1091758Y2851751D1*
X1086010Y2853653D1*
X1068810D1*
Y2813461D1*
X1082208Y2834507D2*
X1095605Y2813461D1*
X1109902Y2844058D2*
Y2845959D1*
X1111803Y2849806D1*
X1113704Y2851707D1*
X1117551Y2853608D1*
X1125200D1*
X1129003Y2851707D1*
X1130904Y2849806D1*
X1132850Y2845959D1*
Y2842157D1*
X1130904Y2838310D1*
X1127102Y2832606D1*
X1107956Y2813461D1*
X1134751D1*
X1149048Y2844058D2*
Y2845959D1*
X1150949Y2849806D1*
X1152850Y2851707D1*
X1156697Y2853608D1*
X1164346D1*
X1168149Y2851707D1*
X1170050Y2849806D1*
X1171996Y2845959D1*
Y2842157D1*
X1170050Y2838310D1*
X1166248Y2832606D1*
X1147102Y2813461D1*
X1173897D1*
X590930Y3043258D2*
X608130D1*
X613878Y3045203D1*
X615824Y3047105D1*
X617725Y3050907D1*
Y3054754D1*
X615824Y3058556D1*
X613878Y3060502D1*
X608130Y3062403D1*
X590930D1*
Y3022211D1*
X604328Y3043258D2*
X617725Y3022211D1*
X632022Y3052808D2*
Y3054710D1*
X633923Y3058556D1*
X635825Y3060458D1*
X639671Y3062359D1*
X647321D1*
X651123Y3060458D1*
X653024Y3058556D1*
X654970Y3054710D1*
Y3050907D1*
X653024Y3047060D1*
X649222Y3041357D1*
X630077Y3022211D1*
X656871D1*
X688368D2*
Y3062359D1*
X669223Y3035609D1*
X697919D1*
X817346Y3043258D2*
X834546D1*
X840294Y3045203D1*
X842239Y3047105D1*
X844140Y3050907D1*
Y3054754D1*
X842239Y3058556D1*
X840294Y3060502D1*
X834546Y3062403D1*
X817346D1*
Y3022211D1*
X830743Y3043258D2*
X844140Y3022211D1*
X858437Y3052808D2*
Y3054710D1*
X860338Y3058556D1*
X862240Y3060458D1*
X866087Y3062359D1*
X873736D1*
X877538Y3060458D1*
X879440Y3058556D1*
X881385Y3054710D1*
Y3050907D1*
X879440Y3047060D1*
X875637Y3041357D1*
X856492Y3022211D1*
X883286D1*
X918586Y3062359D2*
X899485D1*
X897583Y3045159D1*
X899485Y3047060D1*
X905233Y3049006D1*
X910936D1*
X916684Y3047060D1*
X920531Y3043258D1*
X922432Y3037510D1*
Y3033707D1*
X920531Y3027959D1*
X916684Y3024112D1*
X910936Y3022211D1*
X905233D1*
X899485Y3024112D1*
X897583Y3026058D1*
X895638Y3029861D1*
X845654Y2384507D2*
X862854D1*
X868602Y2386453D1*
X870547Y2388354D1*
X872449Y2392157D1*
Y2396003D1*
X870547Y2399806D1*
X868602Y2401751D1*
X862854Y2403653D1*
X845654D1*
Y2363461D1*
X859051Y2384507D2*
X872449Y2363461D1*
X886745Y2394058D2*
Y2395959D1*
X888647Y2399806D1*
X890548Y2401707D1*
X894395Y2403608D1*
X902044D1*
X905847Y2401707D1*
X907748Y2399806D1*
X909693Y2395959D1*
Y2392157D1*
X907748Y2388310D1*
X903945Y2382606D1*
X884800Y2363461D1*
X911595D1*
X933497Y2403608D2*
X927793Y2401707D1*
X925847Y2397905D1*
Y2394058D1*
X927793Y2390255D1*
X931595Y2388310D1*
X939245Y2386408D1*
X944993Y2384507D1*
X948795Y2380660D1*
X950696Y2376858D1*
Y2371110D1*
X948795Y2367307D1*
X946894Y2365362D1*
X941146Y2363461D1*
X933497D1*
X927793Y2365362D1*
X925847Y2367307D1*
X923946Y2371110D1*
Y2376858D1*
X925847Y2380660D1*
X929694Y2384507D1*
X935398Y2386408D1*
X943047Y2388310D1*
X946894Y2390255D1*
X948795Y2394058D1*
Y2397905D1*
X946894Y2401707D1*
X941146Y2403608D1*
X933497D1*
X1196582Y728258D2*
X1213782D1*
X1219530Y730203D1*
X1221476Y732105D1*
X1223377Y735907D1*
Y739754D1*
X1221476Y743556D1*
X1219530Y745502D1*
X1213782Y747403D1*
X1196582D1*
Y707211D1*
X1209980Y728258D2*
X1223377Y707211D1*
X1237674Y737808D2*
Y739710D1*
X1239575Y743556D1*
X1241476Y745458D1*
X1245323Y747359D1*
X1252973D1*
X1256775Y745458D1*
X1258676Y743556D1*
X1260622Y739710D1*
Y735907D1*
X1258676Y732060D1*
X1254874Y726357D1*
X1235728Y707211D1*
X1262523D1*
X1299768Y734006D2*
X1297822Y728258D1*
X1294020Y724411D1*
X1288272Y722510D1*
X1286371D1*
X1280623Y724411D1*
X1276820Y728258D1*
X1274875Y734006D1*
Y735907D1*
X1276820Y741655D1*
X1280623Y745458D1*
X1286371Y747359D1*
X1288272D1*
X1294020Y745458D1*
X1297822Y741655D1*
X1299768Y734006D1*
Y724411D1*
X1297822Y714861D1*
X1294020Y709112D1*
X1288272Y707211D1*
X1284469D1*
X1278721Y709112D1*
X1276820Y712959D1*
X1342810Y729258D2*
X1360010D1*
X1365758Y731203D1*
X1367704Y733105D1*
X1369605Y736907D1*
Y740754D1*
X1367704Y744556D1*
X1365758Y746502D1*
X1360010Y748403D1*
X1342810D1*
Y708211D1*
X1356208Y729258D2*
X1369605Y708211D1*
X1385803Y748359D2*
X1406805D1*
X1395354Y733060D1*
X1401102D1*
X1404904Y731159D1*
X1406805Y729258D1*
X1408751Y723510D1*
Y719707D1*
X1406805Y713959D1*
X1403003Y710112D1*
X1397255Y708211D1*
X1391507D1*
X1385803Y710112D1*
X1383902Y712058D1*
X1381956Y715861D1*
X1432598Y748359D2*
X1426850Y746458D1*
X1423004Y740710D1*
X1421102Y731159D1*
Y725411D1*
X1423004Y715861D1*
X1426850Y710112D1*
X1432598Y708211D1*
X1436401D1*
X1442149Y710112D1*
X1445952Y715861D1*
X1447897Y725411D1*
Y731159D1*
X1445952Y740710D1*
X1442149Y746458D1*
X1436401Y748359D1*
X1432598D1*
X1445952Y740710D2*
X1423004Y715861D1*
X664910Y603258D2*
X682110D1*
X687858Y605203D1*
X689804Y607105D1*
X691705Y610907D1*
Y614754D1*
X689804Y618556D1*
X687858Y620502D1*
X682110Y622403D1*
X664910D1*
Y582211D1*
X678308Y603258D2*
X691705Y582211D1*
X707903Y622359D2*
X728905D1*
X717454Y607060D1*
X723202D1*
X727004Y605159D1*
X728905Y603258D1*
X730851Y597510D1*
Y593707D1*
X728905Y587959D1*
X725103Y584112D1*
X719355Y582211D1*
X713607D1*
X707903Y584112D1*
X706002Y586058D1*
X704056Y589861D1*
X743202Y614710D2*
X747049Y616655D1*
X752797Y622359D1*
Y582211D1*
X437561Y1684507D2*
X454761D1*
X460509Y1686453D1*
X462454Y1688354D1*
X464356Y1692157D1*
Y1696003D1*
X462454Y1699806D1*
X460509Y1701751D1*
X454761Y1703653D1*
X437561D1*
Y1663461D1*
X450958Y1684507D2*
X464356Y1663461D1*
X480554Y1703608D2*
X501556D1*
X490104Y1688310D1*
X495852D1*
X499655Y1686408D1*
X501556Y1684507D1*
X503502Y1678759D1*
Y1674957D1*
X501556Y1669209D1*
X497754Y1665362D1*
X492006Y1663461D1*
X486258D1*
X480554Y1665362D1*
X478652Y1667307D1*
X476707Y1671110D1*
X517799Y1694058D2*
Y1695959D1*
X519700Y1699806D1*
X521601Y1701707D1*
X525448Y1703608D1*
X533097D1*
X536900Y1701707D1*
X538801Y1699806D1*
X540746Y1695959D1*
Y1692157D1*
X538801Y1688310D1*
X534998Y1682606D1*
X515853Y1663461D1*
X542648D1*
X825061Y2078258D2*
X842261D1*
X848009Y2080203D1*
X849954Y2082105D1*
X851856Y2085907D1*
Y2089754D1*
X849954Y2093556D1*
X848009Y2095502D1*
X842261Y2097403D1*
X825061D1*
Y2057211D1*
X838458Y2078258D2*
X851856Y2057211D1*
X868054Y2097359D2*
X889056D1*
X877604Y2082060D1*
X883352D1*
X887155Y2080159D1*
X889056Y2078258D1*
X891002Y2072510D1*
Y2068707D1*
X889056Y2062959D1*
X885254Y2059112D1*
X879506Y2057211D1*
X873758D1*
X868054Y2059112D1*
X866152Y2061058D1*
X864207Y2064861D1*
X907200Y2097359D2*
X928202D1*
X916750Y2082060D1*
X922498D1*
X926301Y2080159D1*
X928202Y2078258D1*
X930148Y2072510D1*
Y2068707D1*
X928202Y2062959D1*
X924400Y2059112D1*
X918652Y2057211D1*
X912904D1*
X907200Y2059112D1*
X905299Y2061058D1*
X903353Y2064861D1*
X659395Y817972D2*
X676595D1*
X682343Y819917D1*
X684288Y821819D1*
X686190Y825621D1*
Y829468D1*
X684288Y833270D1*
X682343Y835216D1*
X676595Y837117D1*
X659395D1*
Y796925D1*
X672792Y817972D2*
X686190Y796925D1*
X702388Y837073D2*
X723390D1*
X711938Y821774D1*
X717686D1*
X721489Y819873D1*
X723390Y817972D1*
X725336Y812224D1*
Y808421D1*
X723390Y802673D1*
X719588Y798826D1*
X713840Y796925D1*
X708092D1*
X702388Y798826D1*
X700487Y800772D1*
X698541Y804574D1*
X756833Y796925D2*
Y837073D1*
X737687Y810322D1*
X766383D1*
X437561Y1475007D2*
X454761D1*
X460509Y1476953D1*
X462454Y1478854D1*
X464356Y1482657D1*
Y1486503D1*
X462454Y1490306D1*
X460509Y1492251D1*
X454761Y1494153D1*
X437561D1*
Y1453961D1*
X450958Y1475007D2*
X464356Y1453961D1*
X480554Y1494108D2*
X501556D1*
X490104Y1478810D1*
X495852D1*
X499655Y1476908D1*
X501556Y1475007D1*
X503502Y1469259D1*
Y1465457D1*
X501556Y1459709D1*
X497754Y1455862D1*
X492006Y1453961D1*
X486258D1*
X480554Y1455862D1*
X478652Y1457807D1*
X476707Y1461610D1*
X538801Y1494108D2*
X519700D1*
X517799Y1476908D1*
X519700Y1478810D1*
X525448Y1480755D1*
X531152D1*
X536900Y1478810D1*
X540746Y1475007D1*
X542648Y1469259D1*
Y1465457D1*
X540746Y1459709D1*
X536900Y1455862D1*
X531152Y1453961D1*
X525448D1*
X519700Y1455862D1*
X517799Y1457807D1*
X515853Y1461610D1*
X1452534Y1695258D2*
X1469734D1*
X1475482Y1697203D1*
X1477427Y1699105D1*
X1479328Y1702907D1*
Y1706754D1*
X1477427Y1710556D1*
X1475482Y1712502D1*
X1469734Y1714403D1*
X1452534D1*
Y1674211D1*
X1465931Y1695258D2*
X1479328Y1674211D1*
X1495526Y1714359D2*
X1516529D1*
X1505077Y1699060D1*
X1510825D1*
X1514628Y1697159D1*
X1516529Y1695258D1*
X1518474Y1689510D1*
Y1685707D1*
X1516529Y1679959D1*
X1512726Y1676112D1*
X1506978Y1674211D1*
X1501230D1*
X1495526Y1676112D1*
X1493625Y1678058D1*
X1491680Y1681861D1*
X1553774Y1708655D2*
X1551872Y1712458D1*
X1546124Y1714359D1*
X1542322D1*
X1536574Y1712458D1*
X1532727Y1706710D1*
X1530826Y1697159D1*
Y1687609D1*
X1532727Y1679959D1*
X1536574Y1676112D1*
X1542322Y1674211D1*
X1544223D1*
X1549927Y1676112D1*
X1553774Y1679959D1*
X1555675Y1685707D1*
Y1687609D1*
X1553774Y1693357D1*
X1549927Y1697159D1*
X1544223Y1699060D1*
X1542322D1*
X1536574Y1697159D1*
X1532727Y1693357D1*
X1530826Y1687609D1*
X1445381Y1408258D2*
X1462581D1*
X1468329Y1410203D1*
X1470274Y1412105D1*
X1472176Y1415907D1*
Y1419754D1*
X1470274Y1423556D1*
X1468329Y1425502D1*
X1462581Y1427403D1*
X1445381D1*
Y1387211D1*
X1458778Y1408258D2*
X1472176Y1387211D1*
X1488374Y1427359D2*
X1509376D1*
X1497925Y1412060D1*
X1503673D1*
X1507475Y1410159D1*
X1509376Y1408258D1*
X1511322Y1402510D1*
Y1398707D1*
X1509376Y1392959D1*
X1505574Y1389112D1*
X1499826Y1387211D1*
X1494078D1*
X1488374Y1389112D1*
X1486473Y1391058D1*
X1484527Y1394861D1*
X1531323Y1387211D2*
X1550468Y1427359D1*
X1523673D1*
X1441618Y1290758D2*
X1458818D1*
X1464566Y1292703D1*
X1466512Y1294605D1*
X1468413Y1298407D1*
Y1302254D1*
X1466512Y1306056D1*
X1464566Y1308002D1*
X1458818Y1309903D1*
X1441618D1*
Y1269711D1*
X1455016Y1290758D2*
X1468413Y1269711D1*
X1484611Y1309859D2*
X1505614D1*
X1494162Y1294560D1*
X1499910D1*
X1503712Y1292659D1*
X1505614Y1290758D1*
X1507559Y1285010D1*
Y1281207D1*
X1505614Y1275459D1*
X1501811Y1271612D1*
X1496063Y1269711D1*
X1490315D1*
X1484611Y1271612D1*
X1482710Y1273558D1*
X1480764Y1277361D1*
X1529461Y1309859D2*
X1523757Y1307958D1*
X1521812Y1304155D1*
Y1300308D1*
X1523757Y1296506D1*
X1527560Y1294560D1*
X1535209Y1292659D1*
X1540957Y1290758D1*
X1544760Y1286911D1*
X1546661Y1283109D1*
Y1277361D1*
X1544760Y1273558D1*
X1542858Y1271612D1*
X1537110Y1269711D1*
X1529461D1*
X1523757Y1271612D1*
X1521812Y1273558D1*
X1519911Y1277361D1*
Y1283109D1*
X1521812Y1286911D1*
X1525659Y1290758D1*
X1531362Y1292659D1*
X1539012Y1294560D1*
X1542858Y1296506D1*
X1544760Y1300308D1*
Y1304155D1*
X1542858Y1307958D1*
X1537110Y1309859D1*
X1529461D1*
X1442547Y1190758D2*
X1459747D1*
X1465495Y1192703D1*
X1467440Y1194605D1*
X1469342Y1198407D1*
Y1202254D1*
X1467440Y1206056D1*
X1465495Y1208002D1*
X1459747Y1209903D1*
X1442547D1*
Y1169711D1*
X1455944Y1190758D2*
X1469342Y1169711D1*
X1485540Y1209859D2*
X1506542D1*
X1495090Y1194560D1*
X1500838D1*
X1504641Y1192659D1*
X1506542Y1190758D1*
X1508488Y1185010D1*
Y1181207D1*
X1506542Y1175459D1*
X1502740Y1171612D1*
X1496992Y1169711D1*
X1491244D1*
X1485540Y1171612D1*
X1483639Y1173558D1*
X1481693Y1177361D1*
X1545732Y1196506D2*
X1543787Y1190758D1*
X1539984Y1186911D1*
X1534236Y1185010D1*
X1532335D1*
X1526587Y1186911D1*
X1522785Y1190758D1*
X1520839Y1196506D1*
Y1198407D1*
X1522785Y1204155D1*
X1526587Y1207958D1*
X1532335Y1209859D1*
X1534236D1*
X1539984Y1207958D1*
X1543787Y1204155D1*
X1545732Y1196506D1*
Y1186911D1*
X1543787Y1177361D1*
X1539984Y1171612D1*
X1534236Y1169711D1*
X1530434D1*
X1524686Y1171612D1*
X1522785Y1175459D1*
X430360Y1215758D2*
X447559D1*
X453308Y1217703D1*
X455253Y1219605D1*
X457154Y1223407D1*
Y1227254D1*
X455253Y1231056D1*
X453308Y1233002D1*
X447559Y1234903D1*
X430360D1*
Y1194711D1*
X443757Y1215758D2*
X457154Y1194711D1*
X488651D2*
Y1234859D1*
X469506Y1208109D1*
X498202D1*
X522049Y1234859D2*
X516301Y1232958D1*
X512454Y1227210D1*
X510553Y1217659D1*
Y1211911D1*
X512454Y1202361D1*
X516301Y1196612D1*
X522049Y1194711D1*
X525852D1*
X531600Y1196612D1*
X535402Y1202361D1*
X537348Y1211911D1*
Y1217659D1*
X535402Y1227210D1*
X531600Y1232958D1*
X525852Y1234859D1*
X522049D1*
X535402Y1227210D2*
X512454Y1202361D1*
X426781Y987507D2*
X443981D1*
X449729Y989453D1*
X451674Y991354D1*
X453576Y995157D1*
Y999003D1*
X451674Y1002806D1*
X449729Y1004751D1*
X443981Y1006653D1*
X426781D1*
Y966461D1*
X440178Y987507D2*
X453576Y966461D1*
X485072D2*
Y1006608D1*
X465927Y979858D1*
X494623D1*
X506974Y998959D2*
X510821Y1000905D1*
X516569Y1006608D1*
Y966461D1*
X1340646Y609507D2*
X1357846D1*
X1363594Y611453D1*
X1365539Y613354D1*
X1367440Y617157D1*
Y621003D1*
X1365539Y624806D1*
X1363594Y626751D1*
X1357846Y628653D1*
X1340646D1*
Y588461D1*
X1354043Y609507D2*
X1367440Y588461D1*
X1398937D2*
Y628608D1*
X1379792Y601858D1*
X1408488D1*
X1422785Y619058D2*
Y620959D1*
X1424686Y624806D1*
X1426587Y626707D1*
X1430434Y628608D1*
X1438083D1*
X1441886Y626707D1*
X1443787Y624806D1*
X1445732Y620959D1*
Y617157D1*
X1443787Y613310D1*
X1439984Y607606D1*
X1420839Y588461D1*
X1447634D1*
X503146Y603258D2*
X520346D1*
X526094Y605203D1*
X528039Y607105D1*
X529940Y610907D1*
Y614754D1*
X528039Y618556D1*
X526094Y620502D1*
X520346Y622403D1*
X503146D1*
Y582211D1*
X516543Y603258D2*
X529940Y582211D1*
X561437D2*
Y622359D1*
X542292Y595609D1*
X570988D1*
X587186Y622359D2*
X608188D1*
X596736Y607060D1*
X602484D1*
X606287Y605159D1*
X608188Y603258D1*
X610134Y597510D1*
Y593707D1*
X608188Y587959D1*
X604386Y584112D1*
X598638Y582211D1*
X592890D1*
X587186Y584112D1*
X585285Y586058D1*
X583339Y589861D1*
X854843Y3854468D2*
Y3814276D1*
X841446Y3854468D2*
X868240D1*
X880592Y3833421D2*
X897836D1*
X903540Y3835322D1*
X905485Y3837268D1*
X907386Y3841070D1*
Y3846818D1*
X905485Y3850621D1*
X903540Y3852566D1*
X897836Y3854468D1*
X880592D1*
Y3814276D1*
X919738Y3846774D2*
X923585Y3848719D1*
X929333Y3854423D1*
Y3814276D1*
X1003743Y3842468D2*
Y3802276D1*
X990346Y3842468D2*
X1017140D1*
X1029492Y3821421D2*
X1046736D1*
X1052440Y3823322D1*
X1054385Y3825268D1*
X1056286Y3829070D1*
Y3834818D1*
X1054385Y3838621D1*
X1052440Y3840566D1*
X1046736Y3842468D1*
X1029492D1*
Y3802276D1*
X1070583Y3832873D2*
Y3834774D1*
X1072485Y3838621D1*
X1074386Y3840522D1*
X1078233Y3842423D1*
X1085882D1*
X1089684Y3840522D1*
X1091586Y3838621D1*
X1093531Y3834774D1*
Y3830971D1*
X1091586Y3827125D1*
X1087783Y3821421D1*
X1068638Y3802276D1*
X1095432D1*
X1061743Y3712468D2*
Y3672276D1*
X1048346Y3712468D2*
X1075140D1*
X1087492Y3691421D2*
X1104736D1*
X1110440Y3693322D1*
X1112385Y3695268D1*
X1114286Y3699070D1*
Y3704818D1*
X1112385Y3708621D1*
X1110440Y3710566D1*
X1104736Y3712468D1*
X1087492D1*
Y3672276D1*
X1130485Y3712423D2*
X1151487D1*
X1140035Y3697125D1*
X1145783D1*
X1149586Y3695223D1*
X1151487Y3693322D1*
X1153432Y3687574D1*
Y3683772D1*
X1151487Y3678024D1*
X1147684Y3674177D1*
X1141936Y3672276D1*
X1136188D1*
X1130485Y3674177D1*
X1128583Y3676122D1*
X1126638Y3679925D1*
X1131792Y3623718D2*
Y3583526D1*
X1118395Y3623718D2*
X1145190D1*
X1157541Y3602672D2*
X1174785D1*
X1180489Y3604573D1*
X1182434Y3606518D1*
X1184336Y3610321D1*
Y3616069D1*
X1182434Y3619871D1*
X1180489Y3621817D1*
X1174785Y3623718D1*
X1157541D1*
Y3583526D1*
X1215833D2*
Y3623674D1*
X1196687Y3596924D1*
X1225383D1*
X963569Y1726145D2*
Y1697449D1*
X965470Y1691701D1*
X969317Y1687899D1*
X975065Y1685953D1*
X978867D1*
X984615Y1687899D1*
X988462Y1691701D1*
X990363Y1697449D1*
Y1726145D1*
X1002715Y1718452D2*
X1006561Y1720397D1*
X1012309Y1726101D1*
Y1685953D1*
X948718Y1288645D2*
Y1259949D1*
X950619Y1254201D1*
X954466Y1250399D1*
X960214Y1248453D1*
X964017D1*
X969765Y1250399D1*
X973611Y1254201D1*
X975513Y1259949D1*
Y1288645D1*
X989809Y1279051D2*
Y1280952D1*
X991711Y1284799D1*
X993612Y1286700D1*
X997459Y1288601D1*
X1005108D1*
X1008911Y1286700D1*
X1010812Y1284799D1*
X1012757Y1280952D1*
Y1277149D1*
X1010812Y1273303D1*
X1007009Y1267599D1*
X987864Y1248453D1*
X1014659D1*
X525196Y3838466D2*
Y3809770D1*
X527098Y3804022D1*
X530944Y3800220D1*
X536692Y3798274D1*
X540495D1*
X546243Y3800220D1*
X550090Y3804022D1*
X551991Y3809770D1*
Y3838466D1*
X564342Y3830773D2*
X568189Y3832718D1*
X573937Y3838422D1*
Y3798274D1*
X597785Y3838422D2*
X592037Y3836521D1*
X588190Y3830773D1*
X586289Y3821222D1*
Y3815474D1*
X588190Y3805924D1*
X592037Y3800175D1*
X597785Y3798274D1*
X601587D1*
X607335Y3800175D1*
X611138Y3805924D1*
X613083Y3815474D1*
Y3821222D1*
X611138Y3830773D1*
X607335Y3836521D1*
X601587Y3838422D1*
X597785D1*
X611138Y3830773D2*
X588190Y3805924D1*
X782015Y4659828D2*
D79*
X777206Y4657452D1*
X772453Y4652643D1*
X770021Y4647890D1*
X767644Y4640705D1*
Y4628711D1*
X770021Y4621582D1*
X772453Y4616773D1*
X777206Y4612020D1*
X782015Y4609588D1*
X791576D1*
X796329Y4612020D1*
X801138Y4616773D1*
X803514Y4621582D1*
X805891Y4628711D1*
Y4640705D1*
X803514Y4647890D1*
X801138Y4652643D1*
X796329Y4657452D1*
X791576Y4659828D1*
X782015D1*
X821330Y4643082D2*
Y4609588D1*
Y4628711D2*
X823762Y4635896D1*
X828515Y4640705D1*
X833324Y4643082D1*
X840509D1*
X855948Y4659828D2*
X858325Y4657452D1*
X860756Y4659828D1*
X858325Y4662260D1*
X855948Y4659828D1*
X858325Y4643082D2*
Y4609588D1*
X904881Y4640705D2*
Y4602403D1*
X902504Y4595273D1*
X900127Y4592842D1*
X895319Y4590465D1*
X888134D1*
X883381Y4592842D1*
X904881Y4633520D2*
X900127Y4638273D1*
X895319Y4640705D1*
X888134D1*
X883381Y4638273D1*
X878572Y4633520D1*
X876196Y4626335D1*
Y4621526D1*
X878572Y4614397D1*
X883381Y4609588D1*
X888134Y4607212D1*
X895319D1*
X900127Y4609588D1*
X904881Y4614397D1*
X920320Y4659828D2*
X922696Y4657452D1*
X925128Y4659828D1*
X922696Y4662260D1*
X920320Y4659828D1*
X922696Y4643082D2*
Y4609588D1*
X940568Y4643082D2*
Y4609588D1*
Y4633520D2*
X947753Y4640705D1*
X952561Y4643082D1*
X959691D1*
X964499Y4640705D1*
X966876Y4633520D1*
Y4609588D1*
X1011000Y4643082D2*
Y4609588D1*
Y4635896D2*
X1006247Y4640705D1*
X1001438Y4643082D1*
X994309D1*
X989500Y4640705D1*
X984747Y4635896D1*
X982315Y4628711D1*
Y4623958D1*
X984747Y4616773D1*
X989500Y4612020D1*
X994309Y4609588D1*
X1001438D1*
X1006247Y4612020D1*
X1011000Y4616773D1*
X1026439Y4659828D2*
Y4609588D1*
X1090479Y4643082D2*
X1100041Y4609588D1*
X1109603Y4643082D1*
X1119164Y4609588D1*
X1128726Y4643082D1*
X1172850D2*
Y4609588D1*
Y4635896D2*
X1168097Y4640705D1*
X1163288Y4643082D1*
X1156159D1*
X1151350Y4640705D1*
X1146597Y4635896D1*
X1144165Y4628711D1*
Y4623958D1*
X1146597Y4616773D1*
X1151350Y4612020D1*
X1156159Y4609588D1*
X1163288D1*
X1168097Y4612020D1*
X1172850Y4616773D1*
X1188289Y4643082D2*
Y4609588D1*
Y4628711D2*
X1190721Y4635896D1*
X1195474Y4640705D1*
X1200283Y4643082D1*
X1207468D1*
X1222907D2*
Y4592842D1*
Y4635896D2*
X1227716Y4640650D1*
X1232469Y4643082D1*
X1239654D1*
X1244462Y4640650D1*
X1249215Y4635896D1*
X1251647Y4628711D1*
Y4623903D1*
X1249215Y4616773D1*
X1244462Y4611965D1*
X1239654Y4609588D1*
X1232469D1*
X1227716Y4611965D1*
X1222907Y4616773D1*
X1293395Y4635896D2*
X1291018Y4640705D1*
X1283833Y4643082D1*
X1276648D1*
X1269463Y4640705D1*
X1267087Y4635896D1*
X1269463Y4631143D1*
X1274272Y4628711D1*
X1286210Y4626335D1*
X1291018Y4623958D1*
X1293395Y4619150D1*
Y4616773D1*
X1291018Y4612020D1*
X1283833Y4609588D1*
X1276648D1*
X1269463Y4612020D1*
X1267087Y4616773D1*
X1357435Y4659828D2*
Y4609588D1*
Y4635896D2*
X1362243Y4640705D1*
X1366997Y4643082D1*
X1374182D1*
X1378935Y4640705D1*
X1383743Y4635896D1*
X1386120Y4628711D1*
Y4623958D1*
X1383743Y4616773D1*
X1378935Y4612020D1*
X1374182Y4609588D1*
X1366997D1*
X1362243Y4612020D1*
X1357435Y4616773D1*
X1403991Y4643082D2*
X1418306Y4609588D1*
X1413553Y4600027D1*
X1408744Y4595218D1*
X1403991Y4592842D1*
X1401559D1*
X1432676Y4643082D2*
X1418306Y4609588D1*
X1450547Y4643082D2*
X1448115Y4640650D1*
X1450547Y4638273D1*
X1452924Y4640650D1*
X1450547Y4643082D1*
Y4614397D2*
X1448115Y4611965D1*
X1450547Y4609588D1*
X1452924Y4611965D1*
X1450547Y4614397D1*
X1101630Y4564721D2*
D80*
X1095860Y4561869D1*
X1090156Y4556099D1*
X1087238Y4550395D1*
X1084386Y4541773D1*
Y4527381D1*
X1087238Y4518825D1*
X1090156Y4513055D1*
X1095860Y4507351D1*
X1101630Y4504433D1*
X1113104D1*
X1118808Y4507351D1*
X1124578Y4513055D1*
X1127430Y4518825D1*
X1130282Y4527381D1*
Y4541773D1*
X1127430Y4550395D1*
X1124578Y4556099D1*
X1118808Y4561869D1*
X1113104Y4564721D1*
X1101630D1*
X1148809D2*
Y4504433D1*
X1167336Y4564721D2*
X1170188Y4561869D1*
X1173106Y4564721D1*
X1170188Y4567639D1*
X1167336Y4564721D1*
X1170188Y4544625D2*
Y4504433D1*
X1191633Y4544625D2*
X1208877Y4504433D1*
X1226055Y4544625D1*
X1244582Y4564721D2*
X1247434Y4561869D1*
X1250352Y4564721D1*
X1247434Y4567639D1*
X1244582Y4564721D1*
X1247434Y4544625D2*
Y4504433D1*
X1268879Y4527381D2*
X1303301D1*
Y4533151D1*
X1300449Y4538921D1*
X1297597Y4541773D1*
X1291827Y4544625D1*
X1283205D1*
X1277501Y4541773D1*
X1271731Y4536003D1*
X1268879Y4527381D1*
Y4521677D1*
X1271731Y4513055D1*
X1277501Y4507351D1*
X1283205Y4504433D1*
X1291827D1*
X1297597Y4507351D1*
X1303301Y4513055D1*
X1321828Y4544625D2*
Y4504433D1*
Y4527381D2*
X1324746Y4536003D1*
X1330450Y4541773D1*
X1336220Y4544625D1*
X1344842D1*
X1282720Y4448986D2*
X1279868Y4454690D1*
X1274098Y4460460D1*
X1268394Y4463312D1*
X1256920D1*
X1251150Y4460460D1*
X1245446Y4454690D1*
X1242528Y4448986D1*
X1239676Y4440364D1*
Y4425972D1*
X1242528Y4417416D1*
X1245446Y4411646D1*
X1251150Y4405942D1*
X1256920Y4403024D1*
X1268394D1*
X1274098Y4405942D1*
X1279868Y4411646D1*
X1282720Y4417416D1*
Y4425972D1*
X1268394D1*
X1301247Y4463312D2*
X1304099Y4460460D1*
X1307017Y4463312D1*
X1304099Y4466230D1*
X1301247Y4463312D1*
X1304099Y4443216D2*
Y4403024D1*
X1325544Y4463312D2*
Y4403024D1*
X1344071Y4425972D2*
X1378493D1*
Y4431742D1*
X1375641Y4437512D1*
X1372789Y4440364D1*
X1367019Y4443216D1*
X1358397D1*
X1352693Y4440364D1*
X1346923Y4434594D1*
X1344071Y4425972D1*
Y4420268D1*
X1346923Y4411646D1*
X1352693Y4405942D1*
X1358397Y4403024D1*
X1367019D1*
X1372789Y4405942D1*
X1378493Y4411646D1*
X1405642Y4463312D2*
Y4414498D1*
X1408494Y4405942D1*
X1414264Y4403024D1*
X1419968D1*
X1397020Y4443216D2*
X1417116D1*
X446289Y2347875D2*
X440585Y2345023D1*
X434815Y2339253D1*
X431963Y2333549D1*
Y2322075D1*
X434815Y2316305D1*
X440585Y2310601D1*
X446288Y2307683D1*
X454911Y2304831D1*
X469303D1*
X477858Y2307683D1*
X483629Y2310601D1*
X489332Y2316305D1*
X492251Y2322075D1*
Y2333549D1*
X489332Y2339252D1*
X483629Y2345023D1*
X477858Y2347875D1*
X446289Y2409446D2*
X440585Y2406594D1*
X434815Y2400823D1*
X431963Y2395120D1*
Y2383646D1*
X434815Y2377876D1*
X440585Y2372172D1*
X446289Y2369254D1*
X454911Y2366402D1*
X469303D1*
X477858Y2369254D1*
X483629Y2372172D1*
X489332Y2377876D1*
X492251Y2383646D1*
Y2395120D1*
X489332Y2400823D1*
X483629Y2406594D1*
X477858Y2409445D1*
X431963Y2486294D2*
X492251D1*
Y2512160D1*
X489332Y2520782D1*
X486480Y2523634D1*
X480777Y2526486D1*
X472155D1*
X466384Y2523634D1*
X463533Y2520782D1*
X460681Y2512160D1*
X457762Y2520782D1*
X454911Y2523634D1*
X449207Y2526486D1*
X443437D1*
X437733Y2523634D1*
X434815Y2520782D1*
X431963Y2512160D1*
Y2486294D1*
X460681D2*
Y2512160D1*
X431963Y2545013D2*
X460681Y2567961D1*
X492251D1*
X431963Y2590909D2*
X460681Y2567961D1*
X440585Y2707949D2*
X434815Y2702245D1*
X431963Y2693623D1*
Y2682149D1*
X434815Y2673527D1*
X440585Y2667757D1*
X446288D1*
X452059Y2670675D1*
X454911Y2673527D1*
X457762Y2679231D1*
X463533Y2696475D1*
X466384Y2702245D1*
X469303Y2705097D1*
X475007Y2707949D1*
X483629D1*
X489332Y2702245D1*
X492251Y2693623D1*
Y2682149D1*
X489332Y2673527D1*
X483629Y2667757D1*
X492251Y2772438D2*
X431963Y2749424D1*
X492251Y2726476D1*
X472155Y2735098D2*
Y2763816D1*
X432029Y2855057D2*
Y2886560D1*
X454977Y2869382D1*
Y2878004D1*
X457829Y2883708D1*
X460681Y2886560D1*
X469303Y2889478D1*
X475007D1*
X483629Y2886560D1*
X489399Y2880856D1*
X492251Y2872234D1*
Y2863612D1*
X489399Y2855057D1*
X486480Y2852205D1*
X480777Y2849286D1*
X486480Y2910857D2*
X489399Y2908006D1*
X492251Y2910857D1*
X489399Y2913776D1*
X486480Y2910857D1*
X432029Y2949547D2*
X434881Y2940925D1*
X443503Y2935155D1*
X457829Y2932303D1*
X466451D1*
X480777Y2935155D1*
X489399Y2940925D1*
X492251Y2949547D1*
Y2955251D1*
X489399Y2963873D1*
X480777Y2969577D1*
X466451Y2972495D1*
X457829D1*
X443503Y2969577D1*
X434881Y2963873D1*
X432029Y2955251D1*
Y2949547D1*
X443503Y2969577D2*
X480777Y2935155D1*
M02*
