G04 DipTrace 3.2.0.1*
G04 Mwarp.GBP*
%MOIN*%
G04 #@! TF.FileFunction,Paste,Bot*
G04 #@! TF.Part,Single*
%AMOUTLINE2*
4,1,4,
0.027496,-0.054071,
-0.027496,-0.054071,
-0.027496,0.054071,
0.027496,0.054071,
0.027496,-0.054071,
0*%
%AMOUTLINE5*
4,1,4,
0.023559,0.055055,
0.023559,-0.055055,
-0.023559,-0.055055,
-0.023559,0.055055,
0.023559,0.055055,
0*%
%AMOUTLINE8*
4,1,4,
-0.023559,-0.055055,
-0.023559,0.055055,
0.023559,0.055055,
0.023559,-0.055055,
-0.023559,-0.055055,
0*%
%AMOUTLINE11*
4,1,4,
-0.015685,0.017654,
0.015685,0.017654,
0.015685,-0.017654,
-0.015685,-0.017654,
-0.015685,0.017654,
0*%
%AMOUTLINE14*
4,1,4,
-0.017654,-0.015685,
-0.017654,0.015685,
0.017654,0.015685,
0.017654,-0.015685,
-0.017654,-0.015685,
0*%
%AMOUTLINE17*
4,1,4,
0.017654,0.015685,
0.017654,-0.015685,
-0.017654,-0.015685,
-0.017654,0.015685,
0.017654,0.015685,
0*%
%AMOUTLINE20*
4,1,4,
0.015685,-0.017654,
-0.015685,-0.017654,
-0.015685,0.017654,
0.015685,0.017654,
0.015685,-0.017654,
0*%
%AMOUTLINE23*
4,1,4,
0.025528,-0.021591,
-0.025528,-0.021591,
-0.025528,0.021591,
0.025528,0.021591,
0.025528,-0.021591,
0*%
%AMOUTLINE26*
4,1,4,
0.025528,0.03537,
0.025528,-0.03537,
-0.025528,-0.03537,
-0.025528,0.03537,
0.025528,0.03537,
0*%
%AMOUTLINE74*
4,1,4,
-0.043244,-0.03537,
-0.043244,0.03537,
0.043244,0.03537,
0.043244,-0.03537,
-0.043244,-0.03537,
0*%
%ADD53R,0.049087X0.015622*%
%ADD55R,0.049087X0.023496*%
%ADD65R,0.051055X0.043181*%
%ADD67R,0.03137X0.035307*%
%ADD83OUTLINE2*%
%ADD86OUTLINE5*%
%ADD89OUTLINE8*%
%ADD92OUTLINE11*%
%ADD95OUTLINE14*%
%ADD98OUTLINE17*%
%ADD101OUTLINE20*%
%ADD104OUTLINE23*%
%ADD107OUTLINE26*%
%ADD155OUTLINE74*%
%FSLAX26Y26*%
G04*
G70*
G90*
G75*
G01*
G04 BotPaste*
%LPD*%
D83*
X1437889Y2452554D3*
Y2275389D3*
D86*
X1387152Y4588628D3*
Y4399652D3*
D83*
X1437889Y2102554D3*
Y1925389D3*
D89*
X1387889Y4023913D3*
Y4212889D3*
D92*
X569889Y3602140D3*
Y3669069D3*
D67*
X506640Y3512889D3*
Y3445960D3*
X822425Y3746675D3*
Y3813604D3*
D101*
X1097889Y3440140D3*
Y3507069D3*
D104*
X669140Y3150194D3*
Y3075390D3*
D101*
X605354Y3424675D3*
Y3491604D3*
D67*
X791889Y3282140D3*
Y3349069D3*
D65*
X1055889Y3346140D3*
Y3271337D3*
D107*
X895889Y2782140D3*
Y2679778D3*
D67*
X885889Y2930140D3*
Y2997069D3*
D95*
X1073569Y3012889D3*
X1006640D3*
D101*
X599889Y2974140D3*
Y2907211D3*
X673889Y2888140D3*
Y2821211D3*
D107*
X575389Y2594140D3*
Y2491778D3*
D101*
Y2750389D3*
Y2817318D3*
D107*
X806640Y2587890D3*
Y2485528D3*
D98*
X1081640Y2662889D3*
X1014711D3*
D101*
X1003889Y2582140D3*
Y2515211D3*
D155*
X1044140Y2925390D3*
Y2765115D3*
D55*
X1047928Y4285478D3*
D53*
Y4244140D3*
D55*
Y4202801D3*
X927850D3*
D53*
Y4244140D3*
D55*
Y4285478D3*
M02*
