G04 DipTrace 3.2.0.1*
G04 Mwarp.GBO*
%MOIN*%
G04 #@! TF.FileFunction,Legend,Bot*
G04 #@! TF.Part,Single*
%ADD10C,0.009843*%
%ADD16C,0.008*%
%ADD20C,0.006*%
%ADD25C,0.005984*%
%ADD28C,0.02362*%
%ADD29C,0.000013*%
%ADD30C,0.004*%
%ADD34C,0.005*%
%ADD78C,0.006176*%
%FSLAX26Y26*%
G04*
G70*
G90*
G75*
G01*
G04 BotSilk*
%LPD*%
X1220222Y3968533D2*
D10*
X629665D1*
Y4519746D1*
X1220222D1*
Y3968533D1*
X846237Y4244172D2*
G02X846237Y4244172I137797J0D01*
G01*
X552854Y1112768D2*
D20*
X622889D1*
X587889Y1147715D2*
Y1077772D1*
X637904Y937885D2*
X762889D1*
X537874D2*
X412889D1*
X537874Y1337894D2*
X412889D1*
X637904D2*
X762889D1*
Y937885D1*
X412889D2*
Y1337894D1*
X537874Y937885D2*
D25*
Y925411D1*
X637904D1*
Y937885D1*
X622924Y638010D2*
D20*
X552889D1*
X587889Y603063D2*
Y673007D1*
X537874Y812894D2*
X412889D1*
X637904D2*
X762889D1*
X637904Y412884D2*
X762889D1*
X537874D2*
X412889D1*
Y812894D1*
X762889D2*
Y412884D1*
X637904Y812894D2*
D25*
Y825368D1*
X537874D1*
Y812894D1*
X1333558Y2259642D2*
D10*
X1388687D1*
X1333558D2*
Y2434835D1*
X1367028Y2468301D2*
X1333558Y2434835D1*
X1367028Y2468301D2*
X1388687D1*
X1487091Y2259642D2*
X1542220D1*
Y2434835D1*
X1508750Y2468301D2*
X1542220Y2434835D1*
X1487091Y2468301D2*
X1508750D1*
D28*
X1380799Y2493892D3*
X1265110Y4494140D2*
D29*
G02X1265110Y4494140I122041J0D01*
G01*
X1424565Y4366177D2*
D30*
X1515104D1*
Y4555158D1*
X1448185Y4622103D1*
X1424565D1*
X1349738D2*
X1326118D1*
X1259199Y4555158D1*
Y4366177D1*
X1349738D1*
X1424565Y4378000D2*
G03X1424565Y4610280I-37416J116140D01*
G01*
X1349738Y4378000D2*
G02X1349738Y4610280I37416J116140D01*
G01*
X1333558Y1909642D2*
D10*
X1388687D1*
X1333558D2*
Y2084835D1*
X1367028Y2118301D2*
X1333558Y2084835D1*
X1367028Y2118301D2*
X1388687D1*
X1487091Y1909642D2*
X1542220D1*
Y2084835D1*
X1508750Y2118301D2*
X1542220Y2084835D1*
X1487091Y2118301D2*
X1508750D1*
D28*
X1380799Y2143892D3*
X1265848Y4118401D2*
D29*
G02X1265848Y4118401I122041J0D01*
G01*
X1350476Y4246364D2*
D30*
X1259936D1*
Y4057383D1*
X1326856Y3990438D1*
X1350476D1*
X1425302D2*
X1448923D1*
X1515842Y4057383D1*
Y4246364D1*
X1425302D1*
X1350476Y4234541D2*
G03X1350476Y4002261I37416J-116140D01*
G01*
X1425302Y4234541D2*
G02X1425302Y4002261I-37416J-116140D01*
G01*
X694711Y3191553D2*
D10*
X643569D1*
X1081460Y3387499D2*
X1030318D1*
X838806Y2730959D2*
D29*
G02X838806Y2730959I57083J0D01*
G01*
X933294Y2687657D2*
D30*
G03X933294Y2774260I-37399J43302D01*
G01*
X858484Y2687657D2*
G02X860462Y2776234I37384J43476D01*
G01*
X933294Y2667971D2*
X958881D1*
Y2762452D1*
X931316Y2790016D1*
X860462D2*
X832897Y2762452D1*
Y2667971D1*
X858484D1*
X518306Y2542959D2*
D29*
G02X518306Y2542959I57083J0D01*
G01*
X612794Y2499657D2*
D30*
G03X612794Y2586260I-37399J43302D01*
G01*
X537984Y2499657D2*
G02X539962Y2588234I37384J43476D01*
G01*
X612794Y2479971D2*
X638381D1*
Y2574452D1*
X610816Y2602016D1*
X539962D2*
X512397Y2574452D1*
Y2479971D1*
X537984D1*
X749556Y2536709D2*
D29*
G02X749556Y2536709I57083J0D01*
G01*
X844044Y2493408D2*
D30*
G03X844044Y2580011I-37399J43302D01*
G01*
X769235Y2493408D2*
G02X771213Y2581985I37384J43476D01*
G01*
X844044Y2473722D2*
X869632D1*
Y2568203D1*
X842066Y2595767D1*
X771213D2*
X743648Y2568203D1*
Y2473722D1*
X769235D1*
X1352854Y1112519D2*
D20*
X1422889D1*
X1387889Y1147466D2*
Y1077522D1*
X1437904Y937635D2*
X1562889D1*
X1337874D2*
X1212889D1*
X1337874Y1337645D2*
X1212889D1*
X1437904D2*
X1562889D1*
Y937635D1*
X1212889D2*
Y1337645D1*
X1337874Y937635D2*
D25*
Y925161D1*
X1437904D1*
Y937635D1*
X952854Y1112768D2*
D20*
X1022889D1*
X987889Y1147715D2*
Y1077772D1*
X1037904Y937885D2*
X1162889D1*
X937874D2*
X812889D1*
X937874Y1337894D2*
X812889D1*
X1037904D2*
X1162889D1*
Y937885D1*
X812889D2*
Y1337894D1*
X937874Y937885D2*
D25*
Y925411D1*
X1037904D1*
Y937885D1*
X1184196Y2694140D2*
D29*
G02X1184196Y2694140I51182J0D01*
G01*
X1285378Y2744149D2*
D34*
G03X1285378Y2644131I-49995J-50009D01*
G01*
Y2744149D2*
Y2644131D1*
X1272501Y2389083D2*
D10*
X918277D1*
Y1942207D1*
X1272501D1*
Y2389083D1*
X957616Y2198143D2*
G02X957616Y2198143I137751J0D01*
G01*
X821501Y2389083D2*
X467277D1*
Y1942207D1*
X821501D1*
Y2389083D1*
X506616Y2198143D2*
G02X506616Y2198143I137751J0D01*
G01*
X1022924Y1594261D2*
D20*
X952889D1*
X987889Y1559314D2*
Y1629257D1*
X937874Y1769144D2*
X812889D1*
X1037904D2*
X1162889D1*
X1037904Y1369135D2*
X1162889D1*
X937874D2*
X812889D1*
Y1769144D1*
X1162889D2*
Y1369135D1*
X1037904Y1769144D2*
D25*
Y1781618D1*
X937874D1*
Y1769144D1*
X622924Y1594261D2*
D20*
X552889D1*
X587889Y1559314D2*
Y1629257D1*
X537874Y1769144D2*
X412889D1*
X637904D2*
X762889D1*
X637904Y1369135D2*
X762889D1*
X537874D2*
X412889D1*
Y1769144D1*
X762889D2*
Y1369135D1*
X637904Y1769144D2*
D25*
Y1781618D1*
X537874D1*
Y1769144D1*
X1422924Y638010D2*
D20*
X1352889D1*
X1387889Y603063D2*
Y673007D1*
X1337874Y812894D2*
X1212889D1*
X1437904D2*
X1562889D1*
X1437904Y412884D2*
X1562889D1*
X1337874D2*
X1212889D1*
Y812894D1*
X1562889D2*
Y412884D1*
X1437904Y812894D2*
D25*
Y825368D1*
X1337874D1*
Y812894D1*
X1022924Y638010D2*
D20*
X952889D1*
X987889Y603063D2*
Y673007D1*
X937874Y812894D2*
X812889D1*
X1037904D2*
X1162889D1*
X1037904Y412884D2*
X1162889D1*
X937874D2*
X812889D1*
Y812894D1*
X1162889D2*
Y412884D1*
X1037904Y812894D2*
D25*
Y825368D1*
X937874D1*
Y812894D1*
X1482154Y3385405D2*
D10*
X1127931D1*
Y2938528D1*
X1482154D1*
Y3385405D1*
X1167269Y3194464D2*
G02X1167269Y3194464I137751J0D01*
G01*
X1422924Y1594261D2*
D20*
X1352889D1*
X1387889Y1559314D2*
Y1629257D1*
X1337874Y1769144D2*
X1212889D1*
X1437904D2*
X1562889D1*
X1437904Y1369135D2*
X1562889D1*
X1337874D2*
X1212889D1*
Y1769144D1*
X1562889D2*
Y1369135D1*
X1437904Y1769144D2*
D25*
Y1781618D1*
X1337874D1*
Y1769144D1*
X1107132Y2884618D2*
D10*
X981148D1*
X1107132Y2805887D2*
X981148D1*
X1094143Y2826490D2*
X994137D1*
Y2863991D1*
X1094143D1*
Y2826490D2*
Y2863991D1*
X1107132Y2943655D2*
Y2904289D1*
X981148D2*
Y2943655D1*
Y2786168D2*
Y2746802D1*
X1107132D2*
Y2786168D1*
Y2746802D2*
X1095315D1*
X1107132Y2943655D2*
X1095315D1*
X981148Y2746802D2*
X992965D1*
X981148Y2943655D2*
X992965D1*
X1352134Y2695640D2*
D29*
G02X1352134Y2695640I70006J0D01*
G01*
X1542142Y2780648D2*
D16*
Y2610632D1*
X1302137D2*
Y2780648D1*
X1461427Y2815628D2*
X1382147D1*
X1462611Y2575652D2*
X1382147D1*
X1050393Y4306640D2*
D10*
X925385D1*
Y4181640D1*
X1050393D1*
Y4306640D1*
G36*
X1012887D2*
Y4262890D1*
X975381Y4306640D1*
D1*
X1012887D1*
G37*
X892179Y4582999D2*
D78*
X907522Y4623191D1*
X922820Y4582999D1*
X917072Y4596396D2*
X897927D1*
X879827Y4623191D2*
Y4582999D1*
X856879D1*
X815832Y4613640D2*
X817733Y4617443D1*
X821580Y4621289D1*
X825383Y4623191D1*
X833032D1*
X836879Y4621289D1*
X840681Y4617443D1*
X842627Y4613640D1*
X844528Y4607892D1*
Y4598297D1*
X842627Y4592593D1*
X840681Y4588747D1*
X836879Y4584944D1*
X833032Y4582999D1*
X825383D1*
X821580Y4584944D1*
X817733Y4588747D1*
X815832Y4592593D1*
Y4598297D1*
X825383D1*
X644716Y1206776D2*
X660059Y1246968D1*
X675357Y1206776D1*
X669609Y1220173D2*
X650464D1*
X632365Y1246968D2*
Y1206776D1*
X609417D1*
X568369Y1237417D2*
X570271Y1241219D1*
X574117Y1245066D1*
X577920Y1246968D1*
X585569D1*
X589416Y1245066D1*
X593219Y1241219D1*
X595164Y1237417D1*
X597065Y1231669D1*
Y1222074D1*
X595164Y1216370D1*
X593219Y1212524D1*
X589416Y1208721D1*
X585569Y1206776D1*
X577920D1*
X574117Y1208721D1*
X570271Y1212524D1*
X568369Y1216370D1*
Y1222074D1*
X577920D1*
X544522Y1246968D2*
X548369Y1245066D1*
X552171Y1241219D1*
X554117Y1237417D1*
X556018Y1231669D1*
Y1222074D1*
X554117Y1216370D1*
X552171Y1212524D1*
X548369Y1208721D1*
X544522Y1206776D1*
X536873D1*
X533070Y1208721D1*
X529223Y1212524D1*
X527322Y1216370D1*
X525421Y1222074D1*
Y1231669D1*
X527322Y1237417D1*
X529223Y1241219D1*
X533070Y1245066D1*
X536873Y1246968D1*
X544522D1*
X684835Y653276D2*
X700178Y693468D1*
X715476Y653276D1*
X709728Y666673D2*
X690583D1*
X672483Y693468D2*
Y664772D1*
X670582Y659024D1*
X666735Y655221D1*
X660987Y653276D1*
X657185D1*
X651437Y655221D1*
X647590Y659024D1*
X645689Y664772D1*
Y693468D1*
X633337D2*
X606543Y653276D1*
Y693468D2*
X633337Y653276D1*
X582695Y693468D2*
X586542Y691566D1*
X590345Y687719D1*
X592290Y683917D1*
X594191Y678169D1*
Y668574D1*
X592290Y662870D1*
X590345Y659024D1*
X586542Y655221D1*
X582695Y653276D1*
X575046D1*
X571243Y655221D1*
X567397Y659024D1*
X565495Y662870D1*
X563594Y668574D1*
Y678169D1*
X565495Y683917D1*
X567397Y687719D1*
X571243Y691566D1*
X575046Y693468D1*
X582695D1*
X551243D2*
Y664772D1*
X549341Y659024D1*
X545495Y655221D1*
X539747Y653276D1*
X535944D1*
X530196Y655221D1*
X526349Y659024D1*
X524448Y664772D1*
Y693468D1*
X498699D2*
Y653276D1*
X512097Y693468D2*
X485302D1*
X1300514Y2483653D2*
X1302415Y2487456D1*
X1306262Y2491302D1*
X1310065Y2493204D1*
X1317714D1*
X1321561Y2491302D1*
X1325363Y2487456D1*
X1327309Y2483653D1*
X1329210Y2477905D1*
Y2468310D1*
X1327309Y2462607D1*
X1325363Y2458760D1*
X1321561Y2454957D1*
X1317714Y2453012D1*
X1310065D1*
X1306262Y2454957D1*
X1302415Y2458760D1*
X1300514Y2462607D1*
X1288163Y2485510D2*
X1284316Y2487456D1*
X1278568Y2493160D1*
Y2453012D1*
X1236377Y4648711D2*
X1238278Y4652513D1*
X1242125Y4656360D1*
X1245927Y4658261D1*
X1253576D1*
X1257423Y4656360D1*
X1261226Y4652513D1*
X1263171Y4648711D1*
X1265073Y4642963D1*
Y4633368D1*
X1263171Y4627664D1*
X1261226Y4623818D1*
X1257423Y4620015D1*
X1253576Y4618069D1*
X1245927D1*
X1242125Y4620015D1*
X1238278Y4623818D1*
X1236377Y4627664D1*
X1222080Y4648667D2*
Y4650568D1*
X1220178Y4654415D1*
X1218277Y4656316D1*
X1214430Y4658217D1*
X1206781D1*
X1202979Y4656316D1*
X1201077Y4654415D1*
X1199132Y4650568D1*
Y4646765D1*
X1201077Y4642919D1*
X1204880Y4637215D1*
X1224025Y4618069D1*
X1197231D1*
X1521114Y2181653D2*
X1523015Y2185456D1*
X1526862Y2189302D1*
X1530665Y2191204D1*
X1538314D1*
X1542161Y2189302D1*
X1545963Y2185456D1*
X1547909Y2181653D1*
X1549810Y2175905D1*
Y2166310D1*
X1547909Y2160607D1*
X1545963Y2156760D1*
X1542161Y2152957D1*
X1538314Y2151012D1*
X1530665D1*
X1526862Y2152957D1*
X1523015Y2156760D1*
X1521114Y2160607D1*
X1504916Y2191160D2*
X1483914D1*
X1495365Y2175861D1*
X1489617D1*
X1485815Y2173960D1*
X1483914Y2172058D1*
X1481968Y2166310D1*
Y2162508D1*
X1483914Y2156760D1*
X1487716Y2152913D1*
X1493464Y2151012D1*
X1499212D1*
X1504916Y2152913D1*
X1506817Y2154859D1*
X1508763Y2158661D1*
X1276065Y3968972D2*
X1277966Y3972775D1*
X1281813Y3976621D1*
X1285615Y3978523D1*
X1293265D1*
X1297111Y3976621D1*
X1300914Y3972775D1*
X1302859Y3968972D1*
X1304761Y3963224D1*
Y3953629D1*
X1302859Y3947925D1*
X1300914Y3944079D1*
X1297111Y3940276D1*
X1293265Y3938331D1*
X1285615D1*
X1281813Y3940276D1*
X1277966Y3944079D1*
X1276065Y3947925D1*
X1244568Y3938331D2*
Y3978478D1*
X1263713Y3951728D1*
X1235017D1*
X501176Y3651802D2*
X497374Y3653704D1*
X493527Y3657551D1*
X491626Y3661353D1*
Y3669002D1*
X493527Y3672849D1*
X497374Y3676652D1*
X501176Y3678597D1*
X506924Y3680498D1*
X516519D1*
X522223Y3678597D1*
X526070Y3676652D1*
X529872Y3672849D1*
X531818Y3669002D1*
Y3661353D1*
X529872Y3657550D1*
X526070Y3653704D1*
X522223Y3651802D1*
X499319Y3639451D2*
X497374Y3635604D1*
X491670Y3629856D1*
X531818D1*
X491670Y3594557D2*
Y3613658D1*
X508870Y3615559D1*
X506968Y3613658D1*
X505023Y3607910D1*
Y3602206D1*
X506968Y3596458D1*
X510771Y3592612D1*
X516519Y3590710D1*
X520322D1*
X526070Y3592612D1*
X529916Y3596458D1*
X531818Y3602206D1*
Y3607910D1*
X529916Y3613658D1*
X527971Y3615559D1*
X524168Y3617505D1*
X437927Y3494650D2*
X434124Y3496551D1*
X430278Y3500398D1*
X428376Y3504201D1*
Y3511850D1*
X430278Y3515697D1*
X434124Y3519499D1*
X437927Y3521445D1*
X443675Y3523346D1*
X453270D1*
X458973Y3521445D1*
X462820Y3519499D1*
X466623Y3515697D1*
X468568Y3511850D1*
Y3504200D1*
X466623Y3500398D1*
X462820Y3496551D1*
X458973Y3494650D1*
X436070Y3482299D2*
X434124Y3478452D1*
X428421Y3472704D1*
X468568D1*
X434124Y3437405D2*
X430322Y3439306D1*
X428420Y3445054D1*
Y3448856D1*
X430322Y3454604D1*
X436070Y3458451D1*
X445620Y3460352D1*
X455171D1*
X462820Y3458451D1*
X466667Y3454604D1*
X468568Y3448856D1*
Y3446955D1*
X466667Y3441251D1*
X462820Y3437405D1*
X457072Y3435503D1*
X455171D1*
X449423Y3437405D1*
X445620Y3441251D1*
X443719Y3446955D1*
Y3448856D1*
X445620Y3454604D1*
X449423Y3458451D1*
X455171Y3460352D1*
X753712Y3796338D2*
X749909Y3798239D1*
X746062Y3802086D1*
X744161Y3805889D1*
Y3813538D1*
X746062Y3817385D1*
X749909Y3821187D1*
X753712Y3823133D1*
X759460Y3825034D1*
X769054D1*
X774758Y3823133D1*
X778605Y3821187D1*
X782408Y3817385D1*
X784353Y3813538D1*
Y3805888D1*
X782408Y3802086D1*
X778605Y3798239D1*
X774758Y3796338D1*
X751855Y3783987D2*
X749909Y3780140D1*
X744205Y3774392D1*
X784353D1*
Y3754391D2*
X744205Y3735246D1*
Y3762040D1*
X1029176Y3489780D2*
X1025374Y3491682D1*
X1021527Y3495528D1*
X1019626Y3499331D1*
Y3506980D1*
X1021527Y3510827D1*
X1025374Y3514630D1*
X1029176Y3516575D1*
X1034924Y3518476D1*
X1044519D1*
X1050223Y3516575D1*
X1054070Y3514630D1*
X1057872Y3510827D1*
X1059818Y3506980D1*
Y3499331D1*
X1057872Y3495528D1*
X1054070Y3491682D1*
X1050223Y3489780D1*
X1027319Y3477429D2*
X1025374Y3473582D1*
X1019670Y3467834D1*
X1059818D1*
X1019670Y3445932D2*
X1021571Y3451636D1*
X1025374Y3453582D1*
X1029220D1*
X1033023Y3451636D1*
X1034968Y3447834D1*
X1036870Y3440184D1*
X1038771Y3434436D1*
X1042618Y3430634D1*
X1046420Y3428732D1*
X1052168D1*
X1055971Y3430634D1*
X1057916Y3432535D1*
X1059818Y3438283D1*
Y3445932D1*
X1057916Y3451636D1*
X1055971Y3453582D1*
X1052168Y3455483D1*
X1046420D1*
X1042618Y3453582D1*
X1038771Y3449735D1*
X1036870Y3444031D1*
X1034968Y3436382D1*
X1033023Y3432535D1*
X1029220Y3430634D1*
X1025374D1*
X1021571Y3432535D1*
X1019670Y3438283D1*
Y3445932D1*
X590584Y3135924D2*
X586782Y3137825D1*
X582935Y3141672D1*
X581034Y3145475D1*
Y3153124D1*
X582935Y3156971D1*
X586782Y3160773D1*
X590584Y3162719D1*
X596332Y3164620D1*
X605927D1*
X611631Y3162719D1*
X615478Y3160773D1*
X619280Y3156971D1*
X621226Y3153124D1*
Y3145475D1*
X619280Y3141672D1*
X615478Y3137825D1*
X611631Y3135924D1*
X588727Y3123573D2*
X586782Y3119726D1*
X581078Y3113978D1*
X621226D1*
X594431Y3076733D2*
X600179Y3078679D1*
X604026Y3082481D1*
X605927Y3088229D1*
Y3090130D1*
X604026Y3095878D1*
X600179Y3099681D1*
X594431Y3101627D1*
X592530D1*
X586782Y3099681D1*
X582979Y3095878D1*
X581078Y3090130D1*
Y3088229D1*
X582979Y3082481D1*
X586782Y3078679D1*
X594431Y3076733D1*
X604026D1*
X613576Y3078679D1*
X619324Y3082481D1*
X621226Y3088229D1*
Y3092032D1*
X619325Y3097780D1*
X615478Y3099681D1*
X652641Y3486938D2*
X648838Y3488839D1*
X644991Y3492686D1*
X643090Y3496488D1*
Y3504138D1*
X644991Y3507984D1*
X648838Y3511787D1*
X652641Y3513733D1*
X658389Y3515634D1*
X667984D1*
X673687Y3513732D1*
X677534Y3511787D1*
X681337Y3507984D1*
X683282Y3504138D1*
Y3496488D1*
X681337Y3492686D1*
X677534Y3488839D1*
X673687Y3486938D1*
X652685Y3472641D2*
X650784D1*
X646937Y3470740D1*
X645036Y3468838D1*
X643134Y3464992D1*
Y3457342D1*
X645036Y3453540D1*
X646937Y3451639D1*
X650784Y3449693D1*
X654586D1*
X658433Y3451639D1*
X664137Y3455441D1*
X683282Y3474586D1*
Y3447792D1*
X643134Y3423944D2*
X645036Y3429692D1*
X650784Y3433539D1*
X660334Y3435440D1*
X666082D1*
X675633Y3433539D1*
X681381Y3429692D1*
X683282Y3423944D1*
Y3420142D1*
X681381Y3414394D1*
X675633Y3410591D1*
X666082Y3408646D1*
X660334D1*
X650784Y3410591D1*
X645036Y3414394D1*
X643134Y3420142D1*
Y3423944D1*
X650784Y3410591D2*
X675633Y3433539D1*
X723176Y3331802D2*
X719374Y3333704D1*
X715527Y3337551D1*
X713626Y3341353D1*
Y3349002D1*
X715527Y3352849D1*
X719374Y3356652D1*
X723176Y3358597D1*
X728924Y3360498D1*
X738519D1*
X744223Y3358597D1*
X748070Y3356652D1*
X751872Y3352849D1*
X753818Y3349002D1*
Y3341353D1*
X751872Y3337550D1*
X748070Y3333704D1*
X744223Y3331802D1*
X723220Y3317506D2*
X721319D1*
X717472Y3315604D1*
X715571Y3313703D1*
X713670Y3309856D1*
Y3302207D1*
X715571Y3298405D1*
X717472Y3296503D1*
X721319Y3294558D1*
X725122D1*
X728968Y3296503D1*
X734672Y3300306D1*
X753818Y3319451D1*
Y3292656D1*
X721319Y3280305D2*
X719374Y3276458D1*
X713670Y3270710D1*
X753818D1*
X977334Y3341421D2*
X973531Y3343322D1*
X969684Y3347169D1*
X967783Y3350971D1*
Y3358621D1*
X969684Y3362467D1*
X973531Y3366270D1*
X977334Y3368215D1*
X983082Y3370117D1*
X992676D1*
X998380Y3368215D1*
X1002227Y3366270D1*
X1006030Y3362467D1*
X1007975Y3358621D1*
Y3350971D1*
X1006030Y3347169D1*
X1002227Y3343322D1*
X998380Y3341421D1*
X977378Y3327124D2*
X975477D1*
X971630Y3325223D1*
X969729Y3323321D1*
X967827Y3319475D1*
Y3311825D1*
X969729Y3308023D1*
X971630Y3306122D1*
X975477Y3304176D1*
X979279D1*
X983126Y3306122D1*
X988830Y3309924D1*
X1007975Y3329069D1*
Y3302275D1*
X977378Y3287978D2*
X975477D1*
X971630Y3286077D1*
X969729Y3284175D1*
X967827Y3280329D1*
Y3272679D1*
X969729Y3268877D1*
X971630Y3266976D1*
X975477Y3265030D1*
X979279D1*
X983126Y3266976D1*
X988830Y3270778D1*
X1007975Y3289923D1*
Y3263129D1*
X783869Y2755757D2*
X780067Y2757658D1*
X776220Y2761505D1*
X774319Y2765307D1*
Y2772957D1*
X776220Y2776803D1*
X780067Y2780606D1*
X783869Y2782551D1*
X789617Y2784453D1*
X799212D1*
X804916Y2782551D1*
X808762Y2780606D1*
X812565Y2776803D1*
X814511Y2772957D1*
Y2765307D1*
X812565Y2761505D1*
X808762Y2757658D1*
X804916Y2755757D1*
X783913Y2741460D2*
X782012D1*
X778165Y2739559D1*
X776264Y2737657D1*
X774363Y2733811D1*
Y2726161D1*
X776264Y2722359D1*
X778165Y2720457D1*
X782012Y2718512D1*
X785815D1*
X789661Y2720457D1*
X795365Y2724260D1*
X814511Y2743405D1*
Y2716611D1*
X774363Y2700413D2*
Y2679410D1*
X789661Y2690862D1*
Y2685114D1*
X791563Y2681311D1*
X793464Y2679410D1*
X799212Y2677465D1*
X803014D1*
X808762Y2679410D1*
X812609Y2683213D1*
X814511Y2688961D1*
Y2694709D1*
X812609Y2700413D1*
X810664Y2702314D1*
X806861Y2704259D1*
X817176Y2989353D2*
X813374Y2991254D1*
X809527Y2995101D1*
X807626Y2998904D1*
Y3006553D1*
X809527Y3010400D1*
X813374Y3014202D1*
X817176Y3016148D1*
X822924Y3018049D1*
X832519D1*
X838223Y3016148D1*
X842070Y3014202D1*
X845872Y3010400D1*
X847818Y3006553D1*
Y2998904D1*
X845872Y2995101D1*
X842070Y2991254D1*
X838223Y2989353D1*
X817220Y2975056D2*
X815319D1*
X811472Y2973155D1*
X809571Y2971254D1*
X807670Y2967407D1*
Y2959758D1*
X809571Y2955955D1*
X811472Y2954054D1*
X815319Y2952108D1*
X819122D1*
X822968Y2954054D1*
X828672Y2957856D1*
X847818Y2977002D1*
Y2950207D1*
Y2918710D2*
X807670D1*
X834420Y2937856D1*
Y2909160D1*
X1063930Y3081602D2*
X1065831Y3085405D1*
X1069678Y3089251D1*
X1073480Y3091153D1*
X1081130D1*
X1084976Y3089251D1*
X1088779Y3085405D1*
X1090724Y3081602D1*
X1092626Y3075854D1*
Y3066259D1*
X1090724Y3060555D1*
X1088779Y3056709D1*
X1084976Y3052906D1*
X1081130Y3050961D1*
X1073480D1*
X1069678Y3052906D1*
X1065831Y3056709D1*
X1063930Y3060555D1*
X1049633Y3081558D2*
Y3083459D1*
X1047731Y3087306D1*
X1045830Y3089207D1*
X1041983Y3091108D1*
X1034334D1*
X1030532Y3089207D1*
X1028630Y3087306D1*
X1026685Y3083459D1*
Y3079657D1*
X1028630Y3075810D1*
X1032433Y3070106D1*
X1051578Y3050961D1*
X1024784D1*
X989484Y3085405D2*
X991386Y3089207D1*
X997134Y3091108D1*
X1000936D1*
X1006684Y3089207D1*
X1010531Y3083459D1*
X1012432Y3073908D1*
Y3064358D1*
X1010531Y3056709D1*
X1006684Y3052862D1*
X1000936Y3050961D1*
X999035D1*
X993331Y3052862D1*
X989484Y3056709D1*
X987583Y3062457D1*
Y3064358D1*
X989484Y3070106D1*
X993331Y3073908D1*
X999035Y3075810D1*
X1000936D1*
X1006684Y3073908D1*
X1010531Y3070106D1*
X1012432Y3064358D1*
X531176Y2965473D2*
X527374Y2967375D1*
X523527Y2971221D1*
X521626Y2975024D1*
Y2982673D1*
X523527Y2986520D1*
X527374Y2990322D1*
X531176Y2992268D1*
X536924Y2994169D1*
X546519D1*
X552223Y2992268D1*
X556070Y2990322D1*
X559872Y2986520D1*
X561818Y2982673D1*
Y2975024D1*
X559872Y2971221D1*
X556070Y2967375D1*
X552223Y2965473D1*
X531220Y2951176D2*
X529319D1*
X525472Y2949275D1*
X523571Y2947374D1*
X521670Y2943527D1*
Y2935878D1*
X523571Y2932075D1*
X525472Y2930174D1*
X529319Y2928229D1*
X533122D1*
X536968Y2930174D1*
X542672Y2933977D1*
X561818Y2953122D1*
Y2926327D1*
Y2906327D2*
X521670Y2887181D1*
Y2913976D1*
X655176Y2747451D2*
X651374Y2749352D1*
X647527Y2753199D1*
X645626Y2757002D1*
Y2764651D1*
X647527Y2768498D1*
X651374Y2772300D1*
X655176Y2774246D1*
X660924Y2776147D1*
X670519D1*
X676223Y2774246D1*
X680070Y2772300D1*
X683872Y2768498D1*
X685818Y2764651D1*
Y2757002D1*
X683872Y2753199D1*
X680070Y2749352D1*
X676223Y2747451D1*
X655220Y2733154D2*
X653319D1*
X649472Y2731253D1*
X647571Y2729352D1*
X645670Y2725505D1*
Y2717856D1*
X647571Y2714053D1*
X649472Y2712152D1*
X653319Y2710206D1*
X657122D1*
X660968Y2712152D1*
X666672Y2715954D1*
X685818Y2735100D1*
Y2708305D1*
X645670Y2686403D2*
X647571Y2692107D1*
X651374Y2694053D1*
X655220D1*
X659023Y2692107D1*
X660968Y2688304D1*
X662870Y2680655D1*
X664771Y2674907D1*
X668618Y2671105D1*
X672420Y2669203D1*
X678168D1*
X681971Y2671105D1*
X683916Y2673006D1*
X685818Y2678754D1*
Y2686403D1*
X683916Y2692107D1*
X681971Y2694052D1*
X678168Y2695954D1*
X672420D1*
X668618Y2694052D1*
X664771Y2690206D1*
X662870Y2684502D1*
X660968Y2676853D1*
X659023Y2673006D1*
X655220Y2671105D1*
X651374D1*
X647571Y2673006D1*
X645670Y2678754D1*
Y2686403D1*
X463369Y2566806D2*
X459567Y2568707D1*
X455720Y2572554D1*
X453819Y2576357D1*
Y2584006D1*
X455720Y2587853D1*
X459567Y2591655D1*
X463369Y2593601D1*
X469117Y2595502D1*
X478712D1*
X484416Y2593601D1*
X488262Y2591655D1*
X492065Y2587853D1*
X494011Y2584006D1*
Y2576357D1*
X492065Y2572554D1*
X488262Y2568707D1*
X484416Y2566806D1*
X463413Y2552509D2*
X461512D1*
X457665Y2550608D1*
X455764Y2548707D1*
X453863Y2544860D1*
Y2537211D1*
X455764Y2533408D1*
X457665Y2531507D1*
X461512Y2529561D1*
X465315D1*
X469161Y2531507D1*
X474865Y2535309D1*
X494011Y2554455D1*
Y2527660D1*
X467216Y2490415D2*
X472964Y2492361D1*
X476811Y2496163D1*
X478712Y2501911D1*
Y2503813D1*
X476811Y2509561D1*
X472964Y2513363D1*
X467216Y2515309D1*
X465315D1*
X459567Y2513363D1*
X455764Y2509561D1*
X453863Y2503813D1*
Y2501911D1*
X455764Y2496163D1*
X459567Y2492361D1*
X467216Y2490415D1*
X476811D1*
X486361Y2492361D1*
X492109Y2496163D1*
X494011Y2501911D1*
Y2505714D1*
X492109Y2511462D1*
X488263Y2513363D1*
X506676Y2808652D2*
X502874Y2810553D1*
X499027Y2814400D1*
X497126Y2818202D1*
Y2825852D1*
X499027Y2829698D1*
X502874Y2833501D1*
X506676Y2835446D1*
X512424Y2837348D1*
X522019D1*
X527723Y2835446D1*
X531570Y2833501D1*
X535372Y2829698D1*
X537318Y2825852D1*
Y2818202D1*
X535372Y2814400D1*
X531570Y2810553D1*
X527723Y2808652D1*
X497170Y2792454D2*
Y2771451D1*
X512468Y2782903D1*
Y2777155D1*
X514370Y2773352D1*
X516271Y2771451D1*
X522019Y2769506D1*
X525822D1*
X531570Y2771451D1*
X535416Y2775254D1*
X537318Y2781002D1*
Y2786750D1*
X535416Y2792454D1*
X533471Y2794355D1*
X529668Y2796300D1*
X497170Y2745658D2*
X499071Y2751406D1*
X504819Y2755253D1*
X514370Y2757154D1*
X520118D1*
X529668Y2755253D1*
X535416Y2751406D1*
X537318Y2745658D1*
Y2741856D1*
X535416Y2736108D1*
X529668Y2732305D1*
X520118Y2730360D1*
X514370D1*
X504819Y2732305D1*
X499071Y2736108D1*
X497170Y2741856D1*
Y2745658D1*
X504819Y2732305D2*
X529668Y2755253D1*
X694620Y2560535D2*
X690817Y2562436D1*
X686970Y2566283D1*
X685069Y2570085D1*
Y2577735D1*
X686970Y2581581D1*
X690817Y2585384D1*
X694620Y2587329D1*
X700368Y2589231D1*
X709963D1*
X715666Y2587329D1*
X719513Y2585384D1*
X723316Y2581581D1*
X725261Y2577735D1*
Y2570085D1*
X723316Y2566283D1*
X719513Y2562436D1*
X715666Y2560535D1*
X685113Y2544337D2*
Y2523334D1*
X700412Y2534786D1*
Y2529038D1*
X702313Y2525235D1*
X704215Y2523334D1*
X709963Y2521389D1*
X713765D1*
X719513Y2523334D1*
X723360Y2527137D1*
X725261Y2532885D1*
Y2538633D1*
X723360Y2544336D1*
X721414Y2546238D1*
X717612Y2548183D1*
X690817Y2486089D2*
X687015Y2487991D1*
X685113Y2493739D1*
Y2497541D1*
X687015Y2503289D1*
X692763Y2507136D1*
X702313Y2509037D1*
X711864D1*
X719513Y2507136D1*
X723360Y2503289D1*
X725261Y2497541D1*
Y2495640D1*
X723360Y2489936D1*
X719513Y2486089D1*
X713765Y2484188D1*
X711864D1*
X706116Y2486089D1*
X702313Y2489936D1*
X700412Y2495640D1*
Y2497541D1*
X702313Y2503289D1*
X706116Y2507136D1*
X711864Y2509037D1*
X1105324Y2611602D2*
X1107225Y2615405D1*
X1111072Y2619251D1*
X1114875Y2621153D1*
X1122524D1*
X1126371Y2619251D1*
X1130173Y2615405D1*
X1132119Y2611602D1*
X1134020Y2605854D1*
Y2596259D1*
X1132119Y2590555D1*
X1130173Y2586709D1*
X1126371Y2582906D1*
X1122524Y2580961D1*
X1114875D1*
X1111072Y2582906D1*
X1107225Y2586709D1*
X1105324Y2590555D1*
X1073827Y2580961D2*
Y2621108D1*
X1092973Y2594358D1*
X1064277D1*
X1051925Y2613459D2*
X1048078Y2615405D1*
X1042330Y2621108D1*
Y2580961D1*
X935176Y2574424D2*
X931374Y2576325D1*
X927527Y2580172D1*
X925626Y2583975D1*
Y2591624D1*
X927527Y2595471D1*
X931374Y2599273D1*
X935176Y2601219D1*
X940924Y2603120D1*
X950519D1*
X956223Y2601219D1*
X960070Y2599273D1*
X963872Y2595471D1*
X965818Y2591624D1*
Y2583974D1*
X963872Y2580172D1*
X960070Y2576325D1*
X956223Y2574424D1*
X965818Y2542927D2*
X925670D1*
X952420Y2562073D1*
Y2533377D1*
X935220Y2519080D2*
X933319D1*
X929472Y2517179D1*
X927571Y2515277D1*
X925670Y2511430D1*
Y2503781D1*
X927571Y2499979D1*
X929472Y2498077D1*
X933319Y2496132D1*
X937122D1*
X940968Y2498077D1*
X946672Y2501880D1*
X965818Y2521025D1*
Y2494231D1*
X1524686Y1321718D2*
Y1281526D1*
X1485540Y1321718D2*
Y1281526D1*
X1512334Y1321718D1*
Y1281526D1*
X1473188Y1314025D2*
X1469342Y1315970D1*
X1463594Y1321674D1*
Y1281526D1*
X1151383Y1309468D2*
Y1269276D1*
X1112237Y1309468D2*
Y1269276D1*
X1139032Y1309468D1*
Y1269276D1*
X1099886Y1262643D2*
X1063541D1*
X1049244Y1299873D2*
Y1301774D1*
X1047343Y1305621D1*
X1045441Y1307522D1*
X1041595Y1309423D1*
X1033945D1*
X1030143Y1307522D1*
X1028241Y1305621D1*
X1026296Y1301774D1*
Y1297971D1*
X1028241Y1294125D1*
X1032044Y1288421D1*
X1051189Y1269276D1*
X1024395D1*
X1172091Y2593360D2*
X1212283D1*
Y2570412D1*
X1172091Y2533212D2*
Y2558061D1*
X1212283D1*
Y2533212D1*
X1191236Y2558061D2*
Y2542762D1*
X1172091Y2520860D2*
X1212283D1*
Y2507463D1*
X1210337Y2501715D1*
X1206535Y2497868D1*
X1202688Y2495967D1*
X1196984Y2494066D1*
X1187389D1*
X1181641Y2495967D1*
X1177839Y2497868D1*
X1173992Y2501715D1*
X1172091Y2507463D1*
Y2520860D1*
X1181685Y2479769D2*
X1179784D1*
X1175937Y2477867D1*
X1174036Y2475966D1*
X1172135Y2472119D1*
Y2464470D1*
X1174036Y2460668D1*
X1175937Y2458766D1*
X1179784Y2456821D1*
X1183587D1*
X1187433Y2458766D1*
X1193137Y2462569D1*
X1212283Y2481714D1*
Y2454920D1*
X1157911Y2447662D2*
Y2407470D1*
X1134963D1*
X1097762Y2447662D2*
X1122611D1*
Y2407470D1*
X1097762D1*
X1122611Y2428516D2*
X1107313D1*
X1085411Y2447662D2*
X1070112Y2407470D1*
X1054814Y2447662D1*
X1042462Y2439968D2*
X1038615Y2441914D1*
X1032867Y2447618D1*
Y2407470D1*
X715511Y2447662D2*
Y2407470D1*
X692563D1*
X655362Y2447662D2*
X680211D1*
Y2407470D1*
X655362D1*
X680211Y2428516D2*
X664913D1*
X643011Y2447662D2*
X627712Y2407470D1*
X612414Y2447662D1*
X598117Y2438067D2*
Y2439968D1*
X596215Y2443815D1*
X594314Y2445716D1*
X590467Y2447618D1*
X582818D1*
X579016Y2445716D1*
X577114Y2443815D1*
X575169Y2439968D1*
Y2436166D1*
X577114Y2432319D1*
X580917Y2426615D1*
X600062Y2407470D1*
X573267D1*
X1171106Y1512218D2*
Y1472026D1*
X1148158D1*
X1110957Y1512218D2*
X1135807D1*
Y1472026D1*
X1110957D1*
X1135807Y1493073D2*
X1120508D1*
X1098606Y1512218D2*
X1083307Y1472026D1*
X1068009Y1512218D1*
X1030808D2*
X1055657D1*
Y1472026D1*
X1030808D1*
X1055657Y1493073D2*
X1040359D1*
X1018457Y1512218D2*
Y1472026D1*
X995509D1*
X983158Y1465394D2*
X946812D1*
X934461Y1504525D2*
X930614Y1506470D1*
X924866Y1512174D1*
Y1472026D1*
X912515Y1465394D2*
X876169D1*
X835122Y1502668D2*
X837023Y1506470D1*
X840870Y1510317D1*
X844673Y1512218D1*
X852322D1*
X856169Y1510317D1*
X859971Y1506470D1*
X861917Y1502668D1*
X863818Y1496920D1*
Y1487325D1*
X861917Y1481621D1*
X859971Y1477774D1*
X856169Y1473972D1*
X852322Y1472026D1*
X844673D1*
X840870Y1473972D1*
X837023Y1477774D1*
X835122Y1481621D1*
X822771Y1512218D2*
X807472Y1472026D1*
X792174Y1512218D1*
X788381Y1518469D2*
Y1478277D1*
X765433D1*
X728233Y1518469D2*
X753082D1*
Y1478277D1*
X728233D1*
X753082Y1499323D2*
X737783D1*
X715881Y1518469D2*
X700583Y1478277D1*
X685284Y1518469D1*
X648084D2*
X672933D1*
Y1478277D1*
X648084D1*
X672933Y1499323D2*
X657634D1*
X635732Y1518469D2*
Y1478277D1*
X612784D1*
X600433Y1471644D2*
X564088D1*
X549791Y1508874D2*
Y1510775D1*
X547889Y1514622D1*
X545988Y1516523D1*
X542141Y1518425D1*
X534492D1*
X530690Y1516523D1*
X528788Y1514622D1*
X526843Y1510775D1*
Y1506973D1*
X528788Y1503126D1*
X532591Y1497422D1*
X551736Y1478277D1*
X524942D1*
X512590Y1471644D2*
X476245D1*
X435198Y1508918D2*
X437099Y1512721D1*
X440946Y1516568D1*
X444748Y1518469D1*
X452397D1*
X456244Y1516568D1*
X460047Y1512721D1*
X461992Y1508918D1*
X463893Y1503170D1*
Y1493575D1*
X461992Y1487872D1*
X460047Y1484025D1*
X456244Y1480222D1*
X452397Y1478277D1*
X444748D1*
X440946Y1480222D1*
X437099Y1484025D1*
X435198Y1487872D1*
X422846Y1505072D2*
X411350Y1478277D1*
X399898Y1505072D1*
X1461758Y653276D2*
Y693468D1*
X1477057Y653276D1*
X1492355Y693468D1*
Y653276D1*
X1437911Y693468D2*
X1441757Y691566D1*
X1445560Y687719D1*
X1447506Y683917D1*
X1449407Y678169D1*
Y668574D1*
X1447506Y662870D1*
X1445560Y659024D1*
X1441757Y655221D1*
X1437911Y653276D1*
X1430261D1*
X1426459Y655221D1*
X1422612Y659024D1*
X1420711Y662870D1*
X1418810Y668574D1*
Y678169D1*
X1420711Y683917D1*
X1422612Y687719D1*
X1426459Y691566D1*
X1430261Y693468D1*
X1437911D1*
X1406458D2*
Y653276D1*
X1393061D1*
X1387313Y655221D1*
X1383466Y659024D1*
X1381565Y662870D1*
X1379663Y668574D1*
Y678169D1*
X1381565Y683917D1*
X1383466Y687719D1*
X1387313Y691566D1*
X1393061Y693468D1*
X1406458D1*
X1355816D2*
X1359663Y691566D1*
X1363465Y687719D1*
X1365411Y683917D1*
X1367312Y678169D1*
Y668574D1*
X1365411Y662870D1*
X1363465Y659024D1*
X1359663Y655221D1*
X1355816Y653276D1*
X1348167D1*
X1344364Y655221D1*
X1340517Y659024D1*
X1338616Y662870D1*
X1336715Y668574D1*
Y678169D1*
X1338616Y683917D1*
X1340517Y687719D1*
X1344364Y691566D1*
X1348167Y693468D1*
X1355816D1*
X1324363D2*
Y664772D1*
X1322462Y659024D1*
X1318615Y655221D1*
X1312867Y653276D1*
X1309065D1*
X1303317Y655221D1*
X1299470Y659024D1*
X1297569Y664772D1*
Y693468D1*
X1271820D2*
Y653276D1*
X1285217Y693468D2*
X1258423D1*
X1078982Y653276D2*
Y693468D1*
X1094281Y653276D1*
X1109579Y693468D1*
Y653276D1*
X1055134Y693468D2*
X1058981Y691566D1*
X1062784Y687719D1*
X1064729Y683917D1*
X1066631Y678169D1*
Y668574D1*
X1064729Y662870D1*
X1062784Y659024D1*
X1058981Y655221D1*
X1055134Y653276D1*
X1047485D1*
X1043683Y655221D1*
X1039836Y659024D1*
X1037935Y662870D1*
X1036033Y668574D1*
Y678169D1*
X1037935Y683917D1*
X1039836Y687719D1*
X1043683Y691566D1*
X1047485Y693468D1*
X1055134D1*
X1023682D2*
Y653276D1*
X1010285D1*
X1004537Y655221D1*
X1000690Y659024D1*
X998789Y662870D1*
X996887Y668574D1*
Y678169D1*
X998789Y683917D1*
X1000690Y687719D1*
X1004537Y691566D1*
X1010285Y693468D1*
X1023682D1*
X973040D2*
X976887Y691566D1*
X980689Y687719D1*
X982635Y683917D1*
X984536Y678169D1*
Y668574D1*
X982635Y662870D1*
X980689Y659024D1*
X976887Y655221D1*
X973040Y653276D1*
X965390D1*
X961588Y655221D1*
X957741Y659024D1*
X955840Y662870D1*
X953939Y668574D1*
Y678169D1*
X955840Y683917D1*
X957741Y687719D1*
X961588Y691566D1*
X965390Y693468D1*
X973040D1*
X941587D2*
Y664772D1*
X939686Y659024D1*
X935839Y655221D1*
X930091Y653276D1*
X926289D1*
X920541Y655221D1*
X916694Y659024D1*
X914793Y664772D1*
Y693468D1*
X889044D2*
Y653276D1*
X902441Y693468D2*
X875647D1*
X863295Y685774D2*
X859448Y687719D1*
X853700Y693423D1*
Y653276D1*
X1381006Y3422937D2*
X1363762D1*
X1358058Y3424838D1*
X1356112Y3426783D1*
X1354211Y3430586D1*
Y3436334D1*
X1356112Y3440137D1*
X1358058Y3442082D1*
X1363762Y3443983D1*
X1381006D1*
Y3403791D1*
X1311218D2*
X1326561Y3443983D1*
X1341860Y3403791D1*
X1336112Y3417189D2*
X1316966D1*
X1298867Y3424838D2*
X1281667D1*
X1275919Y3426783D1*
X1273974Y3428685D1*
X1272072Y3432487D1*
Y3436334D1*
X1273974Y3440137D1*
X1275919Y3442082D1*
X1281667Y3443983D1*
X1298867D1*
Y3403791D1*
X1285470Y3424838D2*
X1272072Y3403791D1*
X1229079D2*
X1244422Y3443983D1*
X1259721Y3403791D1*
X1253973Y3417189D2*
X1234827D1*
X1545424Y1491172D2*
X1528179D1*
X1522476Y1493073D1*
X1520530Y1495018D1*
X1518629Y1498821D1*
Y1504569D1*
X1520530Y1508371D1*
X1522476Y1510317D1*
X1528179Y1512218D1*
X1545424D1*
Y1472026D1*
X1475636D2*
X1490979Y1512218D1*
X1506277Y1472026D1*
X1500529Y1485424D2*
X1481384D1*
X1463285Y1493073D2*
X1446085D1*
X1440337Y1495018D1*
X1438391Y1496920D1*
X1436490Y1500722D1*
Y1504569D1*
X1438391Y1508371D1*
X1440337Y1510317D1*
X1446085Y1512218D1*
X1463285D1*
Y1472026D1*
X1449887Y1493073D2*
X1436490Y1472026D1*
X1393497D2*
X1408840Y1512218D1*
X1424139Y1472026D1*
X1418391Y1485424D2*
X1399245D1*
X1350549Y1472026D2*
Y1512218D1*
X1365847Y1472026D1*
X1381146Y1512218D1*
Y1472026D1*
X1338197Y1465394D2*
X1301852D1*
X1260805Y1502668D2*
X1262706Y1506470D1*
X1266553Y1510317D1*
X1270355Y1512218D1*
X1278004D1*
X1281851Y1510317D1*
X1285654Y1506470D1*
X1287599Y1502668D1*
X1289500Y1496920D1*
Y1487325D1*
X1287599Y1481621D1*
X1285654Y1477774D1*
X1281851Y1473972D1*
X1278004Y1472026D1*
X1270355D1*
X1266553Y1473972D1*
X1262706Y1477774D1*
X1260805Y1481621D1*
X1248453Y1512218D2*
X1233155Y1472026D1*
X1217856Y1512218D1*
X922569Y2868650D2*
X924426Y2872453D1*
X928273Y2876300D1*
X932120Y2878201D1*
X937868Y2880146D1*
X947418D1*
X953166Y2878201D1*
X956969Y2876300D1*
X960816Y2872453D1*
X962717Y2868650D1*
Y2861001D1*
X960816Y2857154D1*
X956969Y2853352D1*
X953166Y2851450D1*
X947418Y2849505D1*
X937868D1*
X932120Y2851450D1*
X928273Y2853352D1*
X924426Y2857154D1*
X922569Y2861001D1*
Y2868650D1*
X955068Y2862902D2*
X966564Y2851450D1*
X932164Y2835208D2*
X930263D1*
X926416Y2833307D1*
X924515Y2831406D1*
X922613Y2827559D1*
Y2819910D1*
X924515Y2816107D1*
X926416Y2814206D1*
X930263Y2812260D1*
X934065D1*
X937912Y2814206D1*
X943616Y2818008D1*
X962761Y2837154D1*
Y2810359D1*
X1505309Y2986137D2*
X1501463Y2989939D1*
X1499561Y2995687D1*
Y3003336D1*
X1501463Y3009084D1*
X1505309Y3012931D1*
X1509112D1*
X1512959Y3010986D1*
X1514860Y3009084D1*
X1516761Y3005282D1*
X1520608Y2993786D1*
X1522509Y2989939D1*
X1524455Y2988038D1*
X1528257Y2986137D1*
X1534005Y2986136D1*
X1537808Y2989939D1*
X1539753Y2995687D1*
Y3003336D1*
X1537808Y3009084D1*
X1534005Y3012931D1*
X1499561Y2973785D2*
X1539753Y2964190D1*
X1499561Y2954640D1*
X1539753Y2945089D1*
X1499561Y2935494D1*
X1499606Y2919296D2*
X1499605Y2898294D1*
X1514904Y2909746D1*
Y2903998D1*
X1516805Y2900195D1*
X1518707Y2898294D1*
X1524455Y2896348D1*
X1528257D1*
X1534005Y2898294D1*
X1537852Y2902096D1*
X1539753Y2907844D1*
Y2913592D1*
X1537852Y2919296D1*
X1535907Y2921198D1*
X1532104Y2923143D1*
X1057109Y4365218D2*
Y4325026D1*
X1034161D1*
X996961Y4365218D2*
X1021810D1*
Y4325026D1*
X996961D1*
X1021810Y4346073D2*
X1006511D1*
X984609Y4365218D2*
Y4325026D1*
X971212D1*
X965464Y4326972D1*
X961617Y4330774D1*
X959716Y4334621D1*
X957815Y4340325D1*
Y4349920D1*
X959716Y4355668D1*
X961617Y4359470D1*
X965464Y4363317D1*
X971212Y4365218D1*
X984609D1*
X941617Y4365174D2*
X920614D1*
X932066Y4349875D1*
X926318D1*
X922516Y4347974D1*
X920614Y4346073D1*
X918669Y4340325D1*
Y4336522D1*
X920614Y4330774D1*
X924417Y4326927D1*
X930165Y4325026D1*
X935913D1*
X941617Y4326927D1*
X943518Y4328873D1*
X945463Y4332675D1*
M02*
