M48
INCH
T01C0.015
T02C0.024
T03C0.0276
T04C0.0394
T05C0.04
T06C0.05
T07C0.052
T08C0.084
%
T01
X+013399Y+021221
X+013619Y+021681
X+012679Y+020321
X+011191Y+019629
X+010619Y+020861
X+008059Y+020441
X+006859Y+020861
X+006939Y+019501
X+005004Y+019879
X+005199Y+017861
X+004779Y+017261
X+004699Y+016801
X+004566Y+016004
X+005199Y+015901
X+005739Y+015021
X+004566Y+015066
X+006629Y+014254
X+006691Y+013316
X+006566Y+011816
X+006629Y+010816
X+006739Y+010241
X+006019Y+010481
X+006479Y+009501
X+005279Y+009261
X+004566Y+010191
X+004566Y+011254
X+005119Y+011281
X+004629Y+012254
X+004316Y+012691
X+007865Y+012053
X+008004Y+011004
X+008713Y+009861
X+009199Y+008781
X+007939Y+008261
X+007299Y+008161
X+006639Y+008001
X+006639Y+006261
X+006639Y+005141
X+007703Y+005721
X+007839Y+006601
X+011119Y+008801
X+011629Y+009941
X+011119Y+010101
X+011629Y+011441
X+011316Y+012004
X+011584Y+012361
X+012339Y+012281
X+013066Y+012316
X+012819Y+013401
X+013059Y+013761
X+013879Y+014821
X+013619Y+015281
X+013079Y+015321
X+012191Y+015816
X+012129Y+016754
X+011441Y+016504
X+010566Y+017566
X+008779Y+017101
X+007839Y+016441
X+007799Y+015221
X+008629Y+014321
X+006691Y+015816
X+006691Y+017379
X+008159Y+023301
X+007899Y+024121
X+007379Y+025201
X+006919Y+025601
X+006839Y+026101
X+006231Y+025429
X+006179Y+024241
X+005719Y+023981
X+005359Y+023521
X+006499Y+023781
X+008504Y+025879
X+008219Y+026681
X+007479Y+027441
X+007139Y+027741
X+007179Y+028261
X+007899Y+028001
X+008219Y+028461
X+008535Y+028685
X+007939Y+028801
X+007379Y+029621
X+006919Y+029621
X+006359Y+029461
X+005559Y+030381
X+005579Y+030771
X+006219Y+031441
X+005879Y+031961
X+005254Y+032629
X+004579Y+032741
X+004539Y+033361
X+005739Y+033902
X+006039Y+033501
X+006419Y+033441
X+007159Y+032381
X+007559Y+032121
X+008254Y+032197
X+008239Y+032801
X+008219Y+033381
X+008059Y+034301
X+008479Y+034281
X+008939Y+034901
X+008159Y+035161
X+008139Y+035581
X+007519Y+034161
X+006499Y+035341
X+005539Y+034481
X+004639Y+035021
X+004499Y+035501
X+004379Y+036101
X+005066Y+035801
X+004819Y+037461
X+008539Y+037481
X+009191Y+036754
X+009566Y+037066
X+010566Y+038004
X+011519Y+035241
X+010839Y+034081
X+009859Y+033921
X+009579Y+033681
X+009559Y+031821
X+009919Y+031401
X+009079Y+031481
X+008705Y+031455
X+008059Y+031461
X+009099Y+030941
X+009359Y+030241
X+009299Y+029481
X+009699Y+029221
X+010129Y+028754
X+010129Y+028066
X+009759Y+025881
X+010559Y+025641
X+011059Y+025621
X+011119Y+026061
X+009579Y+024841
X+010539Y+023801
X+012179Y+023301
X+014839Y+024841
X+012439Y+028361
X+007019Y+027181
X+005679Y+027141
X+004245Y+027141
X+004251Y+030721
X+013039Y+034161
X+013479Y+040001
X+013499Y+040741
X+014599Y+041021
X+012219Y+042001
X+011899Y+042861
X+010691Y+043191
X+009941Y+042441
X+010691Y+041629
X+011739Y+041181
X+007856Y+041755
X+004419Y+042841
X+014279Y+045881
X+014859Y+018901
X+015259Y+018881
X+014839Y+018461
X+014719Y+017781
X+013419Y+016741
X+013059Y+016361
X+012939Y+017501
X+014599Y+014341
X+013066Y+011066
X+013191Y+010254
X+013199Y+008701
X+012339Y+008261
X+012139Y+007081
X+012639Y+007081
X+013359Y+006661
X+013579Y+005781
X+014419Y+005741
X+015219Y+005041
X+015459Y+007021
X+012699Y+006001
X+010879Y+012691
T02
X+006629Y+046254
X+006629Y+045754
X+006129Y+045754
X+006129Y+046254
X+005629Y+046254
X+005629Y+045754
X+005129Y+045754
X+005129Y+046254
X+004629Y+046254
X+004629Y+045754
T03
X+012354Y+027729
X+012354Y+026941
X+012354Y+026154
T04
X+005509Y+040965
X+005509Y+042441
X+005509Y+043918
X+012070Y+028995
X+013050Y+028992
X+014030Y+028995
X+011934Y+019031
X+010954Y+019029
X+009974Y+019031
X+007424Y+019031
X+006444Y+019029
X+005464Y+019031
T05
X+005879Y+008759
X+005879Y+008749
X+009879Y+008749
X+009879Y+008759
X+013879Y+008756
X+013879Y+008749
X+013879Y+018311
X+009879Y+018311
X+005879Y+018311
X+013331Y+025676
X+015111Y+025676
X+015111Y+028236
X+013331Y+028236
X+013691Y+034821
X+014691Y+034821
X+014691Y+035821
X+013691Y+035821
X+013691Y+036821
X+013691Y+037821
X+014691Y+037821
X+014691Y+036821
X+014691Y+038821
X+013691Y+038821
T06
X+009084Y+021831G85X+009084Y+022131
X+008314Y+021831G85X+008314Y+022131
X+004574Y+021831G85X+004574Y+022131
X+012824Y+021831G85X+012824Y+022131
X+011180Y+031795G85X+011180Y+032095
X+014920Y+031795G85X+014920Y+032095
T07
X+005879Y+009759
X+005879Y+007749
X+005879Y+004499
X+009879Y+004499
X+009879Y+007749
X+009879Y+009759
X+009879Y+013009
X+009879Y+014061
X+009879Y+017311
X+013879Y+017311
X+013879Y+014061
X+013879Y+013006
X+013879Y+009756
X+013879Y+007749
X+013879Y+004499
X+005879Y+013009
X+005879Y+014061
X+005879Y+017311
T08
X+009840Y+045146
X+009840Y+039737
T00
M30
